{
classes = (
{
automatic = 1;
code = "A Agrave Aacute Acircumflex Atilde Adieresis Aring Amacron Abreve Aogonek uni0200 uni0202 B C Ccedilla Cacute Ccircumflex Cdotaccent Ccaron D Dcaron E Egrave Eacute Ecircumflex Edieresis Emacron Eogonek Ecaron uni0204 uni0206 F G Gcircumflex Gbreve Gdotaccent Gcommaaccent uni01F4 H I Igrave Iacute Icircumflex Idieresis Itilde Imacron Ibreve Iogonek uni0208 uni020A J Jcircumflex K Kcommaaccent L Lacute Lcommaaccent Lcaron M N Ntilde Nacute Ncommaaccent Ncaron O Ograve Oacute Ocircumflex Otilde Odieresis Omacron Obreve Ohungarumlaut uni020C uni020E P Q R Racute Rcommaaccent Rcaron S Sacute Scircumflex Scedilla Scaron Scommaaccent T Tcaron uni021A U Ugrave Uacute Ucircumflex Udieresis Umacron Ubreve Uring Uhungarumlaut Uogonek V W X Y Yacute Ydieresis Z Zacute Zdotaccent Zcaron AE Eth Oslash Thorn Dcroat Hbar IJ Ldot Lslash OE uni01C4 uni01C7 uni01CA uni01F1 uni01C5 uni01C8 uni01CB Dz Edotaccent Idotaccent Eng Tbar Tcedilla Tcommaaccent Wacute Wcircumflex Wdieresis Wgrave Ycircumflex Ygrave";
name = Uppercase;
}
);
copyright = "Copyright (c) 2011-13 by vernon adams. All rights reserved.";
customParameters = (
{
name = glyphOrder;
value = (
    space,
    A,
    Agrave,
    Aacute,
    Acircumflex,
    Atilde,
    Adieresis,
    Aring,
    Amacron,
    Abreve,
    Aogonek,
    uni0200,
    uni0202,
    B,
    C,
    Ccedilla,
    Cacute,
    Ccircumflex,
    Cdotaccent,
    Ccaron,
    D,
    Dcaron,
    E,
    Egrave,
    Eacute,
    Ecircumflex,
    Edieresis,
    Emacron,
    Eogonek,
    Ecaron,
    uni0204,
    uni0206,
    F,
    G,
    Gcircumflex,
    Gbreve,
    Gdotaccent,
    Gcommaaccent,
    uni01F4,
    H,
    I,
    Igrave,
    Iacute,
    Icircumflex,
    Idieresis,
    Itilde,
    Imacron,
    Ibreve,
    Iogonek,
    Idot,
    uni0208,
    uni020A,
    J,
    Jcircumflex,
    K,
    Kcommaaccent,
    L,
    Lacute,
    Lcommaaccent,
    Lcaron,
    M,
    N,
    Ntilde,
    Nacute,
    Ncommaaccent,
    Ncaron,

glyphs = (
{
glyphname = A;
lastChange = "2013-12-10 16:10:23 -0800";
layers = (
{
anchors = (
{
name = ogonek;
position = "{1125, -0}";
},
{
name = top;
position = "{617, 1464}";
}
);
layerId = "E322F6D1-BA90-436B-BB35-51D9BD3EA9D1";
name = Regular;
paths = (
{
closed = 1;
nodes = (
"513 1464 LINE",
"29 0 LINE",
"175 0 LINE",
"303 399 LINE",
"927 399 LINE",
"1061 0 LINE",
"1211 0 LINE",
"725 1464 LINE"
);
},
{
closed = 1;
nodes = (
"893 508 LINE",
"337 508 LINE",
"617 1368 LINE"
);
}
);
width = 1240;
},
{
anchors = (
{
name = ogonek;
position = "{1147, 0}";
},
{
name = top;
position = "{649, 1464}";
}
);
layerId = "5D328E58-2F78-4B3D-8E27-494E56F2C351";
name = Bold;
paths = (
{
closed = 1;
nodes = (
"484 1464 LINE",
"28 0 LINE",
"248 0 LINE",
"364 379 LINE",
"916 379 LINE",
"1038 0 LINE",
"1269 0 LINE",
"804 1464 LINE"
);
},
{
closed = 1;
nodes = (
"866 540 LINE",
"412 540 LINE",
"640 1320 LINE"
);
}
);
width = 1297;
}
);
leftKerningGroup = _A_left;
rightKerningGroup = _A_right;
unicode = 0041;
userData = {
com.typemytype.robofont.layerData = {
};
};
},
{
glyphname = B;
lastChange = "2013-12-10 07:01:58 -0800";
layers = (
{
anchors = (
{
name = top;
position = "{621, 1464}";
}
);
layerId = "E322F6D1-BA90-436B-BB35-51D9BD3EA9D1";
name = Regular;
paths = (
{
closed = 1;
nodes = (
"152 1464 LINE",
"152 0 LINE",
"555 0 LINE SMOOTH",
"1013 0 OFFCURVE",
"1218 85 OFFCURVE",
"1218 413 CURVE SMOOTH",
"1218 627 OFFCURVE",
"1120 759 OFFCURVE",
"885 782 CURVE",
"1111 806 OFFCURVE",
"1171 925 OFFCURVE",
"1174 1095 CURVE SMOOTH",
"1180 1416 OFFCURVE",
"893 1464 OFFCURVE",
"591 1464 CURVE SMOOTH"
);
},
{
closed = 1;
nodes = (
"893 730 OFFCURVE",
"1073 694 OFFCURVE",
"1073 415 CURVE SMOOTH",
"1073 126 OFFCURVE",
"833 112 OFFCURVE",
"612 112 CURVE SMOOTH",
"298 112 LINE",
"298 730 LINE",
"593 730 LINE SMOOTH"
);
},
{
closed = 1;
nodes = (
"833 1352 OFFCURVE",
"1035 1343 OFFCURVE",
"1035 1100 CURVE SMOOTH",
"1035 851 OFFCURVE",
"879 837 OFFCURVE",
"565 837 CURVE SMOOTH",
"298 837 LINE",
"298 1352 LINE",
"598 1352 LINE SMOOTH"
);
}
);
width = 1302.57;
},
{
anchors = (
{
name = top;
position = "{697, 1464}";
}
);
layerId = "5D328E58-2F78-4B3D-8E27-494E56F2C351";
name = Bold;
paths = (
{
closed = 1;
nodes = (
"136 1464 LINE",
"136 0 LINE",
"559 0 LINE SMOOTH",
"1017 0 OFFCURVE",
"1251 85 OFFCURVE",
"1251 413 CURVE SMOOTH",
"1251 604 OFFCURVE",
"1190 746 OFFCURVE",
"976 778 CURVE",
"1172 812 OFFCURVE",
"1203 948 OFFCURVE",
"1203 1108 CURVE SMOOTH",
"1203 1417 OFFCURVE",
"897 1464 OFFCURVE",
"595 1464 CURVE SMOOTH"
);
},
{
closed = 1;
nodes = (
"903 697 OFFCURVE",
"1032 669 OFFCURVE",
"1032 419 CURVE SMOOTH",
"1032 168 OFFCURVE",
"807 164 OFFCURVE",
"586 164 CURVE SMOOTH",
"356 164 LINE",
"356 697 LINE",
"633 697 LINE SMOOTH"
);
},
{
closed = 1;
nodes = (
"837 1300 OFFCURVE",
"983 1304 OFFCURVE",
"994 1114 CURVE SMOOTH",
"1006 903 OFFCURVE",
"947 857 OFFCURVE",
"639 857 CURVE SMOOTH",
"356 857 LINE",
"356 1300 LINE",
"602 1300 LINE SMOOTH"
);
}
);
width = 1331;
}
);
unicode = 0042;
userData = {
com.typemytype.robofont.layerData = {
};
};
},
{
glyphname = C;
lastChange = "2013-12-10 14:54:24 -0800";
layers = (
{
anchors = (
{
name = top;
position = "{743, 1464}";
}
);
layerId = "E322F6D1-BA90-436B-BB35-51D9BD3EA9D1";
name = Regular;
paths = (
{
closed = 1;
nodes = (
"359 1491 OFFCURVE",
"118 1267 OFFCURVE",
"118 736 CURVE SMOOTH",
"118 205 OFFCURVE",
"359 -24 OFFCURVE",
"742 -24 CURVE SMOOTH",
"1000 -24 OFFCURVE",
"1201 102 OFFCURVE",
"1273 365 CURVE",
"1139 396 LINE",
"1093 219 OFFCURVE",
"968 93 OFFCURVE",
"737 93 CURVE SMOOTH",
"392 93 OFFCURVE",
"271 339 OFFCURVE",
"271 736 CURVE SMOOTH",
"271 1133 OFFCURVE",
"392 1374 OFFCURVE",
"737 1374 CURVE SMOOTH",
"968 1374 OFFCURVE",
"1093 1248 OFFCURVE",
"1139 1071 CURVE",
"1273 1102 LINE",
"1201 1365 OFFCURVE",
"1000 1491 OFFCURVE",
"742 1491 CURVE SMOOTH"
);
}
);
width = 1384;
},
{
anchors = (
{
name = top;
position = "{773, 1464}";
}
);
layerId = "5D328E58-2F78-4B3D-8E27-494E56F2C351";
name = Bold;
paths = (
{
closed = 1;
nodes = (
"352 1488 OFFCURVE",
"114 1265 OFFCURVE",
"114 734 CURVE SMOOTH",
"114 203 OFFCURVE",
"352 -24 OFFCURVE",
"774 -24 CURVE SMOOTH",
"1032 -24 OFFCURVE",
"1248 79 OFFCURVE",
"1341 355 CURVE",
"1137 402 LINE",
"1081 253 OFFCURVE",
"988 150 OFFCURVE",
"765 150 CURVE SMOOTH",
"453 150 OFFCURVE",
"346 337 OFFCURVE",
"346 734 CURVE SMOOTH",
"346 1131 OFFCURVE",
"453 1313 OFFCURVE",
"765 1313 CURVE SMOOTH",
"988 1313 OFFCURVE",
"1081 1211 OFFCURVE",
"1137 1062 CURVE",
"1341 1109 LINE",
"1248 1385 OFFCURVE",
"1032 1488 OFFCURVE",
"774 1488 CURVE SMOOTH"
);
}
);
width = 1410;
}
);
leftKerningGroup = _O_left;
unicode = 0043;
userData = {
com.typemytype.robofont.layerData = {
};
};
},
{
glyphname = D;
lastChange = "2013-12-10 14:54:29 -0800";
layers = (
{
anchors = (
{
name = top;
position = "{617, 1464}";
}
);
layerId = "E322F6D1-BA90-436B-BB35-51D9BD3EA9D1";
name = Regular;
paths = (
{
closed = 1;
nodes = (
"152 1464 LINE",
"152 0 LINE",
"649 0 LINE SMOOTH",
"1087 0 OFFCURVE",
"1291 203 OFFCURVE",
"1291 738 CURVE SMOOTH",
"1291 1280 OFFCURVE",
"1068 1464 OFFCURVE",
"656 1464 CURVE SMOOTH"
);
},
{
closed = 1;
nodes = (
"1041 1352 OFFCURVE",
"1144 1131 OFFCURVE",
"1144 737 CURVE SMOOTH",
"1144 288 OFFCURVE",
"1012 112 OFFCURVE",
"601 112 CURVE SMOOTH",
"298 112 LINE",
"298 1352 LINE",
"657 1352 LINE SMOOTH"
);
}
);
width = 1409;
},
{
anchors = (
{
name = top;
position = "{697, 1464}";
}
);
layerId = "5D328E58-2F78-4B3D-8E27-494E56F2C351";
name = Bold;
paths = (
{
closed = 1;
nodes = (
"136 1464 LINE",
"136 0 LINE",
"685 0 LINE SMOOTH",
"1157 0 OFFCURVE",
"1346 213 OFFCURVE",
"1346 738 CURVE SMOOTH",
"1346 1280 OFFCURVE",
"1126 1464 OFFCURVE",
"684 1464 CURVE SMOOTH"
);
},
{
closed = 1;
nodes = (
"1028 1296 OFFCURVE",
"1125 1127 OFFCURVE",
"1125 737 CURVE SMOOTH",
"1125 292 OFFCURVE",
"999 168 OFFCURVE",
"622 168 CURVE SMOOTH",
"356 168 LINE",
"356 1296 LINE",
"682 1296 LINE SMOOTH"
);
}
);
width = 1460;
}
);
rightKerningGroup = _O_right;
unicode = 0044;
userData = {
com.typemytype.robofont.layerData = {
};
};
},
{
glyphname = E;
lastChange = "2013-12-10 07:01:58 -0800";
layers = (
{
anchors = (
{
name = ogonek;
position = "{825, 0}";
},
{
name = top;
position = "{670, 1464}";
}
);
layerId = "E322F6D1-BA90-436B-BB35-51D9BD3EA9D1";
name = Regular;
paths = (
{
closed = 1;
nodes = (
"152 1464 LINE",
"152 0 LINE",
"1132 0 LINE",
"1132 112 LINE",
"298 112 LINE",
"298 723 LINE",
"1014 723 LINE",
"1014 838 LINE",
"298 838 LINE",
"298 1352 LINE",
"1121 1352 LINE",
"1121 1464 LINE"
);
}
);
width = 1206;
},
{
anchors = (
{
name = top;
position = "{687, 1464}";
}
);
layerId = "5D328E58-2F78-4B3D-8E27-494E56F2C351";
name = Bold;
paths = (
{
closed = 1;
nodes = (
"136 1464 LINE",
"136 0 LINE",
"1160 0 LINE",
"1160 164 LINE",
"356 164 LINE",
"356 694 LINE",
"1047 694 LINE",
"1047 862 LINE",
"356 862 LINE",
"356 1300 LINE",
"1149 1300 LINE",
"1149 1464 LINE"
);
}
);
width = 1230;
}
);
unicode = 0045;
userData = {
anchors = (
);
b = {
};
com.typemytype.robofont.layerData = {
};
components = (
);
contours = {
};
lib = {
};
name = E;
points = {
};
segmentType = line;
unicodes = (
);
width = 1202;
x = 1128;
y = 112;
};
},
{
glyphname = F;
lastChange = "2013-12-10 07:01:58 -0800";
layers = (
{
layerId = "E322F6D1-BA90-436B-BB35-51D9BD3EA9D1";
name = Regular;
paths = (
{
closed = 1;
nodes = (
"152 1464 LINE",
"152 0 LINE",
"298 0 LINE",
"298 716 LINE",
"1013 716 LINE",
"1013 830 LINE",
"298 830 LINE",
"298 1352 LINE",
"1121 1352 LINE",
"1121 1464 LINE"
);
}
);
width = 1182.67;
},
{
layerId = "5D328E58-2F78-4B3D-8E27-494E56F2C351";
name = Bold;
paths = (
{
closed = 1;
nodes = (
"136 1464 LINE",
"136 0 LINE",
"356 0 LINE",
"356 682 LINE",
"1050 682 LINE",
"1050 850 LINE",
"356 850 LINE",
"356 1300 LINE",
"1162 1300 LINE",
"1162 1464 LINE"
);
}
);
width = 1205;
}
);
unicode = 0046;
userData = {
anchors = (
);
b = {
};
com.typemytype.robofont.layerData = {
};
components = (
);
contours = {
};
lib = {
};
name = F;
points = {
};
segmentType = line;
unicodes = (
);
width = 1178.66666667;
x = 1117;
y = 1464;
};
},
{
glyphname = G;
lastChange = "2013-12-10 14:55:07 -0800";
layers = (
{
anchors = (
{
name = top;
position = "{747, 1464}";
}
);
layerId = "E322F6D1-BA90-436B-BB35-51D9BD3EA9D1";
name = Regular;
paths = (
{
closed = 1;
nodes = (
"370 1491 OFFCURVE",
"118 1271 OFFCURVE",
"118 722 CURVE SMOOTH",
"118 168 OFFCURVE",
"385 -25 OFFCURVE",
"726 -25 CURVE SMOOTH",
"910 -25 OFFCURVE",
"1059 58 OFFCURVE",
"1123 184 CURVE",
"1151 0 LINE",
"1248 0 LINE",
"1248 0 OFFCURVE",
"1258 428 OFFCURVE",
"1258 581 CURVE SMOOTH",
"1258 789 LINE",
"742 789 LINE",
"742 664 LINE",
"1114 664 LINE",
"1114 444 LINE SMOOTH",
"1114 203 OFFCURVE",
"910 93 OFFCURVE",
"744 93 CURVE SMOOTH",
"406 93 OFFCURVE",
"271 319 OFFCURVE",
"271 721 CURVE SMOOTH",
"271 1149 OFFCURVE",
"410 1374 OFFCURVE",
"744 1374 CURVE SMOOTH",
"925 1374 OFFCURVE",
"1056 1276 OFFCURVE",
"1123 1095 CURVE",
"1249 1139 LINE",
"1163 1374 OFFCURVE",
"989 1491 OFFCURVE",
"745 1491 CURVE SMOOTH"
);
}
);
width = 1393;
},
{
anchors = (
{
name = top;
position = "{763, 1464}";
}
);
layerId = "5D328E58-2F78-4B3D-8E27-494E56F2C351";
name = Bold;
paths = (
{
closed = 1;
nodes = (
"359 1488 OFFCURVE",
"114 1288 OFFCURVE",
"114 722 CURVE SMOOTH",
"114 164 OFFCURVE",
"392 -24 OFFCURVE",
"746 -24 CURVE SMOOTH",
"930 -24 OFFCURVE",
"1049 46 OFFCURVE",
"1111 138 CURVE",
"1155 0 LINE",
"1297 0 LINE",
"1297 0 OFFCURVE",
"1307 428 OFFCURVE",
"1307 581 CURVE SMOOTH",
"1307 824 LINE",
"783 824 LINE",
"783 636 LINE",
"1090 636 LINE",
"1090 452 LINE SMOOTH",
"1090 245 OFFCURVE",
"930 150 OFFCURVE",
"764 150 CURVE SMOOTH",
"485 150 OFFCURVE",
"346 316 OFFCURVE",
"346 721 CURVE SMOOTH",
"346 1149 OFFCURVE",
"449 1313 OFFCURVE",
"752 1313 CURVE SMOOTH",
"939 1313 OFFCURVE",
"1051 1227 OFFCURVE",
"1119 1043 CURVE",
"1310 1107 LINE",
"1229 1347 OFFCURVE",
"1062 1488 OFFCURVE",
"758 1488 CURVE SMOOTH"
);
}
);
width = 1428;
}
);
leftKerningGroup = _O_left;
unicode = 0047;
userData = {
com.typemytype.robofont.layerData = {
};
};
},
{
glyphname = H;
lastChange = "2013-12-10 07:01:58 -0800";
layers = (
{
anchors = (
{
name = top;
position = "{734, 1464}";
}
);
layerId = "E322F6D1-BA90-436B-BB35-51D9BD3EA9D1";
name = Regular;
paths = (
{
closed = 1;
nodes = (
"1168 1464 LINE",
"1168 836 LINE",
"298 836 LINE",
"298 1464 LINE",
"152 1464 LINE",
"152 0 LINE",
"298 0 LINE",
"298 720 LINE",
"1168 720 LINE",
"1168 0 LINE",
"1314 0 LINE",
"1314 1464 LINE"
);
}
);
width = 1466;
},
{
anchors = (
{
name = top;
position = "{777, 1464}";
}
);
layerId = "5D328E58-2F78-4B3D-8E27-494E56F2C351";
name = Bold;
paths = (
{
closed = 1;
nodes = (
"1152 1464 LINE",
"1152 844 LINE",
"356 844 LINE",
"356 1464 LINE",
"136 1464 LINE",
"136 0 LINE",
"356 0 LINE",
"356 669 LINE",
"1152 669 LINE",
"1152 0 LINE",
"1372 0 LINE",
"1372 1464 LINE"
);
}
);
width = 1508;
}
);
unicode = 0048;
userData = {
anchors = (
);
b = {
};
com.typemytype.robofont.layerData = {
};
components = (
);
contours = {
};
lib = {
};
name = H;
points = {
};
segmentType = line;
unicodes = (
);
width = 1457;
x = 294;
y = 836;
};
},
{
glyphname = I;
lastChange = "2013-12-10 07:01:58 -0800";
layers = (
{
anchors = (
{
name = ogonek;
position = "{251, 0}";
},
{
name = top;
position = "{237, 1464}";
}
);
layerId = "E322F6D1-BA90-436B-BB35-51D9BD3EA9D1";
name = Regular;
paths = (
{
closed = 1;
nodes = (
"163 1464 LINE",
"163 0 LINE",
"309 0 LINE",
"309 1464 LINE"
);
}
);
width = 464;
},
{
anchors = (
{
name = top;
position = "{246, 1464}";
}
);
layerId = "5D328E58-2F78-4B3D-8E27-494E56F2C351";
name = Bold;
paths = (
{
closed = 1;
nodes = (
"125 1464 LINE",
"125 0 LINE",
"345 0 LINE",
"345 1464 LINE"
);
}
);
width = 464;
}
);
unicode = 0049;
},
{
glyphname = J;
lastChange = "2013-12-10 07:01:58 -0800";
layers = (
{
anchors = (
{
name = top;
position = "{749, 1464}";
}
);
layerId = "E322F6D1-BA90-436B-BB35-51D9BD3EA9D1";
name = Regular;
paths = (
{
closed = 1;
nodes = (
"673 1464 LINE",
"673 541 LINE SMOOTH",
"673 306 OFFCURVE",
"657 95 OFFCURVE",
"417 93 CURVE SMOOTH",
"255 93 OFFCURVE",
"189 198 OFFCURVE",
"151 369 CURVE",
"21 334 LINE",
"64 117 OFFCURVE",
"179 -25 OFFCURVE",
"405 -25 CURVE SMOOTH",
"718 -25 OFFCURVE",
"818 166 OFFCURVE",
"818 544 CURVE SMOOTH",
"818 1464 LINE"
);
}
);
width = 954;
},
{
anchors = (
{
name = top;
position = "{816, 1464}";
}
);
layerId = "5D328E58-2F78-4B3D-8E27-494E56F2C351";
name = Bold;
paths = (
{
closed = 1;
nodes = (
"705 1464 LINE",
"705 541 LINE SMOOTH",
"705 275 OFFCURVE",
"646 158 OFFCURVE",
"463 158 CURVE SMOOTH",
"366 158 OFFCURVE",
"272 216 OFFCURVE",
"234 387 CURVE",
"35 332 LINE",
"78 115 OFFCURVE",
"227 -20 OFFCURVE",
"457 -20 CURVE SMOOTH",
"774 -20 OFFCURVE",
"925 166 OFFCURVE",
"925 544 CURVE SMOOTH",
"925 1464 LINE"
);
}
);
width = 1061;
}
);
unicode = 004A;
},
{
glyphname = K;
lastChange = "2013-12-10 14:49:33 -0800";
layers = (
{
anchors = (
{
name = bot;
position = "{660, 0}";
},
{
name = top;
position = "{617, 1464}";
}
);
layerId = "E322F6D1-BA90-436B-BB35-51D9BD3EA9D1";
name = Regular;
paths = (
{
closed = 1;
nodes = (
"1007 1464 LINE",
"298 724 LINE",
"298 1464 LINE",
"152 1464 LINE",
"152 0 LINE",
"298 0 LINE",
"298 550 LINE",
"554 814 LINE",
"1081 0 LINE",
"1248 0 LINE",
"653 916 LINE",
"1184 1464 LINE"
);
}
);
width = 1256;
},
{
anchors = (
{
name = top;
position = "{677, 1464}";
}
);
layerId = "5D328E58-2F78-4B3D-8E27-494E56F2C351";
name = Bold;
paths = (
{
closed = 1;
nodes = (
"990 1464 LINE",
"356 798 LINE",
"356 1464 LINE",
"136 1464 LINE",
"136 0 LINE",
"356 0 LINE",
"356 538 LINE",
"577 766 LINE",
"1059 0 LINE",
"1308 0 LINE",
"727 921 LINE",
"1254 1464 LINE"
);
}
);
width = 1300;
}
);
rightKerningGroup = _K_right;
unicode = 004B;
userData = {
anchors = (
);
b = {
};
com.typemytype.robofont.layerData = {
};
components = (
);
contours = {
};
lib = {
};
name = K;
points = {
};
segmentType = line;
unicodes = (
);
width = 1252;
x = 1003;
y = 1464;
};
},
{
glyphname = L;
lastChange = "2013-12-10 07:01:58 -0800";
layers = (
{
anchors = (
{
name = top;
position = "{621, 1474}";
}
);
layerId = "E322F6D1-BA90-436B-BB35-51D9BD3EA9D1";
name = Regular;
paths = (
{
closed = 1;
nodes = (
"152 1464 LINE",
"152 0 LINE",
"1045 0 LINE",
"1045 112 LINE",
"298 112 LINE",
"298 1464 LINE"
);
}
);
width = 1024;
},
{
anchors = (
{
name = top;
position = "{691, 1474}";
}
);
layerId = "5D328E58-2F78-4B3D-8E27-494E56F2C351";
name = Bold;
paths = (
{
closed = 1;
nodes = (
"136 1464 LINE",
"136 0 LINE",
"1083 0 LINE",
"1083 164 LINE",
"356 164 LINE",
"356 1464 LINE"
);
}
);
width = 1077;
}
);
unicode = 004C;
userData = {
anchors = (
);
b = {
};
com.typemytype.robofont.layerData = {
};
components = (
);
contours = {
};
lib = {
};
name = L;
points = {
};
segmentType = line;
unicodes = (
);
width = 1020;
x = 1041;
y = 112;
};
},
{
glyphname = M;
lastChange = "2013-12-10 07:01:58 -0800";
layers = (
{
layerId = "E322F6D1-BA90-436B-BB35-51D9BD3EA9D1";
name = Regular;
paths = (
{
closed = 1;
nodes = (
"1310 1464 LINE",
"830 405 LINE",
"363 1464 LINE",
"152 1464 LINE",
"152 0 LINE",
"291 0 LINE",
"291 1282 LINE",
"757 250 LINE",
"892 250 LINE",
"1367 1277 LINE",
"1367 0 LINE",
"1501 0 LINE",
"1501 1464 LINE"
);
}
);
width = 1653;
},
{
anchors = (
{
name = top;
position = "{872, 1464}";
}
);
layerId = "5D328E58-2F78-4B3D-8E27-494E56F2C351";
name = Bold;
paths = (
{
closed = 1;
nodes = (
"1251 1464 LINE",
"843 485 LINE",
"455 1464 LINE",
"136 1464 LINE",
"136 0 LINE",
"345 0 LINE",
"345 1192 LINE",
"734 250 LINE",
"935 250 LINE",
"1337 1182 LINE",
"1337 0 LINE",
"1539 0 LINE",
"1539 1464 LINE"
);
}
);
width = 1675;
}
);
unicode = 004D;
userData = {
com.typemytype.robofont.layerData = {
};
};
},
{
glyphname = N;
lastChange = "2013-12-10 07:01:58 -0800";
layers = (
{
anchors = (
{
name = top;
position = "{789, 1474}";
}
);
layerId = "E322F6D1-BA90-436B-BB35-51D9BD3EA9D1";
name = Regular;
paths = (
{
closed = 1;
nodes = (
"1218 1464 LINE",
"1218 221 LINE",
"315 1464 LINE",
"152 1464 LINE",
"152 0 LINE",
"285 0 LINE",
"285 1290 LINE",
"1215 0 LINE",
"1347 0 LINE",
"1347 1464 LINE"
);
}
);
width = 1499;
},
{
anchors = (
{
name = top;
position = "{767, 1464}";
}
);
layerId = "5D328E58-2F78-4B3D-8E27-494E56F2C351";
name = Bold;
paths = (
{
closed = 1;
nodes = (
"1170 1464 LINE",
"1170 335 LINE",
"377 1464 LINE",
"136 1464 LINE",
"136 0 LINE",
"333 0 LINE",
"333 1204 LINE",
"1169 0 LINE",
"1360 0 LINE",
"1360 1464 LINE"
);
}
);
width = 1496;
}
);
unicode = 004E;
userData = {
com.typemytype.robofont.layerData = {
};
};
},
{
glyphname = O;
lastChange = "2013-12-10 14:53:45 -0800";
layers = (
{
anchors = (
{
name = ogonek;
position = "{785, 0}";
},
{
name = top;
position = "{747, 1464}";
}
);
layerId = "E322F6D1-BA90-436B-BB35-51D9BD3EA9D1";
name = Regular;
paths = (
{
closed = 1;
nodes = (
"348 1488 OFFCURVE",
"118 1282 OFFCURVE",
"118 740 CURVE SMOOTH",
"118 186 OFFCURVE",
"343 -24 OFFCURVE",
"726 -24 CURVE SMOOTH",
"1117 -24 OFFCURVE",
"1339 193 OFFCURVE",
"1339 741 CURVE SMOOTH",
"1339 1281 OFFCURVE",
"1107 1488 OFFCURVE",
"727 1488 CURVE SMOOTH"
);
},
{
closed = 1;
nodes = (
"1081 1372 OFFCURVE",
"1185 1131 OFFCURVE",
"1185 740 CURVE SMOOTH",
"1185 298 OFFCURVE",
"1068 92 OFFCURVE",
"728 92 CURVE SMOOTH",
"388 92 OFFCURVE",
"272 302 OFFCURVE",
"272 741 CURVE SMOOTH",
"272 1131 OFFCURVE",
"374 1372 OFFCURVE",
"727 1372 CURVE SMOOTH"
);
}
);
width = 1457;
},
{
anchors = (
{
name = top;
position = "{762, 1464}";
}
);
layerId = "5D328E58-2F78-4B3D-8E27-494E56F2C351";
name = Bold;
paths = (
{
closed = 1;
nodes = (
"374 1488 OFFCURVE",
"114 1292 OFFCURVE",
"114 740 CURVE SMOOTH",
"114 176 OFFCURVE",
"369 -24 OFFCURVE",
"762 -24 CURVE SMOOTH",
"1163 -24 OFFCURVE",
"1415 183 OFFCURVE",
"1415 741 CURVE SMOOTH",
"1415 1291 OFFCURVE",
"1153 1488 OFFCURVE",
"763 1488 CURVE SMOOTH"
);
},
{
closed = 1;
nodes = (
"1094 1313 OFFCURVE",
"1183 1095 OFFCURVE",
"1183 739 CURVE SMOOTH",
"1183 334 OFFCURVE",
"1084 150 OFFCURVE",
"763 150 CURVE SMOOTH",
"448 150 OFFCURVE",
"346 339 OFFCURVE",
"346 740 CURVE SMOOTH",
"346 1094 OFFCURVE",
"433 1313 OFFCURVE",
"763 1313 CURVE SMOOTH"
);
}
);
width = 1529;
}
);
leftKerningGroup = _O_left;
rightKerningGroup = _O_right;
unicode = 004F;
userData = {
angle = 90;
com.typemytype.robofont.guides = {
};
com.typemytype.robofont.layerData = {
};
magnetic = 5;
x = 723;
y = 1471;
};
},
{
glyphname = P;
lastChange = "2013-12-10 07:01:58 -0800";
layers = (
{
layerId = "E322F6D1-BA90-436B-BB35-51D9BD3EA9D1";
name = Regular;
paths = (
{
closed = 1;
nodes = (
"152 1464 LINE",
"152 0 LINE",
"298 0 LINE",
"298 635 LINE",
"479 635 LINE SMOOTH",
"991 635 OFFCURVE",
"1190 724 OFFCURVE",
"1190 1063 CURVE SMOOTH",
"1190 1360 OFFCURVE",
"1014 1464 OFFCURVE",
"538 1464 CURVE SMOOTH"
);
},
{
closed = 1;
nodes = (
"898 1352 OFFCURVE",
"1042 1306 OFFCURVE",
"1042 1055 CURVE SMOOTH",
"1042 807 OFFCURVE",
"898 749 OFFCURVE",
"535 748 CURVE SMOOTH",
"298 748 LINE",
"298 1352 LINE",
"515 1352 LINE SMOOTH"
);
}
);
width = 1252;
},
{
anchors = (
{
name = top;
position = "{617, 1464}";
}
);
layerId = "5D328E58-2F78-4B3D-8E27-494E56F2C351";
name = Bold;
paths = (
{
closed = 1;
nodes = (
"136 1464 LINE",
"136 0 LINE",
"356 0 LINE",
"356 625 LINE",
"541 625 LINE SMOOTH",
"1053 625 OFFCURVE",
"1241 724 OFFCURVE",
"1241 1063 CURVE SMOOTH",
"1241 1360 OFFCURVE",
"1046 1464 OFFCURVE",
"570 1464 CURVE SMOOTH"
);
},
{
closed = 1;
nodes = (
"856 1298 OFFCURVE",
"1017 1283 OFFCURVE",
"1017 1055 CURVE SMOOTH",
"1017 830 OFFCURVE",
"892 794 OFFCURVE",
"577 794 CURVE SMOOTH",
"356 794 LINE",
"356 1298 LINE",
"557 1298 LINE SMOOTH"
);
}
);
width = 1295;
}
);
unicode = 0050;
userData = {
com.typemytype.robofont.layerData = {
};
};
},
{
glyphname = Q;
lastChange = "2013-12-10 14:54:38 -0800";
layers = (
{
anchors = (
{
name = ogonek;
position = "{785, 0}";
},
{
name = top;
position = "{747, 1464}";
}
);
layerId = "E322F6D1-BA90-436B-BB35-51D9BD3EA9D1";
name = Regular;
paths = (
{
closed = 1;
nodes = (
"348 1488 OFFCURVE",
"118 1282 OFFCURVE",
"118 740 CURVE SMOOTH",
"118 186 OFFCURVE",
"343 -24 OFFCURVE",
"726 -24 CURVE SMOOTH",
"834 -24 OFFCURVE",
"929 -8 OFFCURVE",
"1010 28 CURVE",
"1266 -345 LINE",
"1374 -263 LINE",
"1114 90 LINE",
"1260 205 OFFCURVE",
"1339 414 OFFCURVE",
"1339 741 CURVE SMOOTH",
"1339 1281 OFFCURVE",
"1107 1488 OFFCURVE",
"727 1488 CURVE SMOOTH"
);
},
{
closed = 1;
nodes = (
"1081 1372 OFFCURVE",
"1185 1131 OFFCURVE",
"1185 740 CURVE SMOOTH",
"1185 298 OFFCURVE",
"1068 92 OFFCURVE",
"728 92 CURVE SMOOTH",
"388 92 OFFCURVE",
"272 302 OFFCURVE",
"272 741 CURVE SMOOTH",
"272 1131 OFFCURVE",
"374 1372 OFFCURVE",
"727 1372 CURVE SMOOTH"
);
}
);
width = 1462;
},
{
anchors = (
{
name = top;
position = "{762, 1464}";
}
);
layerId = "5D328E58-2F78-4B3D-8E27-494E56F2C351";
name = Bold;
paths = (
{
closed = 1;
nodes = (
"374 1488 OFFCURVE",
"114 1292 OFFCURVE",
"114 740 CURVE SMOOTH",
"114 176 OFFCURVE",
"369 -24 OFFCURVE",
"762 -24 CURVE SMOOTH",
"861 -24 OFFCURVE",
"952 -11 OFFCURVE",
"1031 16 CURVE",
"1290 -364 LINE",
"1453 -243 LINE",
"1190 104 LINE",
"1334 221 OFFCURVE",
"1415 424 OFFCURVE",
"1415 741 CURVE SMOOTH",
"1415 1291 OFFCURVE",
"1153 1488 OFFCURVE",
"763 1488 CURVE SMOOTH"
);
},
{
closed = 1;
nodes = (
"1094 1313 OFFCURVE",
"1183 1095 OFFCURVE",
"1183 739 CURVE SMOOTH",
"1183 334 OFFCURVE",
"1084 150 OFFCURVE",
"763 150 CURVE SMOOTH",
"448 150 OFFCURVE",
"346 339 OFFCURVE",
"346 740 CURVE SMOOTH",
"346 1094 OFFCURVE",
"433 1313 OFFCURVE",
"763 1313 CURVE SMOOTH"
);
}
);
width = 1546;
}
);
leftKerningGroup = _O_left;
unicode = 0051;
userData = {
anchors = (
);
b = {
};
com.typemytype.robofont.layerData = {
};
components = (
);
contours = {
};
lib = {
};
name = Q;
points = {
};
segmentType = curve;
unicodes = (
);
width = 1434;
x = 1076;
y = 1374;
};
},
{
glyphname = R;
lastChange = "2013-12-10 14:47:45 -0800";
layers = (
{
anchors = (
{
name = top;
position = "{637, 1464}";
}
);
layerId = "E322F6D1-BA90-436B-BB35-51D9BD3EA9D1";
name = Regular;
paths = (
{
closed = 1;
nodes = (
"152 1464 LINE",
"152 0 LINE",
"298 0 LINE",
"298 675 LINE",
"754 675 LINE",
"1086 0 LINE",
"1242 0 LINE",
"902 695 LINE",
"1111 733 OFFCURVE",
"1218 869 OFFCURVE",
"1218 1081 CURVE SMOOTH",
"1218 1346 OFFCURVE",
"1068 1464 OFFCURVE",
"681 1464 CURVE SMOOTH"
);
},
{
closed = 1;
nodes = (
"873 1352 OFFCURVE",
"1069 1336 OFFCURVE",
"1069 1079 CURVE SMOOTH",
"1069 825 OFFCURVE",
"892 786 OFFCURVE",
"678 786 CURVE SMOOTH",
"298 786 LINE",
"298 1352 LINE",
"672 1352 LINE SMOOTH"
);
}
);
width = 1300;
},
{
anchors = (
{
name = top;
position = "{647, 1464}";
}
);
layerId = "5D328E58-2F78-4B3D-8E27-494E56F2C351";
name = Bold;
paths = (
{
closed = 1;
nodes = (
"136 1464 LINE",
"136 0 LINE",
"356 0 LINE",
"356 662 LINE",
"722 662 LINE",
"1054 0 LINE",
"1291 0 LINE",
"942 692 LINE",
"1138 732 OFFCURVE",
"1256 876 OFFCURVE",
"1256 1075 CURVE SMOOTH",
"1256 1337 OFFCURVE",
"1100 1464 OFFCURVE",
"713 1464 CURVE SMOOTH"
);
},
{
closed = 1;
nodes = (
"905 1298 OFFCURVE",
"1032 1261 OFFCURVE",
"1032 1073 CURVE SMOOTH",
"1032 874 OFFCURVE",
"891 828 OFFCURVE",
"677 828 CURVE SMOOTH",
"356 828 LINE",
"356 1298 LINE",
"704 1298 LINE SMOOTH"
);
}
);
width = 1340;
}
);
unicode = 0052;
userData = {
com.typemytype.robofont.layerData = {
};
};
},
{
glyphname = S;
lastChange = "2013-12-10 14:58:50 -0800";
layers = (
{
anchors = (
{
name = _bot;
position = "{616, 0}";
},
{
name = top;
position = "{632, 1464}";
}
);
layerId = "E322F6D1-BA90-436B-BB35-51D9BD3EA9D1";
name = Regular;
paths = (
{
closed = 1;
nodes = (
"369 1491 OFFCURVE",
"128 1378 OFFCURVE",
"128 1125 CURVE SMOOTH",
"128 880 OFFCURVE",
"325 806 OFFCURVE",
"562 731 CURVE SMOOTH",
"879 631 OFFCURVE",
"1002 584 OFFCURVE",
"1002 388 CURVE SMOOTH",
"1002 161 OFFCURVE",
"803 93 OFFCURVE",
"627 93 CURVE SMOOTH",
"377 93 OFFCURVE",
"226 200 OFFCURVE",
"165 426 CURVE",
"42 373 LINE",
"98 69 OFFCURVE",
"387 -25 OFFCURVE",
"612 -25 CURVE SMOOTH",
"938 -25 OFFCURVE",
"1155 126 OFFCURVE",
"1155 393 CURVE SMOOTH",
"1155 646 OFFCURVE",
"998 735 OFFCURVE",
"710 829 CURVE SMOOTH",
"489 901 OFFCURVE",
"281 934 OFFCURVE",
"281 1137 CURVE SMOOTH",
"281 1308 OFFCURVE",
"443 1374 OFFCURVE",
"636 1374 CURVE SMOOTH",
"794 1374 OFFCURVE",
"936 1303 OFFCURVE",
"1016 1160 CURVE",
"1124 1240 LINE",
"1006 1420 OFFCURVE",
"847 1491 OFFCURVE",
"615 1491 CURVE SMOOTH"
);
}
);
width = 1213;
},
{
anchors = (
{
name = _bot;
position = "{626, 0}";
},
{
name = top;
position = "{622, 1464}";
}
);
layerId = "5D328E58-2F78-4B3D-8E27-494E56F2C351";
name = Bold;
paths = (
{
closed = 1;
nodes = (
"283 1491 OFFCURVE",
"106 1366 OFFCURVE",
"106 1125 CURVE SMOOTH",
"106 852 OFFCURVE",
"296 788 OFFCURVE",
"572 699 CURVE SMOOTH",
"860 606 OFFCURVE",
"938 571 OFFCURVE",
"939 386 CURVE SMOOTH",
"940 232 OFFCURVE",
"837 152 OFFCURVE",
"639 152 CURVE SMOOTH",
"410 152 OFFCURVE",
"306 230 OFFCURVE",
"235 454 CURVE",
"50 373 LINE",
"98 111 OFFCURVE",
"294 -25 OFFCURVE",
"620 -25 CURVE SMOOTH",
"980 -25 OFFCURVE",
"1168 118 OFFCURVE",
"1168 393 CURVE SMOOTH",
"1168 676 OFFCURVE",
"1002 778 OFFCURVE",
"732 866 CURVE SMOOTH",
"457 956 OFFCURVE",
"335 966 OFFCURVE",
"335 1139 CURVE SMOOTH",
"335 1255 OFFCURVE",
"442 1316 OFFCURVE",
"648 1316 CURVE SMOOTH",
"793 1316 OFFCURVE",
"885 1261 OFFCURVE",
"970 1123 CURVE",
"1122 1240 LINE",
"996 1426 OFFCURVE",
"868 1491 OFFCURVE",
"623 1491 CURVE SMOOTH"
);
}
);
width = 1235;
}
);
unicode = 0053;
userData = {
anchors = (
);
b = {
};
com.typemytype.robofont.layerData = {
};
components = (
);
contours = {
};
lib = {
};
name = S;
points = {
};
segmentType = curve;
unicodes = (
);
width = 1216;
x = 372;
y = 1491;
};
},
{
glyphname = T;
lastChange = "2013-12-10 15:00:32 -0800";
layers = (
{
anchors = (
{
name = top;
position = "{572, 1464}";
}
);
layerId = "E322F6D1-BA90-436B-BB35-51D9BD3EA9D1";
name = Regular;
paths = (
{
closed = 1;
nodes = (
"9 1464 LINE",
"9 1352 LINE",
"493 1352 LINE",
"493 0 LINE",
"639 0 LINE",
"639 1352 LINE",
"1110 1352 LINE",
"1110 1464 LINE"
);
}
);
width = 1119;
},
{
anchors = (
{
name = top;
position = "{585, 1464}";
}
);
layerId = "5D328E58-2F78-4B3D-8E27-494E56F2C351";
name = Bold;
paths = (
{
closed = 1;
nodes = (
"9 1464 LINE",
"9 1300 LINE",
"462 1300 LINE",
"462 0 LINE",
"682 0 LINE",
"682 1300 LINE",
"1110 1300 LINE",
"1110 1464 LINE"
);
}
);
width = 1119;
}
);
leftKerningGroup = T_left;
rightKerningGroup = T_right;
unicode = 0054;
userData = {
anchors = (
);
b = {
};
com.typemytype.robofont.layerData = {
};
components = (
);
contours = {
};
lib = {
};
name = T;
points = {
};
segmentType = line;
unicodes = (
);
width = 1119;
x = 483;
y = 1352;
};
},
{
glyphname = U;
lastChange = "2013-12-10 16:11:04 -0800";
layers = (
{
anchors = (
{
name = ogonek;
position = "{805, 0}";
},
{
name = top;
position = "{709, 1464}";
}
);
layerId = "E322F6D1-BA90-436B-BB35-51D9BD3EA9D1";
name = Regular;
paths = (
{
closed = 1;
nodes = (
"1077 1464 LINE",
"1077 574 LINE SMOOTH",
"1077 279 OFFCURVE",
"1002 92 OFFCURVE",
"676 92 CURVE SMOOTH",
"348 92 OFFCURVE",
"269 273 OFFCURVE",
"269 574 CURVE SMOOTH",
"269 1464 LINE",
"123 1464 LINE",
"123 570 LINE SMOOTH",
"123 149 OFFCURVE",
"308 -24 OFFCURVE",
"670 -24 CURVE SMOOTH",
"1046 -24 OFFCURVE",
"1223 157 OFFCURVE",
"1223 577 CURVE SMOOTH",
"1223 1464 LINE"
);
}
);
width = 1346;
},
{
anchors = (
{
name = ogonek;
position = "{803, 0}";
},
{
name = top;
position = "{701, 1464}";
}
);
layerId = "5D328E58-2F78-4B3D-8E27-494E56F2C351";
name = Bold;
paths = (
{
closed = 1;
nodes = (
"1056 1464 LINE",
"1056 598 LINE SMOOTH",
"1056 303 OFFCURVE",
"988 150 OFFCURVE",
"697 150 CURVE SMOOTH",
"404 150 OFFCURVE",
"336 308 OFFCURVE",
"336 598 CURVE SMOOTH",
"336 1464 LINE",
"116 1464 LINE",
"116 574 LINE SMOOTH",
"116 152 OFFCURVE",
"319 -24 OFFCURVE",
"691 -24 CURVE SMOOTH",
"1077 -24 OFFCURVE",
"1276 161 OFFCURVE",
"1276 581 CURVE SMOOTH",
"1276 1464 LINE"
);
}
);
width = 1392;
}
);
unicode = 0055;
userData = {
com.typemytype.robofont.layerData = {
};
};
},
{
glyphname = V;
lastChange = "2013-12-10 14:40:34 -0800";
layers = (
{
layerId = "E322F6D1-BA90-436B-BB35-51D9BD3EA9D1";
name = Regular;
paths = (
{
closed = 1;
nodes = (
"1018 1464 LINE",
"586 193 LINE",
"143 1464 LINE",
"-8 1464 LINE",
"513 0 LINE",
"651 0 LINE",
"1162 1464 LINE"
);
}
);
width = 1164;
},
{
layerId = "5D328E58-2F78-4B3D-8E27-494E56F2C351";
name = Bold;
paths = (
{
closed = 1;
nodes = (
"960 1464 LINE",
"589 287 LINE",
"215 1464 LINE",
"-13 1464 LINE",
"477 0 LINE",
"688 0 LINE",
"1177 1464 LINE"
);
}
);
width = 1164;
}
);
leftKerningGroup = _W_left;
rightKerningGroup = _W_right;
unicode = 0056;
userData = {
com.typemytype.robofont.layerData = {
};
};
},
{
glyphname = W;
lastChange = "2013-12-10 14:46:24 -0800";
layers = (
{
anchors = (
{
name = top;
position = "{927, 1464}";
}
);
layerId = "E322F6D1-BA90-436B-BB35-51D9BD3EA9D1";
name = Regular;
paths = (
{
closed = 1;
nodes = (
"1654 1464 LINE",
"1324 217 LINE",
"977 1464 LINE",
"873 1464 LINE",
"498 234 LINE",
"172 1464 LINE",
"20 1464 LINE",
"437 0 LINE",
"548 0 LINE",
"915 1187 LINE",
"1252 0 LINE",
"1378 0 LINE",
"1793 1464 LINE"
);
}
);
width = 1813;
},
{
anchors = (
{
name = top;
position = "{956, 1464}";
}
);
layerId = "5D328E58-2F78-4B3D-8E27-494E56F2C351";
name = Bold;
paths = (
{
closed = 1;
nodes = (
"1660 1464 LINE",
"1346 325 LINE",
"1030 1464 LINE",
"876 1464 LINE",
"511 351 LINE",
"229 1464 LINE",
"0 1464 LINE",
"417 0 LINE",
"586 0 LINE",
"938 1041 LINE",
"1238 0 LINE",
"1427 0 LINE",
"1869 1464 LINE"
);
}
);
width = 1869;
}
);
leftKerningGroup = _W_left;
rightKerningGroup = _W_right;
unicode = 0057;
userData = {
anchors = (
);
b = {
};
com.typemytype.robofont.layerData = {
};
components = (
);
contours = (
);
lib = {
};
name = W;
unicodes = (
);
width = 1797;
};
},
{
glyphname = X;
lastChange = "2013-12-10 14:44:34 -0800";
layers = (
{
layerId = "E322F6D1-BA90-436B-BB35-51D9BD3EA9D1";
name = Regular;
paths = (
{
closed = 1;
nodes = (
"1029 1464 LINE",
"625 887 LINE",
"226 1464 LINE",
"51 1464 LINE",
"538 761 LINE",
"6 0 LINE",
"173 0 LINE",
"620 643 LINE",
"1066 0 LINE",
"1239 0 LINE",
"707 769 LINE",
"1195 1464 LINE"
);
}
);
width = 1245;
},
{
layerId = "5D328E58-2F78-4B3D-8E27-494E56F2C351";
name = Bold;
paths = (
{
closed = 1;
nodes = (
"1020 1464 LINE",
"657 944 LINE",
"297 1464 LINE",
"35 1464 LINE",
"526 756 LINE",
"-4 0 LINE",
"246 0 LINE",
"648 580 LINE",
"1050 0 LINE",
"1310 0 LINE",
"779 768 LINE",
"1269 1464 LINE"
);
}
);
width = 1306;
}
);
unicode = 0058;
userData = {
anchors = (
);
b = {
};
com.typemytype.robofont.layerData = {
};
components = (
);
contours = {
};
lib = {
};
name = X;
points = {
};
segmentType = line;
unicodes = (
);
width = 1245;
x = 1239;
y = 0;
};
},
{
glyphname = Y;
lastChange = "2013-12-10 16:05:50 -0800";
layers = (
{
anchors = (
{
name = top;
position = "{617, 1464}";
}
);
layerId = "E322F6D1-BA90-436B-BB35-51D9BD3EA9D1";
name = Regular;
paths = (
{
closed = 1;
nodes = (
"1009 1464 LINE",
"583 681 LINE",
"154 1464 LINE",
"-3 1464 LINE",
"509 549 LINE",
"509 0 LINE",
"654 0 LINE",
"654 548 LINE",
"1165 1464 LINE"
);
}
);
width = 1162;
},
{
anchors = (
{
name = top;
position = "{628, 1464}";
}
);
layerId = "5D328E58-2F78-4B3D-8E27-494E56F2C351";
name = Bold;
paths = (
{
closed = 1;
nodes = (
"983 1464 LINE",
"612 747 LINE",
"234 1464 LINE",
"-2 1464 LINE",
"501 549 LINE",
"501 0 LINE",
"719 0 LINE",
"719 548 LINE",
"1218 1464 LINE"
);
}
);
width = 1216;
}
);
leftKerningGroup = _Y_left;
unicode = 0059;
userData = {
com.typemytype.robofont.layerData = {
};
};
},
{
glyphname = Z;
lastChange = "2013-12-10 07:01:58 -0800";
layers = (
{
anchors = (
{
name = top;
position = "{617, 1464}";
}
);
layerId = "E322F6D1-BA90-436B-BB35-51D9BD3EA9D1";
name = Regular;
paths = (
{
closed = 1;
nodes = (
"130 1464 LINE",
"130 1354 LINE",
"946 1354 LINE",
"47 98 LINE",
"47 0 LINE",
"1134 0 LINE",
"1139 110 LINE",
"234 110 LINE",
"1132 1369 LINE",
"1132 1464 LINE"
);
}
);
width = 1176;
},
{
anchors = (
{
name = top;
position = "{641, 1464}";
}
);
layerId = "5D328E58-2F78-4B3D-8E27-494E56F2C351";
name = Bold;
paths = (
{
closed = 1;
nodes = (
"125 1464 LINE",
"125 1298 LINE",
"853 1298 LINE",
"42 148 LINE",
"42 0 LINE",
"1134 0 LINE",
"1141 165 LINE",
"322 165 LINE",
"1136 1325 LINE",
"1136 1464 LINE"
);
}
);
width = 1176;
}
);
unicode = 005A;
userData = {
com.typemytype.robofont.layerData = {
};
};
},
{
glyphname = AE;
lastChange = "2013-12-10 14:36:28 -0800";
layers = (
{
layerId = "E322F6D1-BA90-436B-BB35-51D9BD3EA9D1";
name = Regular;
paths = (
{
closed = 1;
nodes = (
"870 1464 LINE",
"-36 0 LINE",
"124 0 LINE",
"371 399 LINE",
"974 399 LINE",
"974 0 LINE",
"2015 0 LINE",
"2015 112 LINE",
"1118 112 LINE",
"1118 723 LINE",
"1842 723 LINE",
"1843 838 LINE",
"1118 838 LINE",
"1118 1352 LINE",
"2005 1352 LINE",
"2005 1464 LINE"
);
},
{
closed = 1;
nodes = (
"974 508 LINE",
"431 508 LINE",
"974 1406 LINE"
);
}
);
width = 2030;
},
{
layerId = "5D328E58-2F78-4B3D-8E27-494E56F2C351";
name = Bold;
paths = (
{
closed = 1;
nodes = (
"817 1464 LINE",
"-47 0 LINE",
"193 0 LINE",
"410 369 LINE",
"974 369 LINE",
"974 0 LINE",
"2015 0 LINE",
"2015 168 LINE",
"1192 168 LINE",
"1192 696 LINE",
"1842 696 LINE",
"1843 868 LINE",
"1192 868 LINE",
"1192 1296 LINE",
"2005 1296 LINE",
"2005 1464 LINE"
);
},
{
closed = 1;
nodes = (
"974 532 LINE",
"500 532 LINE",
"974 1378 LINE"
);
}
);
width = 2030;
}
);
leftKerningGroup = _A_left;
unicode = 00C6;
userData = {
anchors = (
);
b = {
};
com.typemytype.robofont.layerData = {
};
components = (
);
contours = (
);
lib = {
};
name = AE;
unicodes = (
);
width = 2030;
};
},
{
glyphname = Eth;
lastChange = "2013-12-10 16:03:18 -0800";
layers = (
{
components = (
{
name = D;
transform = "{1, 0, 0, 1, 0, 0}";
}
);
layerId = "E322F6D1-BA90-436B-BB35-51D9BD3EA9D1";
name = Regular;
paths = (
{
closed = 1;
nodes = (
"0 788 LINE",
"0 702 LINE",
"550 702 LINE",
"550 788 LINE"
);
}
);
width = 1444;
},
{
components = (
{
name = D;
transform = "{1, 0, 0, 1, 0, 0}";
}
);
layerId = "5D328E58-2F78-4B3D-8E27-494E56F2C351";
name = Bold;
paths = (
{
closed = 1;
nodes = (
"0 808 LINE",
"0 681 LINE",
"570 681 LINE",
"570 808 LINE"
);
}
);
width = 1444;
}
);
rightKerningGroup = _O_right;
unicode = 00D0;
userData = {
anchors = (
);
b = {
};
com.typemytype.robofont.layerData = {
};
components = (
);
contours = (
);
lib = {
};
name = Eth;
unicodes = (
);
width = 1444;
};
},
{
glyphname = Oslash;
lastChange = "2013-12-10 16:03:29 -0800";
layers = (
{
components = (
{
name = O;
transform = "{1, 0, 0, 1, 0, 0}";
}
);
layerId = "E322F6D1-BA90-436B-BB35-51D9BD3EA9D1";
name = Regular;
paths = (
{
closed = 1;
nodes = (
"235 -160 LINE",
"320 -204 LINE",
"1210 1614 LINE",
"1126 1658 LINE"
);
}
);
width = 1497;
},
{
components = (
{
name = O;
transform = "{1, 0, 0, 1, 0, 0}";
}
);
layerId = "5D328E58-2F78-4B3D-8E27-494E56F2C351";
name = Bold;
paths = (
{
closed = 1;
nodes = (
"235 -148 LINE",
"362 -214 LINE",
"1252 1604 LINE",
"1126 1670 LINE"
);
}
);
width = 1497;
}
);
leftKerningGroup = _O_left;
rightKerningGroup = _O_right;
unicode = 00D8;
userData = {
anchors = (
);
b = {
};
com.typemytype.robofont.layerData = {
};
components = (
);
contours = (
);
lib = {
};
name = Oslash;
unicodes = (
);
width = 1497;
};
},
{
glyphname = Thorn;
lastChange = "2013-12-10 07:01:58 -0800";
layers = (
{
layerId = "E322F6D1-BA90-436B-BB35-51D9BD3EA9D1";
name = Regular;
paths = (
{
closed = 1;
nodes = (
"140 1464 LINE",
"140 0 LINE",
"296 0 LINE",
"296 335 LINE",
"502 335 LINE SMOOTH",
"1007 335 OFFCURVE",
"1203 442 OFFCURVE",
"1203 773 CURVE SMOOTH",
"1203 1062 OFFCURVE",
"1030 1194 OFFCURVE",
"561 1194 CURVE SMOOTH",
"296 1194 LINE",
"296 1464 LINE"
);
},
{
closed = 1;
nodes = (
"914 1080 OFFCURVE",
"1055 1005 OFFCURVE",
"1055 765 CURVE SMOOTH",
"1055 526 OFFCURVE",
"914 450 OFFCURVE",
"558 449 CURVE SMOOTH",
"296 449 LINE",
"296 1080 LINE",
"538 1080 LINE SMOOTH"
);
}
);
width = 1261;
},
{
layerId = "5D328E58-2F78-4B3D-8E27-494E56F2C351";
name = Bold;
paths = (
{
closed = 1;
nodes = (
"140 1464 LINE",
"140 0 LINE",
"376 0 LINE",
"376 335 LINE",
"516 335 LINE SMOOTH",
"1044 335 OFFCURVE",
"1224 449 OFFCURVE",
"1224 780 CURVE SMOOTH",
"1224 1069 OFFCURVE",
"1052 1204 OFFCURVE",
"575 1204 CURVE SMOOTH",
"376 1204 LINE",
"376 1464 LINE"
);
},
{
closed = 1;
nodes = (
"868 1033 OFFCURVE",
"1001 986 OFFCURVE",
"1001 780 CURVE SMOOTH",
"1001 541 OFFCURVE",
"869 505 OFFCURVE",
"572 505 CURVE SMOOTH",
"376 505 LINE",
"376 1033 LINE",
"552 1033 LINE SMOOTH"
);
}
);
width = 1261;
}
);
unicode = 00DE;
userData = {
com.typemytype.robofont.layerData = {
};
};
},
{
glyphname = Dcroat;
lastChange = "2013-12-10 07:01:58 -0800";
layers = (
{
components = (
{
name = D;
transform = "{1, 0, 0, 1, 0, 0}";
}
);
layerId = "E322F6D1-BA90-436B-BB35-51D9BD3EA9D1";
name = Regular;
paths = (
{
closed = 1;
nodes = (
"0 778 LINE",
"0 685 LINE",
"570 685 LINE",
"570 778 LINE"
);
}
);
width = 1409;
},
{
components = (
{
name = D;
transform = "{1, 0, 0, 1, 0, 0}";
}
);
layerId = "5D328E58-2F78-4B3D-8E27-494E56F2C351";
name = Bold;
paths = (
{
closed = 1;
nodes = (
"0 808 LINE",
"0 681 LINE",
"570 681 LINE",
"570 808 LINE"
);
}
);
width = 1444;
}
);
unicode = 0110;
},
{
glyphname = Hbar;
lastChange = "2013-12-10 16:15:42 -0800";
layers = (
{
components = (
{
name = H;
transform = "{1, 0, 0, 1, 0, 0}";
}
);
layerId = "E322F6D1-BA90-436B-BB35-51D9BD3EA9D1";
name = Regular;
paths = (
{
closed = 1;
nodes = (
"48 1230 LINE",
"48 1144 LINE",
"1400 1144 LINE",
"1400 1230 LINE"
);
}
);
width = 1457;
},
{
components = (
{
name = H;
transform = "{1, 0, 0, 1, 0, 0}";
}
);
layerId = "5D328E58-2F78-4B3D-8E27-494E56F2C351";
name = Bold;
paths = (
{
closed = 1;
nodes = (
"48 1254 LINE",
"48 1144 LINE",
"1458 1144 LINE",
"1458 1254 LINE"
);
}
);
width = 1457;
}
);
unicode = 0126;
},
{
glyphname = Lslash;
lastChange = "2013-12-10 07:01:58 -0800";
layers = (
{
components = (
{
name = L;
transform = "{1, 0, 0, 1, 0, 0}";
}
);
layerId = "E322F6D1-BA90-436B-BB35-51D9BD3EA9D1";
name = Regular;
paths = (
{
closed = 1;
nodes = (
"-21 764 LINE",
"-21 642 LINE",
"589 902 LINE",
"589 1024 LINE"
);
}
);
width = 1055;
},
{
components = (
{
name = L;
transform = "{1, 0, 0, 1, 0, 0}";
}
);
layerId = "5D328E58-2F78-4B3D-8E27-494E56F2C351";
name = Bold;
paths = (
{
closed = 1;
nodes = (
"-31 764 LINE",
"-31 582 LINE",
"642 842 LINE",
"642 1024 LINE"
);
}
);
width = 1055;
}
);
unicode = 0141;
userData = {
anchors = (
);
b = {
};
com.typemytype.robofont.layerData = {
};
components = (
);
contours = (
);
lib = {
};
name = Lslash;
unicodes = (
);
width = 1055;
};
},
{
glyphname = OE;
lastChange = "2013-12-10 16:03:04 -0800";
layers = (
{
layerId = "E322F6D1-BA90-436B-BB35-51D9BD3EA9D1";
name = Regular;
paths = (
{
closed = 1;
nodes = (
"332 1491 OFFCURVE",
"112 1282 OFFCURVE",
"112 740 CURVE SMOOTH",
"112 186 OFFCURVE",
"324 -25 OFFCURVE",
"707 -25 CURVE SMOOTH",
"956 -25 OFFCURVE",
"1116 80 OFFCURVE",
"1164 260 CURVE",
"1164 0 LINE",
"2121 0 LINE",
"2121 113 LINE",
"1310 113 LINE",
"1310 723 LINE",
"1996 723 LINE",
"1996 838 LINE",
"1310 838 LINE",
"1310 1352 LINE",
"2110 1352 LINE",
"2110 1464 LINE",
"1163 1464 LINE",
"1164 1228 LINE",
"1100 1397 OFFCURVE",
"956 1491 OFFCURVE",
"711 1491 CURVE SMOOTH"
);
},
{
closed = 1;
nodes = (
"1061 1377 OFFCURVE",
"1164 1235 OFFCURVE",
"1164 700 CURVE SMOOTH",
"1164 268 OFFCURVE",
"1043 93 OFFCURVE",
"708 93 CURVE SMOOTH",
"370 93 OFFCURVE",
"265 302 OFFCURVE",
"265 741 CURVE SMOOTH",
"265 1130 OFFCURVE",
"358 1371 OFFCURVE",
"710 1374 CURVE SMOOTH"
);
}
);
width = 2171;
},
{
layerId = "5D328E58-2F78-4B3D-8E27-494E56F2C351";
name = Bold;
paths = (
{
closed = 1;
nodes = (
"342 1491 OFFCURVE",
"99 1282 OFFCURVE",
"99 740 CURVE SMOOTH",
"99 186 OFFCURVE",
"337 -25 OFFCURVE",
"720 -25 CURVE SMOOTH",
"979 -25 OFFCURVE",
"1094 57 OFFCURVE",
"1164 170 CURVE",
"1164 0 LINE",
"2121 0 LINE",
"2121 166 LINE",
"1384 166 LINE",
"1384 694 LINE",
"2016 694 LINE",
"2016 862 LINE",
"1384 862 LINE",
"1384 1298 LINE",
"2110 1298 LINE",
"2110 1464 LINE",
"1163 1464 LINE",
"1163 1298 LINE",
"1083 1420 OFFCURVE",
"946 1491 OFFCURVE",
"721 1491 CURVE SMOOTH"
);
},
{
closed = 1;
nodes = (
"1062 1325 OFFCURVE",
"1164 1160 OFFCURVE",
"1164 740 CURVE SMOOTH",
"1164 283 OFFCURVE",
"1046 143 OFFCURVE",
"721 152 CURVE SMOOTH",
"425 160 OFFCURVE",
"329 336 OFFCURVE",
"329 741 CURVE SMOOTH",
"329 1130 OFFCURVE",
"432 1307 OFFCURVE",
"720 1315 CURVE SMOOTH"
);
}
);
width = 2171;
}
);
leftKerningGroup = _O_left;
unicode = 0152;
userData = {
anchors = (
);
b = {
};
com.typemytype.robofont.layerData = {
};
components = (
);
contours = {
};
lib = {
};
name = OE;
points = {
};
segmentType = curve;
unicodes = (
);
width = 2171;
x = 368;
y = 1374;
};
},
{
glyphname = uni00B5;
lastChange = "2013-12-10 00:09:49 -0800";
layers = (
{
layerId = "E322F6D1-BA90-436B-BB35-51D9BD3EA9D1";
name = Regular;
paths = (
{
closed = 1;
nodes = (
"261 -350 LINE",
"261 57 LINE",
"301 12 OFFCURVE",
"381 -24 OFFCURVE",
"467 -24 CURVE SMOOTH",
"604 -24 OFFCURVE",
"741 21 OFFCURVE",
"829 159 CURVE",
"833 0 LINE",
"970 0 LINE",
"970 1023 LINE",
"828 1023 LINE",
"828 436 LINE SMOOTH",
"828 331 OFFCURVE",
"755 87 OFFCURVE",
"492 87 CURVE SMOOTH",
"321 87 OFFCURVE",
"268 209 OFFCURVE",
"268 406 CURVE SMOOTH",
"268 1023 LINE",
"121 1023 LINE",
"121 481 LINE",
"119 481 LINE",
"119 -350 LINE"
);
}
);
width = 1122;
},
{
layerId = "5D328E58-2F78-4B3D-8E27-494E56F2C351";
name = Bold;
paths = (
{
closed = 1;
nodes = (
"261 -350 LINE",
"261 57 LINE",
"301 12 OFFCURVE",
"381 -24 OFFCURVE",
"467 -24 CURVE SMOOTH",
"604 -24 OFFCURVE",
"741 21 OFFCURVE",
"829 159 CURVE",
"833 0 LINE",
"970 0 LINE",
"970 1023 LINE",
"828 1023 LINE",
"828 436 LINE SMOOTH",
"828 331 OFFCURVE",
"755 87 OFFCURVE",
"492 87 CURVE SMOOTH",
"321 87 OFFCURVE",
"268 209 OFFCURVE",
"268 406 CURVE SMOOTH",
"268 1023 LINE",
"121 1023 LINE",
"121 481 LINE",
"119 481 LINE",
"119 -350 LINE"
);
}
);
width = 1122;
}
);
unicode = 00B5;
},
{
glyphname = a;
lastChange = "2013-12-10 15:13:12 -0800";
layers = (
{
anchors = (
{
name = ogonek;
position = "{812, 0}";
},
{
name = top;
position = "{520, 1023}";
}
);
layerId = "E322F6D1-BA90-436B-BB35-51D9BD3EA9D1";
name = Regular;
paths = (
{
closed = 1;
nodes = (
"360 1044 OFFCURVE",
"239 999 OFFCURVE",
"133 918 CURVE",
"133 918 OFFCURVE",
"190 834 OFFCURVE",
"190 833 CURVE",
"289 909 OFFCURVE",
"400 942 OFFCURVE",
"514 942 CURVE SMOOTH",
"686 942 OFFCURVE",
"736 879 OFFCURVE",
"736 647 CURVE SMOOTH",
"736 589 LINE",
"628 573 LINE SMOOTH",
"290 526 OFFCURVE",
"103 485 OFFCURVE",
"103 229 CURVE SMOOTH",
"103 50 OFFCURVE",
"237 -25 OFFCURVE",
"398 -25 CURVE SMOOTH",
"553 -25 OFFCURVE",
"668 30 OFFCURVE",
"743 133 CURVE",
"756 0 LINE",
"878 0 LINE",
"878 673 LINE SMOOTH",
"878 926 OFFCURVE",
"763 1044 OFFCURVE",
"522 1044 CURVE SMOOTH"
);
},
{
closed = 1;
nodes = (
"736 230 LINE",
"649 123 OFFCURVE",
"544 75 OFFCURVE",
"423 75 CURVE SMOOTH",
"293 75 OFFCURVE",
"235 124 OFFCURVE",
"235 243 CURVE SMOOTH",
"235 380 OFFCURVE",
"294 431 OFFCURVE",
"609 478 CURVE SMOOTH",
"736 498 LINE"
);
}
);
width = 1001;
},
{
anchors = (
{
name = top;
position = "{518, 1023}";
}
);
layerId = "5D328E58-2F78-4B3D-8E27-494E56F2C351";
name = Bold;
paths = (
{
closed = 1;
nodes = (
"323 1047 OFFCURVE",
"213 1003 OFFCURVE",
"99 921 CURVE",
"99 921 OFFCURVE",
"182 796 OFFCURVE",
"182 795 CURVE",
"269 853 OFFCURVE",
"349 896 OFFCURVE",
"491 896 CURVE SMOOTH",
"662 896 OFFCURVE",
"688 821 OFFCURVE",
"688 642 CURVE SMOOTH",
"688 601 LINE",
"569 582 LINE SMOOTH",
"284 537 OFFCURVE",
"70 501 OFFCURVE",
"70 245 CURVE SMOOTH",
"70 68 OFFCURVE",
"207 -24 OFFCURVE",
"389 -24 CURVE SMOOTH",
"522 -24 OFFCURVE",
"632 25 OFFCURVE",
"700 120 CURVE",
"718 0 LINE",
"900 0 LINE",
"900 680 LINE SMOOTH",
"900 934 OFFCURVE",
"743 1047 OFFCURVE",
"499 1047 CURVE SMOOTH"
);
},
{
closed = 1;
nodes = (
"688 263 LINE",
"618 183 OFFCURVE",
"538 125 OFFCURVE",
"417 125 CURVE SMOOTH",
"300 125 OFFCURVE",
"269 180 OFFCURVE",
"267 261 CURVE SMOOTH",
"264 373 OFFCURVE",
"323 399 OFFCURVE",
"555 443 CURVE SMOOTH",
"688 468 LINE"
);
}
);
width = 1004;
}
);
unicode = 0061;
userData = {
anchors = (
);
b = {
};
com.typemytype.robofont.layerData = {
};
components = (
);
contours = {
};
lib = {
};
name = a;
points = {
};
segmentType = line;
unicodes = (
);
width = 999;
x = 736;
y = 500;
};
},
{
glyphname = b;
lastChange = "2013-12-10 15:07:22 -0800";
layers = (
{
layerId = "E322F6D1-BA90-436B-BB35-51D9BD3EA9D1";
name = Regular;
paths = (
{
closed = 1;
nodes = (
"128 1473 LINE",
"128 -1 LINE",
"238 -1 LINE",
"246 180 LINE",
"300 57 OFFCURVE",
"404 -24 OFFCURVE",
"577 -24 CURVE SMOOTH",
"840 -24 OFFCURVE",
"987 190 OFFCURVE",
"987 502 CURVE SMOOTH",
"987 849 OFFCURVE",
"829 1044 OFFCURVE",
"584 1044 CURVE SMOOTH",
"444 1044 OFFCURVE",
"336 978 OFFCURVE",
"270 864 CURVE",
"270 1473 LINE"
);
},
{
closed = 1;
nodes = (
"746 943 OFFCURVE",
"843 792 OFFCURVE",
"843 514 CURVE SMOOTH",
"843 229 OFFCURVE",
"747 77 OFFCURVE",
"572 77 CURVE SMOOTH",
"351 77 OFFCURVE",
"265 205 OFFCURVE",
"265 520 CURVE SMOOTH",
"265 811 OFFCURVE",
"387 943 OFFCURVE",
"573 943 CURVE SMOOTH"
);
}
);
width = 1087;
},
{
layerId = "5D328E58-2F78-4B3D-8E27-494E56F2C351";
name = Bold;
paths = (
{
closed = 1;
nodes = (
"124 1474 LINE",
"124 0 LINE",
"287 0 LINE",
"297 145 LINE",
"362 37 OFFCURVE",
"473 -24 OFFCURVE",
"620 -24 CURVE SMOOTH",
"903 -24 OFFCURVE",
"1063 169 OFFCURVE",
"1063 521 CURVE SMOOTH",
"1063 868 OFFCURVE",
"881 1047 OFFCURVE",
"619 1047 CURVE SMOOTH",
"493 1047 OFFCURVE",
"400 991 OFFCURVE",
"336 909 CURVE",
"336 1474 LINE"
);
},
{
closed = 1;
nodes = (
"771 897 OFFCURVE",
"846 761 OFFCURVE",
"846 518 CURVE SMOOTH",
"846 254 OFFCURVE",
"777 126 OFFCURVE",
"605 126 CURVE SMOOTH",
"373 126 OFFCURVE",
"329 275 OFFCURVE",
"329 522 CURVE SMOOTH",
"329 834 OFFCURVE",
"476 897 OFFCURVE",
"606 897 CURVE SMOOTH"
);
}
);
width = 1152;
}
);
rightKerningGroup = _o_right;
unicode = 0062;
userData = {
anchors = (
);
b = {
};
com.typemytype.robofont.layerData = {
};
components = (
);
contours = {
};
lib = {
};
name = b;
points = {
};
segmentType = curve;
unicodes = (
);
width = 1079;
x = 436;
y = 940;
};
},
{
glyphname = c;
lastChange = "2013-12-10 15:07:01 -0800";
layers = (
{
anchors = (
{
name = bot;
position = "{535, -1}";
},
{
name = top;
position = "{535, 1023}";
}
);
layerId = "E322F6D1-BA90-436B-BB35-51D9BD3EA9D1";
name = Regular;
paths = (
{
closed = 1;
nodes = (
"239 1044 OFFCURVE",
"100 817 OFFCURVE",
"100 509 CURVE SMOOTH",
"100 197 OFFCURVE",
"244 -24 OFFCURVE",
"536 -24 CURVE SMOOTH",
"702 -24 OFFCURVE",
"864 52 OFFCURVE",
"918 281 CURVE",
"806 315 LINE",
"764 158 OFFCURVE",
"672 78 OFFCURVE",
"539 78 CURVE SMOOTH",
"331 78 OFFCURVE",
"245 255 OFFCURVE",
"245 512 CURVE SMOOTH",
"245 767 OFFCURVE",
"327 942 OFFCURVE",
"539 942 CURVE SMOOTH",
"669 942 OFFCURVE",
"760 865 OFFCURVE",
"802 704 CURVE",
"919 733 LINE",
"863 975 OFFCURVE",
"689 1044 OFFCURVE",
"535 1044 CURVE SMOOTH"
);
}
);
width = 986;
},
{
anchors = (
{
name = bot;
position = "{555, 0}";
},
{
name = top;
position = "{545, 1023}";
}
);
layerId = "5D328E58-2F78-4B3D-8E27-494E56F2C351";
name = Bold;
paths = (
{
closed = 1;
nodes = (
"246 1047 OFFCURVE",
"89 819 OFFCURVE",
"89 511 CURVE SMOOTH",
"89 203 OFFCURVE",
"245 -24 OFFCURVE",
"541 -24 CURVE SMOOTH",
"739 -24 OFFCURVE",
"901 47 OFFCURVE",
"957 297 CURVE",
"789 348 LINE",
"752 192 OFFCURVE",
"676 127 OFFCURVE",
"549 127 CURVE SMOOTH",
"399 127 OFFCURVE",
"306 249 OFFCURVE",
"306 514 CURVE SMOOTH",
"306 769 OFFCURVE",
"396 896 OFFCURVE",
"549 896 CURVE SMOOTH",
"674 896 OFFCURVE",
"746 832 OFFCURVE",
"784 682 CURVE",
"959 725 LINE",
"903 970 OFFCURVE",
"740 1047 OFFCURVE",
"542 1047 CURVE SMOOTH"
);
}
);
width = 1019;
}
);
leftKerningGroup = _o_left;
rightKerningGroup = o_right;
unicode = 0063;
userData = {
com.typemytype.robofont.layerData = {
};
};
},
{
glyphname = d;
lastChange = "2013-12-10 15:07:32 -0800";
layers = (
{
layerId = "E322F6D1-BA90-436B-BB35-51D9BD3EA9D1";
name = Regular;
paths = (
{
closed = 1;
nodes = (
"815 1474 LINE",
"815 874 LINE",
"750 982 OFFCURVE",
"646 1044 OFFCURVE",
"510 1044 CURVE SMOOTH",
"262 1044 OFFCURVE",
"100 856 OFFCURVE",
"100 502 CURVE SMOOTH",
"100 190 OFFCURVE",
"247 -24 OFFCURVE",
"510 -24 CURVE SMOOTH",
"684 -24 OFFCURVE",
"785 61 OFFCURVE",
"839 183 CURVE",
"847 0 LINE",
"957 0 LINE",
"957 1474 LINE"
);
},
{
closed = 1;
nodes = (
"704 942 OFFCURVE",
"822 811 OFFCURVE",
"822 520 CURVE SMOOTH",
"822 205 OFFCURVE",
"710 68 OFFCURVE",
"515 78 CURVE SMOOTH",
"340 87 OFFCURVE",
"244 229 OFFCURVE",
"244 514 CURVE SMOOTH",
"244 791 OFFCURVE",
"341 942 OFFCURVE",
"518 942 CURVE SMOOTH"
);
}
);
width = 1085;
},
{
layerId = "5D328E58-2F78-4B3D-8E27-494E56F2C351";
name = Bold;
paths = (
{
closed = 1;
nodes = (
"814 1478 LINE",
"814 916 LINE",
"752 995 OFFCURVE",
"662 1047 OFFCURVE",
"539 1047 CURVE SMOOTH",
"277 1047 OFFCURVE",
"89 873 OFFCURVE",
"89 523 CURVE SMOOTH",
"89 171 OFFCURVE",
"252 -24 OFFCURVE",
"535 -24 CURVE SMOOTH",
"679 -24 OFFCURVE",
"788 36 OFFCURVE",
"854 140 CURVE",
"863 4 LINE",
"1026 4 LINE",
"1026 1478 LINE"
);
},
{
closed = 1;
nodes = (
"676 902 OFFCURVE",
"824 830 OFFCURVE",
"824 522 CURVE SMOOTH",
"824 291 OFFCURVE",
"765 115 OFFCURVE",
"550 126 CURVE SMOOTH",
"374 135 OFFCURVE",
"305 259 OFFCURVE",
"305 523 CURVE SMOOTH",
"305 769 OFFCURVE",
"380 890 OFFCURVE",
"546 897 CURVE SMOOTH"
);
}
);
width = 1150;
}
);
leftKerningGroup = _o_left;
rightKerningGroup = o_right;
unicode = 0064;
userData = {
anchors = (
);
b = {
};
com.typemytype.robofont.layerData = {
};
components = (
);
contours = {
};
lib = {
};
name = b;
points = {
};
segmentType = curve;
unicodes = (
);
width = 1077;
x = 407;
y = 940;
};
},
{
glyphname = e;
lastChange = "2013-12-10 15:07:11 -0800";
layers = (
{
anchors = (
{
name = ogonek;
position = "{635, 0}";
},
{
name = top;
position = "{535, 1023}";
}
);
layerId = "E322F6D1-BA90-436B-BB35-51D9BD3EA9D1";
name = Regular;
paths = (
{
closed = 1;
nodes = (
"258 1044 OFFCURVE",
"100 824 OFFCURVE",
"100 512 CURVE SMOOTH",
"100 229 OFFCURVE",
"234 -24 OFFCURVE",
"550 -24 CURVE SMOOTH",
"711 -23 OFFCURVE",
"876 68 OFFCURVE",
"923 246 CURVE",
"816 270 LINE",
"781 160 OFFCURVE",
"687 78 OFFCURVE",
"547 78 CURVE SMOOTH",
"335 78 OFFCURVE",
"242 269 OFFCURVE",
"242 500 CURVE",
"944 500 LINE",
"946 517 OFFCURVE",
"947 553 OFFCURVE",
"947 562 CURVE SMOOTH",
"947 834 OFFCURVE",
"825 1044 OFFCURVE",
"540 1044 CURVE SMOOTH"
);
},
{
closed = 1;
nodes = (
"735 942 OFFCURVE",
"811 809 OFFCURVE",
"814 594 CURVE",
"242 594 LINE",
"258 782 OFFCURVE",
"353 942 OFFCURVE",
"539 942 CURVE SMOOTH"
);
}
);
width = 1023;
},
{
anchors = (
{
name = ogonek;
position = "{648, 0}";
},
{
name = top;
position = "{545, 1023}";
}
);
hints = (
{
horizontal = 1;
origin = "{0, 5}";
target = "{0, 12}";
},
{
horizontal = 1;
origin = "{0, 15}";
target = "{1, 3}";
},
{
horizontal = 1;
origin = "{1, 6}";
target = "{0, 22}";
},
{
origin = "{0, 2}";
target = "{0, 15}";
},
{
origin = "{1, 2}";
target = "{0, 19}";
}
);
layerId = "5D328E58-2F78-4B3D-8E27-494E56F2C351";
name = Bold;
paths = (
{
closed = 1;
nodes = (
"255 1047 OFFCURVE",
"89 843 OFFCURVE",
"89 512 CURVE SMOOTH",
"89 217 OFFCURVE",
"230 -24 OFFCURVE",
"553 -24 CURVE SMOOTH",
"750 -24 OFFCURVE",
"897 94 OFFCURVE",
"944 272 CURVE",
"785 307 LINE",
"750 212 OFFCURVE",
"688 127 OFFCURVE",
"550 127 CURVE SMOOTH",
"366 127 OFFCURVE",
"304 304 OFFCURVE",
"301 468 CURVE",
"959 468 LINE",
"961 485 OFFCURVE",
"962 559 OFFCURVE",
"962 568 CURVE SMOOTH",
"962 841 OFFCURVE",
"829 1047 OFFCURVE",
"544 1047 CURVE SMOOTH"
);
},
{
closed = 1;
nodes = (
"702 896 OFFCURVE",
"763 796 OFFCURVE",
"763 607 CURVE",
"301 607 LINE",
"306 721 OFFCURVE",
"359 896 OFFCURVE",
"540 896 CURVE SMOOTH"
);
}
);
width = 1032;
}
);
leftKerningGroup = _o_left;
rightKerningGroup = o_right;
unicode = 0065;
userData = {
com.typemytype.robofont.layerData = {
};
};
},
{
glyphname = f;
lastChange = "2013-12-10 15:03:26 -0800";
layers = (
{
layerId = "E322F6D1-BA90-436B-BB35-51D9BD3EA9D1";
name = Regular;
paths = (
{
closed = 1;
nodes = (
"280 1474 OFFCURVE",
"223 1364 OFFCURVE",
"223 1142 CURVE SMOOTH",
"223 1023 LINE",
"50 1023 LINE",
"50 917 LINE",
"223 917 LINE",
"223 0 LINE",
"365 0 LINE",
"365 917 LINE",
"565 917 LINE",
"565 1023 LINE",
"365 1023 LINE",
"365 1146 LINE SMOOTH",
"365 1305 OFFCURVE",
"377 1366 OFFCURVE",
"469 1366 CURVE SMOOTH",
"511 1366 OFFCURVE",
"546 1353 OFFCURVE",
"577 1338 CURVE",
"614 1428 LINE",
"584 1449 OFFCURVE",
"523 1474 OFFCURVE",
"455 1474 CURVE SMOOTH"
);
}
);
width = 623;
},
{
layerId = "5D328E58-2F78-4B3D-8E27-494E56F2C351";
name = Bold;
paths = (
{
closed = 1;
nodes = (
"301 1474 OFFCURVE",
"196 1417 OFFCURVE",
"196 1135 CURVE SMOOTH",
"196 1023 LINE",
"21 1023 LINE",
"21 868 LINE",
"196 868 LINE",
"196 0 LINE",
"408 0 LINE",
"408 868 LINE",
"624 868 LINE",
"624 1023 LINE",
"408 1023 LINE",
"407 1143 LINE SMOOTH",
"406 1282 OFFCURVE",
"420 1312 OFFCURVE",
"506 1312 CURVE SMOOTH",
"538 1312 OFFCURVE",
"579 1300 OFFCURVE",
"612 1283 CURVE",
"665 1424 LINE",
"621 1448 OFFCURVE",
"539 1474 OFFCURVE",
"481 1474 CURVE SMOOTH"
);
}
);
width = 640;
}
);
unicode = 0066;
userData = {
anchors = (
);
b = {
};
com.typemytype.robofont.layerData = {
};
components = (
);
contours = {
};
lib = {
};
name = f;
points = {
};
segmentType = line;
unicodes = (
);
width = 623;
x = 492;
y = 1368;
};
},
{
glyphname = g;
lastChange = "2013-12-10 15:10:19 -0800";
layers = (
{
anchors = (
{
name = top;
position = "{529, 1023}";
}
);
layerId = "E322F6D1-BA90-436B-BB35-51D9BD3EA9D1";
name = Regular;
paths = (
{
closed = 1;
nodes = (
"261 1044 OFFCURVE",
"84 857 OFFCURVE",
"84 503 CURVE SMOOTH",
"84 190 OFFCURVE",
"248 -24 OFFCURVE",
"512 -24 CURVE SMOOTH",
"668 -24 OFFCURVE",
"767 44 OFFCURVE",
"826 147 CURVE",
"826 36 LINE SMOOTH",
"826 -186 OFFCURVE",
"737 -322 OFFCURVE",
"535 -322 CURVE SMOOTH",
"388 -322 OFFCURVE",
"304 -276 OFFCURVE",
"233 -189 CURVE",
"157 -268 LINE",
"223 -352 OFFCURVE",
"351 -431 OFFCURVE",
"536 -429 CURVE SMOOTH",
"818 -426 OFFCURVE",
"967 -247 OFFCURVE",
"967 40 CURVE SMOOTH",
"967 1023 LINE",
"845 1023 LINE",
"832 844 LINE",
"768 970 OFFCURVE",
"657 1044 OFFCURVE",
"509 1044 CURVE SMOOTH"
);
},
{
closed = 1;
nodes = (
"704 943 OFFCURVE",
"826 816 OFFCURVE",
"826 520 CURVE SMOOTH",
"826 205 OFFCURVE",
"739 77 OFFCURVE",
"518 77 CURVE SMOOTH",
"342 77 OFFCURVE",
"227 228 OFFCURVE",
"228 514 CURVE SMOOTH",
"229 787 OFFCURVE",
"342 943 OFFCURVE",
"517 943 CURVE SMOOTH"
);
}
);
width = 1097;
},
{
anchors = (
{
name = top;
position = "{548, 1023}";
}
);
layerId = "5D328E58-2F78-4B3D-8E27-494E56F2C351";
name = Bold;
paths = (
{
closed = 1;
nodes = (
"280 1047 OFFCURVE",
"88 864 OFFCURVE",
"88 521 CURVE SMOOTH",
"88 179 OFFCURVE",
"260 -24 OFFCURVE",
"543 -24 CURVE SMOOTH",
"667 -24 OFFCURVE",
"765 19 OFFCURVE",
"831 97 CURVE",
"831 28 LINE SMOOTH",
"831 -187 OFFCURVE",
"773 -314 OFFCURVE",
"567 -317 CURVE SMOOTH",
"410 -319 OFFCURVE",
"324 -257 OFFCURVE",
"262 -178 CURVE",
"147 -296 LINE",
"225 -393 OFFCURVE",
"378 -476 OFFCURVE",
"564 -476 CURVE SMOOTH",
"848 -476 OFFCURVE",
"1043 -331 OFFCURVE",
"1043 24 CURVE SMOOTH",
"1043 1023 LINE",
"862 1023 LINE",
"842 885 LINE",
"779 980 OFFCURVE",
"680 1047 OFFCURVE",
"542 1047 CURVE SMOOTH"
);
},
{
closed = 1;
nodes = (
"691 897 OFFCURVE",
"832 847 OFFCURVE",
"832 482 CURVE SMOOTH",
"832 259 OFFCURVE",
"775 126 OFFCURVE",
"556 126 CURVE SMOOTH",
"385 126 OFFCURVE",
"304 257 OFFCURVE",
"303 520 CURVE SMOOTH",
"302 758 OFFCURVE",
"395 897 OFFCURVE",
"555 897 CURVE SMOOTH"
);
}
);
width = 1157;
}
);
leftKerningGroup = _o_left;
unicode = 0067;
userData = {
anchors = (
);
b = {
};
com.typemytype.robofont.layerData = {
};
components = (
);
contours = {
};
lib = {
};
name = g;
points = {
};
segmentType = line;
unicodes = (
);
width = 1074;
x = 805;
y = "-429";
};
},
{
glyphname = h;
lastChange = "2013-12-10 14:13:52 -0800";
layers = (
{
anchors = (
{
name = top;
position = "{653, 1143}";
}
);
layerId = "E322F6D1-BA90-436B-BB35-51D9BD3EA9D1";
name = Regular;
paths = (
{
closed = 1;
nodes = (
"128 1474 LINE",
"128 0 LINE",
"271 0 LINE",
"271 538 LINE SMOOTH",
"278 767 OFFCURVE",
"359 942 OFFCURVE",
"604 942 CURVE SMOOTH",
"781 942 OFFCURVE",
"824 812 OFFCURVE",
"824 603 CURVE SMOOTH",
"824 0 LINE",
"966 0 LINE",
"966 584 LINE SMOOTH",
"966 790 OFFCURVE",
"947 1044 OFFCURVE",
"624 1044 CURVE SMOOTH",
"458 1044 OFFCURVE",
"339 975 OFFCURVE",
"270 849 CURVE",
"270 1474 LINE"
);
}
);
width = 1087;
},
{
anchors = (
{
name = top;
position = "{694, 1163}";
}
);
layerId = "5D328E58-2F78-4B3D-8E27-494E56F2C351";
name = Bold;
paths = (
{
closed = 1;
nodes = (
"124 1474 LINE",
"124 0 LINE",
"337 0 LINE",
"337 537 LINE",
"345 724 OFFCURVE",
"409 896 OFFCURVE",
"611 896 CURVE SMOOTH",
"759 896 OFFCURVE",
"809 801 OFFCURVE",
"809 602 CURVE SMOOTH",
"809 0 LINE",
"1021 0 LINE",
"1021 595 LINE SMOOTH",
"1021 801 OFFCURVE",
"980 1044 OFFCURVE",
"657 1044 CURVE SMOOTH",
"509 1044 OFFCURVE",
"406 989 OFFCURVE",
"337 891 CURVE",
"337 1474 LINE"
);
}
);
width = 1135;
}
);
unicode = 0068;
userData = {
anchors = (
);
b = {
};
com.typemytype.robofont.guides = (
);
com.typemytype.robofont.layerData = {
};
components = (
);
contours = {
};
lib = {
};
name = h;
points = {
};
segmentType = line;
unicodes = (
);
width = 1086;
x = 783;
y = 940;
};
},
{
glyphname = i;
lastChange = "2013-12-10 16:16:20 -0800";
layers = (
{
anchors = (
{
name = _top;
position = "{220, 1023}";
},
{
name = ogonek;
position = "{221, 0}";
},
{
name = top;
position = "{220, 1023}";
}
);
layerId = "E322F6D1-BA90-436B-BB35-51D9BD3EA9D1";
name = Regular;
paths = (
{
closed = 1;
nodes = (
"145 1023 LINE",
"145 0 LINE",
"287 0 LINE",
"287 1023 LINE"
);
},
{
closed = 1;
nodes = (
"145 1446 LINE",
"145 1231 LINE",
"289 1231 LINE",
"289 1446 LINE"
);
}
);
width = 424;
},
{
layerId = "5D328E58-2F78-4B3D-8E27-494E56F2C351";
name = Bold;
paths = (
{
closed = 1;
nodes = (
"137 1023 LINE",
"137 0 LINE",
"349 0 LINE",
"349 1023 LINE"
);
},
{
closed = 1;
nodes = (
"133 1474 LINE",
"133 1234 LINE",
"351 1234 LINE",
"351 1474 LINE"
);
}
);
width = 470;
}
);
unicode = 0069;
userData = {
com.typemytype.robofont.layerData = {
};
};
},
{
glyphname = j;
lastChange = "2013-12-10 07:01:58 -0800";
layers = (
{
anchors = (
{
name = _top;
position = "{286, 1023}";
},
{
name = top;
position = "{286, 1023}";
}
);
layerId = "E322F6D1-BA90-436B-BB35-51D9BD3EA9D1";
name = Regular;
paths = (
{
closed = 1;
nodes = (
"214 1023 LINE",
"214 -91 LINE SMOOTH",
"214 -182 OFFCURVE",
"177 -207 OFFCURVE",
"118 -207 CURVE SMOOTH",
"65 -207 OFFCURVE",
"29 -189 OFFCURVE",
"2 -177 CURVE",
"-27 -284 LINE",
"13 -306 OFFCURVE",
"69 -325 OFFCURVE",
"140 -325 CURVE SMOOTH",
"322 -325 OFFCURVE",
"356 -217 OFFCURVE",
"356 -12 CURVE SMOOTH",
"356 1023 LINE"
);
},
{
closed = 1;
nodes = (
"211 1446 LINE",
"211 1231 LINE",
"355 1231 LINE",
"355 1446 LINE"
);
}
);
width = 482;
},
{
anchors = (
{
name = _top;
position = "{302, 1023}";
},
{
name = top;
position = "{302, 1023}";
}
);
layerId = "5D328E58-2F78-4B3D-8E27-494E56F2C351";
name = Bold;
paths = (
{
closed = 1;
nodes = (
"195 1023 LINE",
"195 -91 LINE SMOOTH",
"195 -177 OFFCURVE",
"155 -207 OFFCURVE",
"100 -207 CURVE SMOOTH",
"64 -207 OFFCURVE",
"22 -195 OFFCURVE",
"-20 -176 CURVE",
"-61 -334 LINE",
"-13 -362 OFFCURVE",
"63 -380 OFFCURVE",
"134 -380 CURVE SMOOTH",
"323 -380 OFFCURVE",
"407 -304 OFFCURVE",
"407 -42 CURVE SMOOTH",
"407 1023 LINE"
);
},
{
closed = 1;
nodes = (
"187 1474 LINE",
"187 1234 LINE",
"405 1234 LINE",
"405 1474 LINE"
);
}
);
width = 513;
}
);
unicode = 006A;
userData = {
anchors = (
);
b = {
};
com.typemytype.robofont.layerData = {
};
components = (
);
contours = (
);
lib = {
};
name = j;
unicodes = (
);
width = 482;
};
},
{
glyphname = k;
lastChange = "2013-12-10 15:10:37 -0800";
layers = (
{
layerId = "E322F6D1-BA90-436B-BB35-51D9BD3EA9D1";
name = Regular;
paths = (
{
closed = 1;
nodes = (
"128 1474 LINE",
"128 0 LINE",
"271 0 LINE",
"271 364 LINE",
"481 564 LINE",
"856 0 LINE",
"1016 0 LINE",
"573 652 LINE",
"963 1023 LINE",
"801 1023 LINE",
"271 516 LINE",
"270 1474 LINE"
);
}
);
width = 1006;
},
{
layerId = "5D328E58-2F78-4B3D-8E27-494E56F2C351";
name = Bold;
paths = (
{
closed = 1;
nodes = (
"124 1474 LINE",
"124 0 LINE",
"337 0 LINE",
"337 334 LINE",
"510 501 LINE",
"834 0 LINE",
"1073 0 LINE",
"649 635 LINE",
"1053 1023 LINE",
"814 1023 LINE",
"337 559 LINE",
"337 1474 LINE"
);
}
);
width = 1063;
}
);
unicode = 006B;
userData = {
anchors = (
);
b = {
};
com.typemytype.robofont.layerData = {
};
components = (
);
contours = {
};
lib = {
};
name = k;
points = {
};
segmentType = line;
unicodes = (
);
width = 1005;
x = 268;
y = 511;
};
},
{
glyphname = l;
lastChange = "2013-12-10 15:11:22 -0800";
layers = (
{
anchors = (
{
name = top;
position = "{226, 1474}";
}
);
layerId = "E322F6D1-BA90-436B-BB35-51D9BD3EA9D1";
name = Regular;
paths = (
{
closed = 1;
nodes = (
"133 1474 LINE",
"133 0 LINE",
"275 0 LINE",
"275 1474 LINE"
);
}
);
width = 418;
},
{
anchors = (
{
name = top;
position = "{308, 1474}";
}
);
layerId = "5D328E58-2F78-4B3D-8E27-494E56F2C351";
name = Bold;
paths = (
{
closed = 1;
nodes = (
"139 1474 LINE",
"139 0 LINE",
"351 0 LINE",
"351 1474 LINE"
);
}
);
width = 485;
}
);
unicode = 006C;
userData = {
com.typemytype.robofont.layerData = {
};
};
},
{
glyphname = m;
lastChange = "2013-12-10 14:13:44 -0800";
layers = (
{
anchors = (
{
name = top;
position = "{935, 1023}";
}
);
layerId = "E322F6D1-BA90-436B-BB35-51D9BD3EA9D1";
name = Regular;
paths = (
{
closed = 1;
nodes = (
"1135 1044 OFFCURVE",
"1009 962 OFFCURVE",
"945 809 CURVE",
"913 939 OFFCURVE",
"831 1044 OFFCURVE",
"623 1044 CURVE SMOOTH",
"457 1044 OFFCURVE",
"338 976 OFFCURVE",
"269 850 CURVE",
"269 1023 LINE",
"128 1023 LINE",
"128 0 LINE",
"270 0 LINE",
"269 532 LINE",
"276 764 OFFCURVE",
"360 943 OFFCURVE",
"603 943 CURVE SMOOTH",
"780 943 OFFCURVE",
"823 812 OFFCURVE",
"823 603 CURVE SMOOTH",
"823 0 LINE",
"965 0 LINE",
"965 494 LINE SMOOTH",
"965 742 OFFCURVE",
"1043 943 OFFCURVE",
"1299 943 CURVE SMOOTH",
"1476 943 OFFCURVE",
"1519 812 OFFCURVE",
"1519 603 CURVE SMOOTH",
"1519 0 LINE",
"1661 0 LINE",
"1661 584 LINE SMOOTH",
"1661 790 OFFCURVE",
"1642 1044 OFFCURVE",
"1319 1044 CURVE SMOOTH"
);
}
);
width = 1785;
},
{
layerId = "5D328E58-2F78-4B3D-8E27-494E56F2C351";
name = Bold;
paths = (
{
closed = 1;
nodes = (
"1168 1047 OFFCURVE",
"1053 977 OFFCURVE",
"987 844 CURVE",
"944 960 OFFCURVE",
"852 1047 OFFCURVE",
"657 1047 CURVE SMOOTH",
"508 1047 OFFCURVE",
"405 990 OFFCURVE",
"336 891 CURVE",
"336 1023 LINE",
"124 1023 LINE",
"124 0 LINE",
"336 0 LINE",
"336 491 LINE SMOOTH",
"336 695 OFFCURVE",
"392 897 OFFCURVE",
"611 897 CURVE SMOOTH",
"759 897 OFFCURVE",
"809 801 OFFCURVE",
"809 602 CURVE SMOOTH",
"809 0 LINE",
"1021 0 LINE",
"1021 497 LINE SMOOTH",
"1021 701 OFFCURVE",
"1073 897 OFFCURVE",
"1296 897 CURVE SMOOTH",
"1444 897 OFFCURVE",
"1494 801 OFFCURVE",
"1494 602 CURVE SMOOTH",
"1494 0 LINE",
"1706 0 LINE",
"1706 595 LINE SMOOTH",
"1706 801 OFFCURVE",
"1665 1047 OFFCURVE",
"1342 1047 CURVE SMOOTH"
);
}
);
width = 1820;
}
);
unicode = 006D;
userData = {
anchors = (
);
b = {
};
com.typemytype.robofont.layerData = {
};
components = (
);
contours = {
};
lib = {
};
name = m;
points = {
};
segmentType = curve;
unicodes = (
);
width = 1782;
x = 269;
y = 757;
};
},
{
glyphname = n;
lastChange = "2013-12-10 14:13:21 -0800";
layers = (
{
anchors = (
{
name = top;
position = "{591, 1023}";
}
);
layerId = "E322F6D1-BA90-436B-BB35-51D9BD3EA9D1";
name = Regular;
paths = (
{
closed = 1;
nodes = (
"457 1044 OFFCURVE",
"338 980 OFFCURVE",
"269 852 CURVE",
"269 1023 LINE",
"128 1023 LINE",
"128 0 LINE",
"270 0 LINE",
"269 564 LINE",
"281 780 OFFCURVE",
"368 943 OFFCURVE",
"601 943 CURVE SMOOTH",
"778 943 OFFCURVE",
"823 816 OFFCURVE",
"823 605 CURVE SMOOTH",
"823 0 LINE",
"965 0 LINE",
"965 584 LINE SMOOTH",
"965 787 OFFCURVE",
"944 1044 OFFCURVE",
"623 1044 CURVE SMOOTH"
);
}
);
width = 1089;
},
{
anchors = (
{
name = top;
position = "{621, 1023}";
}
);
layerId = "5D328E58-2F78-4B3D-8E27-494E56F2C351";
name = Bold;
paths = (
{
closed = 1;
nodes = (
"509 1047 OFFCURVE",
"405 991 OFFCURVE",
"336 892 CURVE",
"336 1023 LINE",
"124 1023 LINE",
"124 0 LINE",
"336 0 LINE",
"336 491 LINE SMOOTH",
"336 685 OFFCURVE",
"397 897 OFFCURVE",
"616 897 CURVE SMOOTH",
"764 897 OFFCURVE",
"809 796 OFFCURVE",
"809 597 CURVE SMOOTH",
"809 0 LINE",
"1021 0 LINE",
"1021 595 LINE SMOOTH",
"1021 801 OFFCURVE",
"980 1047 OFFCURVE",
"657 1047 CURVE SMOOTH"
);
}
);
width = 1135;
}
);
unicode = 006E;
userData = {
anchors = (
);
b = {
};
com.typemytype.robofont.layerData = {
};
components = (
);
contours = {
};
lib = {
};
name = n;
points = {
};
segmentType = curve;
unicodes = (
);
width = 1086;
x = 265;
y = 830;
};
},
{
glyphname = o;
lastChange = "2013-12-10 15:50:08 -0800";
layers = (
{
anchors = (
{
name = ogonek;
position = "{631, 0}";
},
{
name = top;
position = "{535, 1023}";
}
);
layerId = "E322F6D1-BA90-436B-BB35-51D9BD3EA9D1";
name = Regular;
paths = (
{
closed = 1;
nodes = (
"275 1044 OFFCURVE",
"100 860 OFFCURVE",
"100 510 CURVE SMOOTH",
"100 160 OFFCURVE",
"275 -24 OFFCURVE",
"540 -24 CURVE SMOOTH",
"805 -24 OFFCURVE",
"980 160 OFFCURVE",
"980 510 CURVE SMOOTH",
"980 860 OFFCURVE",
"805 1044 OFFCURVE",
"540 1044 CURVE SMOOTH"
);
},
{
closed = 1;
nodes = (
"774 943 OFFCURVE",
"835 721 OFFCURVE",
"835 510 CURVE SMOOTH",
"835 299 OFFCURVE",
"774 77 OFFCURVE",
"540 77 CURVE SMOOTH",
"306 77 OFFCURVE",
"245 299 OFFCURVE",
"245 510 CURVE SMOOTH",
"245 721 OFFCURVE",
"306 943 OFFCURVE",
"540 943 CURVE SMOOTH"
);
}
);
width = 1080;
},
{
anchors = (
{
name = top;
position = "{553, 1023}";
}
);
layerId = "5D328E58-2F78-4B3D-8E27-494E56F2C351";
name = Bold;
paths = (
{
closed = 1;
nodes = (
"266 1047 OFFCURVE",
"88 866 OFFCURVE",
"88 512 CURVE SMOOTH",
"88 158 OFFCURVE",
"266 -24 OFFCURVE",
"552 -24 CURVE SMOOTH",
"838 -24 OFFCURVE",
"1016 158 OFFCURVE",
"1016 512 CURVE SMOOTH",
"1016 866 OFFCURVE",
"838 1047 OFFCURVE",
"552 1047 CURVE SMOOTH"
);
},
{
closed = 1;
nodes = (
"758 897 OFFCURVE",
"799 702 OFFCURVE",
"799 512 CURVE SMOOTH",
"799 322 OFFCURVE",
"758 126 OFFCURVE",
"552 126 CURVE SMOOTH",
"346 126 OFFCURVE",
"305 322 OFFCURVE",
"305 512 CURVE SMOOTH",
"305 702 OFFCURVE",
"346 897 OFFCURVE",
"552 897 CURVE SMOOTH"
);
}
);
width = 1104;
}
);
leftKerningGroup = _o_left;
rightKerningGroup = _o_right;
unicode = 006F;
userData = {
com.typemytype.robofont.guides = (
);
com.typemytype.robofont.layerData = {
};
};
},
{
glyphname = p;
lastChange = "2013-12-10 15:11:48 -0800";
layers = (
{
layerId = "E322F6D1-BA90-436B-BB35-51D9BD3EA9D1";
name = Regular;
paths = (
{
closed = 1;
nodes = (
"436 1044 OFFCURVE",
"328 973 OFFCURVE",
"265 850 CURVE",
"250 1023 LINE",
"128 1023 LINE",
"128 -350 LINE",
"270 -350 LINE",
"270 141 LINE",
"328 40 OFFCURVE",
"427 -24 OFFCURVE",
"581 -24 CURVE SMOOTH",
"844 -24 OFFCURVE",
"991 190 OFFCURVE",
"991 502 CURVE SMOOTH",
"991 856 OFFCURVE",
"829 1044 OFFCURVE",
"581 1044 CURVE SMOOTH"
);
},
{
closed = 1;
nodes = (
"750 943 OFFCURVE",
"847 791 OFFCURVE",
"847 514 CURVE SMOOTH",
"847 229 OFFCURVE",
"751 77 OFFCURVE",
"576 77 CURVE SMOOTH",
"358 77 OFFCURVE",
"269 187 OFFCURVE",
"269 542 CURVE SMOOTH",
"275 818 OFFCURVE",
"392 943 OFFCURVE",
"573 943 CURVE SMOOTH"
);
}
);
width = 1091;
},
{
layerId = "5D328E58-2F78-4B3D-8E27-494E56F2C351";
name = Bold;
paths = (
{
closed = 1;
nodes = (
"487 1047 OFFCURVE",
"387 978 OFFCURVE",
"324 882 CURVE",
"310 1023 LINE",
"124 1023 LINE",
"124 -370 LINE",
"336 -370 LINE",
"336 99 LINE",
"403 20 OFFCURVE",
"502 -24 OFFCURVE",
"627 -24 CURVE SMOOTH",
"910 -24 OFFCURVE",
"1070 169 OFFCURVE",
"1070 521 CURVE SMOOTH",
"1070 868 OFFCURVE",
"888 1047 OFFCURVE",
"626 1047 CURVE SMOOTH"
);
},
{
closed = 1;
nodes = (
"778 897 OFFCURVE",
"853 761 OFFCURVE",
"853 518 CURVE SMOOTH",
"853 254 OFFCURVE",
"784 126 OFFCURVE",
"612 126 CURVE SMOOTH",
"380 126 OFFCURVE",
"336 275 OFFCURVE",
"336 522 CURVE SMOOTH",
"336 834 OFFCURVE",
"483 897 OFFCURVE",
"613 897 CURVE SMOOTH"
);
}
);
width = 1158;
}
);
rightKerningGroup = _o_right;
unicode = 0070;
userData = {
anchors = (
);
b = {
};
com.typemytype.robofont.layerData = {
};
components = (
);
contours = (
);
lib = {
};
name = p;
unicodes = (
);
width = 1082;
};
},
{
glyphname = q;
lastChange = "2013-12-10 15:08:37 -0800";
layers = (
{
layerId = "E322F6D1-BA90-436B-BB35-51D9BD3EA9D1";
name = Regular;
paths = (
{
closed = 1;
nodes = (
"262 1044 OFFCURVE",
"100 856 OFFCURVE",
"100 502 CURVE SMOOTH",
"100 190 OFFCURVE",
"247 -24 OFFCURVE",
"510 -24 CURVE SMOOTH",
"664 -24 OFFCURVE",
"763 40 OFFCURVE",
"821 141 CURVE",
"821 -350 LINE",
"963 -350 LINE",
"963 1023 LINE",
"841 1023 LINE",
"826 850 LINE",
"763 973 OFFCURVE",
"655 1044 OFFCURVE",
"510 1044 CURVE SMOOTH"
);
},
{
closed = 1;
nodes = (
"707 943 OFFCURVE",
"822 826 OFFCURVE",
"822 490 CURVE SMOOTH",
"822 197 OFFCURVE",
"729 77 OFFCURVE",
"515 77 CURVE SMOOTH",
"340 77 OFFCURVE",
"244 229 OFFCURVE",
"244 514 CURVE SMOOTH",
"244 791 OFFCURVE",
"341 943 OFFCURVE",
"518 943 CURVE SMOOTH"
);
}
);
width = 1090;
},
{
layerId = "5D328E58-2F78-4B3D-8E27-494E56F2C351";
name = Bold;
paths = (
{
closed = 1;
nodes = (
"270 1047 OFFCURVE",
"88 868 OFFCURVE",
"88 521 CURVE SMOOTH",
"88 169 OFFCURVE",
"248 -24 OFFCURVE",
"531 -24 CURVE SMOOTH",
"656 -24 OFFCURVE",
"755 20 OFFCURVE",
"822 99 CURVE",
"822 -350 LINE",
"1034 -350 LINE",
"1034 1023 LINE",
"848 1023 LINE",
"834 882 LINE",
"771 978 OFFCURVE",
"671 1047 OFFCURVE",
"532 1047 CURVE SMOOTH"
);
},
{
closed = 1;
nodes = (
"675 897 OFFCURVE",
"822 834 OFFCURVE",
"822 522 CURVE SMOOTH",
"822 275 OFFCURVE",
"778 126 OFFCURVE",
"546 126 CURVE SMOOTH",
"374 126 OFFCURVE",
"305 254 OFFCURVE",
"305 518 CURVE SMOOTH",
"305 761 OFFCURVE",
"380 897 OFFCURVE",
"545 897 CURVE SMOOTH"
);
}
);
width = 1155;
}
);
leftKerningGroup = _o_left;
unicode = 0071;
userData = {
anchors = (
);
b = {
};
com.typemytype.robofont.layerData = {
};
components = (
);
contours = (
);
lib = {
};
name = p;
unicodes = (
);
width = 1082;
};
},
{
glyphname = r;
lastChange = "2013-12-10 14:50:41 -0800";
layers = (
{
anchors = (
{
name = top;
position = "{365, 1023}";
}
);
layerId = "E322F6D1-BA90-436B-BB35-51D9BD3EA9D1";
name = Regular;
paths = (
{
closed = 1;
nodes = (
"442 1029 OFFCURVE",
"336 967 OFFCURVE",
"269 832 CURVE",
"269 1023 LINE",
"128 1023 LINE",
"128 0 LINE",
"270 0 LINE",
"269 556 LINE",
"276 733 OFFCURVE",
"359 903 OFFCURVE",
"578 903 CURVE",
"578 1029 LINE"
);
}
);
width = 634;
},
{
anchors = (
{
name = top;
position = "{442, 1023}";
}
);
layerId = "5D328E58-2F78-4B3D-8E27-494E56F2C351";
name = Bold;
paths = (
{
closed = 1;
nodes = (
"506 1035 OFFCURVE",
"406 984 OFFCURVE",
"334 865 CURVE",
"334 1023 LINE",
"122 1023 LINE",
"122 0 LINE",
"334 0 LINE",
"334 502 LINE SMOOTH",
"334 687 OFFCURVE",
"417 847 OFFCURVE",
"636 847 CURVE",
"636 1035 LINE"
);
}
);
width = 676;
}
);
unicode = 0072;
userData = {
anchors = (
);
b = {
};
com.typemytype.robofont.layerData = {
};
components = (
);
contours = {
};
lib = {
};
name = r;
points = {
};
segmentType = line;
unicodes = (
);
width = 626;
x = 127;
y = 1023;
};
},
{
glyphname = s;
lastChange = "2013-12-10 07:01:58 -0800";
layers = (
{
anchors = (
{
name = top;
position = "{471, 1023}";
}
);
layerId = "E322F6D1-BA90-436B-BB35-51D9BD3EA9D1";
name = Regular;
paths = (
{
closed = 1;
nodes = (
"256 1044 OFFCURVE",
"105 944 OFFCURVE",
"105 761 CURVE SMOOTH",
"105 560 OFFCURVE",
"210 520 OFFCURVE",
"405 477 CURVE SMOOTH",
"672 418 OFFCURVE",
"717 416 OFFCURVE",
"717 263 CURVE SMOOTH",
"717 122 OFFCURVE",
"603 77 OFFCURVE",
"458 77 CURVE SMOOTH",
"295 77 OFFCURVE",
"224 138 OFFCURVE",
"177 269 CURVE",
"72 227 LINE",
"124 36 OFFCURVE",
"291 -24 OFFCURVE",
"445 -24 CURVE SMOOTH",
"720 -24 OFFCURVE",
"841 83 OFFCURVE",
"841 283 CURVE SMOOTH",
"841 472 OFFCURVE",
"741 528 OFFCURVE",
"497 577 CURVE SMOOTH",
"287 619 OFFCURVE",
"239 639 OFFCURVE",
"239 761 CURVE SMOOTH",
"239 881 OFFCURVE",
"307 943 OFFCURVE",
"483 943 CURVE SMOOTH",
"618 943 OFFCURVE",
"692 897 OFFCURVE",
"738 790 CURVE",
"738 791 OFFCURVE",
"829 841 OFFCURVE",
"829 841 CURVE",
"759 992 OFFCURVE",
"652 1044 OFFCURVE",
"475 1044 CURVE SMOOTH"
);
}
);
width = 913;
},
{
anchors = (
{
name = top;
position = "{490, 1023}";
}
);
layerId = "5D328E58-2F78-4B3D-8E27-494E56F2C351";
name = Bold;
paths = (
{
closed = 1;
nodes = (
"249 1047 OFFCURVE",
"92 946 OFFCURVE",
"92 761 CURVE SMOOTH",
"92 557 OFFCURVE",
"186 504 OFFCURVE",
"412 452 CURVE SMOOTH",
"658 395 OFFCURVE",
"685 391 OFFCURVE",
"683 260 CURVE SMOOTH",
"681 155 OFFCURVE",
"605 126 OFFCURVE",
"478 126 CURVE SMOOTH",
"315 126 OFFCURVE",
"268 160 OFFCURVE",
"218 288 CURVE",
"63 224 LINE",
"115 33 OFFCURVE",
"280 -24 OFFCURVE",
"463 -24 CURVE SMOOTH",
"754 -24 OFFCURVE",
"866 86 OFFCURVE",
"866 286 CURVE SMOOTH",
"866 484 OFFCURVE",
"768 548 OFFCURVE",
"502 608 CURVE SMOOTH",
"338 645 OFFCURVE",
"287 661 OFFCURVE",
"290 761 CURVE SMOOTH",
"293 858 OFFCURVE",
"332 897 OFFCURVE",
"490 897 CURVE SMOOTH",
"616 897 OFFCURVE",
"669 870 OFFCURVE",
"723 774 CURVE",
"723 775 OFFCURVE",
"853 849 OFFCURVE",
"853 849 CURVE",
"780 996 OFFCURVE",
"666 1047 OFFCURVE",
"484 1047 CURVE SMOOTH"
);
}
);
width = 931;
}
);
unicode = 0073;
userData = {
anchors = (
);
b = {
};
com.typemytype.robofont.layerData = {
};
components = (
);
contours = {
};
lib = {
};
name = s;
points = {
};
segmentType = curve;
unicodes = (
);
width = 913;
x = 765;
y = 993;
};
},
{
glyphname = t;
lastChange = "2013-12-10 15:03:03 -0800";
layers = (
{
layerId = "E322F6D1-BA90-436B-BB35-51D9BD3EA9D1";
name = Regular;
paths = (
{
closed = 1;
nodes = (
"204 1350 LINE",
"198 1023 LINE",
"45 1023 LINE",
"45 926 LINE",
"198 926 LINE",
"198 325 LINE SMOOTH",
"198 79 OFFCURVE",
"279 -16 OFFCURVE",
"455 -16 CURVE SMOOTH",
"521 -16 OFFCURVE",
"590 7 OFFCURVE",
"625 29 CURVE",
"601 120 LINE",
"560 102 OFFCURVE",
"515 89 OFFCURVE",
"469 90 CURVE SMOOTH",
"385 91 OFFCURVE",
"340 138 OFFCURVE",
"340 267 CURVE SMOOTH",
"340 926 LINE",
"564 926 LINE",
"564 1023 LINE",
"340 1023 LINE",
"340 1387 LINE"
);
}
);
width = 656;
},
{
layerId = "5D328E58-2F78-4B3D-8E27-494E56F2C351";
name = Bold;
paths = (
{
closed = 1;
nodes = (
"189 1340 LINE",
"181 1023 LINE",
"37 1023 LINE",
"37 879 LINE",
"180 879 LINE",
"180 298 LINE SMOOTH",
"180 61 OFFCURVE",
"323 -16 OFFCURVE",
"484 -16 CURVE SMOOTH",
"549 -16 OFFCURVE",
"619 1 OFFCURVE",
"684 32 CURVE",
"650 173 LINE",
"602 153 OFFCURVE",
"554 141 OFFCURVE",
"519 141 CURVE SMOOTH",
"445 141 OFFCURVE",
"392 183 OFFCURVE",
"392 311 CURVE SMOOTH",
"392 879 LINE",
"617 879 LINE",
"617 1023 LINE",
"392 1023 LINE",
"392 1394 LINE"
);
}
);
width = 693;
}
);
unicode = 0074;
userData = {
com.typemytype.robofont.layerData = {
};
};
},
{
glyphname = u;
lastChange = "2013-12-10 15:06:23 -0800";
layers = (
{
anchors = (
{
name = ogonek;
position = "{898, 0}";
},
{
name = top;
position = "{540, 1023}";
}
);
layerId = "E322F6D1-BA90-436B-BB35-51D9BD3EA9D1";
name = Regular;
paths = (
{
closed = 1;
nodes = (
"821 1023 LINE",
"820 517 LINE SMOOTH",
"820 274 OFFCURVE",
"741 77 OFFCURVE",
"506 77 CURVE SMOOTH",
"310 77 OFFCURVE",
"266 202 OFFCURVE",
"266 427 CURVE SMOOTH",
"266 1023 LINE",
"124 1023 LINE",
"124 462 LINE SMOOTH",
"124 253 OFFCURVE",
"137 -24 OFFCURVE",
"477 -24 CURVE SMOOTH",
"644 -24 OFFCURVE",
"756 44 OFFCURVE",
"821 171 CURVE",
"821 0 LINE",
"963 0 LINE",
"962 1023 LINE"
);
}
);
width = 1091;
},
{
anchors = (
{
name = top;
position = "{570, 1023}";
}
);
layerId = "5D328E58-2F78-4B3D-8E27-494E56F2C351";
name = Bold;
paths = (
{
closed = 1;
nodes = (
"799 1023 LINE",
"799 532 LINE SMOOTH",
"799 328 OFFCURVE",
"738 126 OFFCURVE",
"519 126 CURVE SMOOTH",
"374 126 OFFCURVE",
"326 222 OFFCURVE",
"326 421 CURVE SMOOTH",
"326 1023 LINE",
"114 1023 LINE",
"114 428 LINE SMOOTH",
"114 220 OFFCURVE",
"155 -24 OFFCURVE",
"478 -24 CURVE SMOOTH",
"626 -24 OFFCURVE",
"729 31 OFFCURVE",
"799 129 CURVE",
"799 0 LINE",
"1011 0 LINE",
"1011 1023 LINE"
);
}
);
width = 1135;
}
);
unicode = 0075;
userData = {
anchors = (
);
b = {
};
baseGlyph = lc_main_stem;
com.typemytype.robofont.layerData = {
};
components = {
};
contours = {
};
lib = {
};
name = u;
points = {
};
segmentType = curve;
transformation = (
"-0.9999999999999996",
"-1.665334536937734e-16",
"1.665334536937734e-16",
"-0.9999999999999996",
1086,
1024
);
unicodes = (
);
width = 1086;
x = 263;
y = 421;
};
},
{
glyphname = v;
lastChange = "2013-12-10 07:01:58 -0800";
layers = (
{
layerId = "E322F6D1-BA90-436B-BB35-51D9BD3EA9D1";
name = Regular;
paths = (
{
closed = 1;
nodes = (
"788 1023 LINE",
"476 174 LINE",
"167 1023 LINE",
"23 1023 LINE",
"406 0 LINE",
"532 0 LINE",
"926 1023 LINE"
);
}
);
width = 952;
},
{
layerId = "5D328E58-2F78-4B3D-8E27-494E56F2C351";
name = Bold;
paths = (
{
closed = 1;
nodes = (
"744 1023 LINE",
"482 271 LINE",
"225 1023 LINE",
"12 1023 LINE",
"381 0 LINE",
"559 0 LINE",
"947 1023 LINE"
);
}
);
width = 959;
}
);
unicode = 0076;
userData = {
com.typemytype.robofont.layerData = {
};
};
},
{
glyphname = w;
lastChange = "2013-12-10 07:01:58 -0800";
layers = (
{
anchors = (
{
name = top;
position = "{755, 1023}";
}
);
layerId = "E322F6D1-BA90-436B-BB35-51D9BD3EA9D1";
name = Regular;
paths = (
{
closed = 1;
nodes = (
"1323 1023 LINE",
"1061 177 LINE",
"791 1023 LINE",
"705 1023 LINE",
"419 177 LINE",
"173 1023 LINE",
"27 1023 LINE",
"350 0 LINE",
"475 0 LINE",
"742 792 LINE",
"991 0 LINE",
"1117 0 LINE",
"1461 1023 LINE"
);
}
);
width = 1487;
},
{
anchors = (
{
name = top;
position = "{752, 1023}";
}
);
layerId = "5D328E58-2F78-4B3D-8E27-494E56F2C351";
name = Bold;
paths = (
{
closed = 1;
nodes = (
"1294 1023 LINE",
"1067 271 LINE",
"811 1023 LINE",
"699 1023 LINE",
"436 271 LINE",
"214 1023 LINE",
"-7 1023 LINE",
"335 0 LINE",
"514 0 LINE",
"746 657 LINE",
"967 0 LINE",
"1145 0 LINE",
"1503 1023 LINE"
);
}
);
width = 1499;
}
);
unicode = 0077;
userData = {
com.typemytype.robofont.layerData = {
};
};
},
{
glyphname = x;
lastChange = "2013-12-10 07:01:58 -0800";
layers = (
{
layerId = "E322F6D1-BA90-436B-BB35-51D9BD3EA9D1";
name = Regular;
paths = (
{
closed = 1;
nodes = (
"773 1023 LINE",
"486 616 LINE",
"188 1023 LINE",
"32 1023 LINE",
"405 515 LINE",
"31 0 LINE",
"184 0 LINE",
"479 414 LINE",
"782 0 LINE",
"938 0 LINE",
"559 517 LINE",
"926 1023 LINE"
);
}
);
width = 966;
},
{
layerId = "5D328E58-2F78-4B3D-8E27-494E56F2C351";
name = Bold;
paths = (
{
closed = 1;
nodes = (
"756 1023 LINE",
"501 656 LINE",
"232 1023 LINE",
"-1 1023 LINE",
"376 508 LINE",
"5 0 LINE",
"229 0 LINE",
"486 359 LINE",
"749 0 LINE",
"982 0 LINE",
"609 509 LINE",
"980 1023 LINE"
);
}
);
width = 979;
}
);
unicode = 0078;
userData = {
anchors = (
);
b = {
};
com.typemytype.robofont.layerData = {
};
components = (
);
contours = (
);
lib = {
};
name = x;
unicodes = (
);
width = 966;
};
},
{
glyphname = y;
lastChange = "2013-12-10 15:49:28 -0800";
layers = (
{
anchors = (
{
name = top;
position = "{492, 1023}";
}
);
layerId = "E322F6D1-BA90-436B-BB35-51D9BD3EA9D1";
name = Regular;
paths = (
{
closed = 1;
nodes = (
"786 1023 LINE",
"489 211 LINE",
"191 1023 LINE",
"45 1023 LINE",
"417 64 LINE",
"397 4 LINE SMOOTH",
"344 -155 OFFCURVE",
"293 -199 OFFCURVE",
"178 -199 CURVE SMOOTH",
"152 -199 OFFCURVE",
"124 -196 OFFCURVE",
"91 -191 CURVE",
"75 -306 LINE",
"112 -316 OFFCURVE",
"147 -319 OFFCURVE",
"180 -320 CURVE SMOOTH",
"396 -329 OFFCURVE",
"466 -191 OFFCURVE",
"575 97 CURVE SMOOTH",
"926 1023 LINE"
);
}
);
width = 974;
},
{
anchors = (
{
name = top;
position = "{502, 1023}";
}
);
layerId = "5D328E58-2F78-4B3D-8E27-494E56F2C351";
name = Bold;
paths = (
{
closed = 1;
nodes = (
"765 1023 LINE",
"505 353 LINE",
"241 1023 LINE",
"23 1023 LINE",
"396 135 LINE",
"383 94 LINE SMOOTH",
"322 -98 OFFCURVE",
"255 -135 OFFCURVE",
"140 -135 CURVE SMOOTH",
"122 -135 OFFCURVE",
"101 -132 OFFCURVE",
"79 -129 CURVE",
"54 -302 LINE",
"91 -312 OFFCURVE",
"130 -317 OFFCURVE",
"163 -317 CURVE SMOOTH",
"381 -317 OFFCURVE",
"484 -199 OFFCURVE",
"591 68 CURVE SMOOTH",
"975 1023 LINE"
);
}
);
width = 990;
}
);
unicode = 0079;
userData = {
anchors = (
);
b = {
};
com.typemytype.robofont.layerData = {
};
components = (
);
contours = (
);
lib = {
};
name = y;
unicodes = (
);
width = 971;
};
},
{
glyphname = z;
lastChange = "2013-12-10 07:01:58 -0800";
layers = (
{
anchors = (
{
name = top;
position = "{453, 1023}";
}
);
layerId = "E322F6D1-BA90-436B-BB35-51D9BD3EA9D1";
name = Regular;
paths = (
{
closed = 1;
nodes = (
"86 1023 LINE",
"86 919 LINE",
"653 919 LINE",
"66 94 LINE",
"66 0 LINE",
"820 0 LINE",
"820 103 LINE",
"227 103 LINE",
"822 928 LINE",
"822 1023 LINE"
);
}
);
width = 879;
},
{
anchors = (
{
name = top;
position = "{485, 1023}";
}
);
layerId = "5D328E58-2F78-4B3D-8E27-494E56F2C351";
name = Bold;
paths = (
{
closed = 1;
nodes = (
"86 1023 LINE",
"86 870 LINE",
"587 870 LINE",
"62 144 LINE",
"62 0 LINE",
"834 0 LINE",
"834 152 LINE",
"299 152 LINE",
"836 878 LINE",
"836 1023 LINE"
);
}
);
width = 878;
}
);
unicode = 007A;
userData = {
com.typemytype.robofont.layerData = {
};
};
},
{
glyphname = ordfeminine;
lastChange = "2013-12-10 07:01:58 -0800";
layers = (
{
layerId = "E322F6D1-BA90-436B-BB35-51D9BD3EA9D1";
name = Regular;
paths = (
{
closed = 1;
nodes = (
"398 1474 OFFCURVE",
"260 1422 OFFCURVE",
"185 1340 CURVE",
"185 1340 OFFCURVE",
"263 1270 OFFCURVE",
"263 1269 CURVE",
"320 1325 OFFCURVE",
"410 1373 OFFCURVE",
"497 1373 CURVE SMOOTH",
"592 1373 OFFCURVE",
"674 1321 OFFCURVE",
"674 1176 CURVE SMOOTH",
"674 1110 LINE",
"577 1098 LINE SMOOTH",
"336 1068 OFFCURVE",
"157 1018 OFFCURVE",
"157 804 CURVE SMOOTH",
"157 656 OFFCURVE",
"272 583 OFFCURVE",
"398 583 CURVE SMOOTH",
"527 583 OFFCURVE",
"605 630 OFFCURVE",
"676 693 CURVE",
"690 603 LINE",
"797 603 LINE",
"797 1147 LINE SMOOTH",
"797 1365 OFFCURVE",
"689 1474 OFFCURVE",
"495 1474 CURVE SMOOTH"
);
},
{
closed = 1;
nodes = (
"674 771 LINE",
"599 704 OFFCURVE",
"475 653 OFFCURVE",
"394 664 CURVE SMOOTH",
"295 677 OFFCURVE",
"265 745 OFFCURVE",
"271 830 CURVE SMOOTH",
"278 934 OFFCURVE",
"359 982 OFFCURVE",
"572 1009 CURVE SMOOTH",
"674 1022 LINE"
);
}
);
width = 946;
},
{
layerId = "5D328E58-2F78-4B3D-8E27-494E56F2C351";
name = Bold;
paths = (
{
closed = 1;
nodes = (
"398 1474 OFFCURVE",
"260 1422 OFFCURVE",
"185 1340 CURVE",
"185 1340 OFFCURVE",
"300 1234 OFFCURVE",
"300 1233 CURVE",
"357 1289 OFFCURVE",
"423 1325 OFFCURVE",
"497 1325 CURVE SMOOTH",
"590 1325 OFFCURVE",
"635 1266 OFFCURVE",
"635 1161 CURVE SMOOTH",
"635 1111 LINE",
"548 1105 LINE SMOOTH",
"321 1089 OFFCURVE",
"145 1018 OFFCURVE",
"145 804 CURVE SMOOTH",
"145 656 OFFCURVE",
"277 577 OFFCURVE",
"416 583 CURVE SMOOTH",
"523 588 OFFCURVE",
"596 644 OFFCURVE",
"640 700 CURVE",
"659 603 LINE",
"819 603 LINE",
"819 1140 LINE SMOOTH",
"819 1358 OFFCURVE",
"695 1474 OFFCURVE",
"495 1474 CURVE SMOOTH"
);
},
{
closed = 1;
nodes = (
"635 814 LINE",
"591 760 OFFCURVE",
"500 693 OFFCURVE",
"418 700 CURVE SMOOTH",
"341 707 OFFCURVE",
"304 755 OFFCURVE",
"314 832 CURVE SMOOTH",
"325 914 OFFCURVE",
"365 961 OFFCURVE",
"549 976 CURVE SMOOTH",
"635 983 LINE"
);
}
);
width = 946;
}
);
unicode = 00AA;
userData = {
com.typemytype.robofont.layerData = {
};
};
},
{
glyphname = ordmasculine;
lastChange = "2013-12-10 07:01:58 -0800";
layers = (
{
layerId = "E322F6D1-BA90-436B-BB35-51D9BD3EA9D1";
name = Regular;
paths = (
{
closed = 1;
nodes = (
"305 1474 OFFCURVE",
"139 1330 OFFCURVE",
"139 1028 CURVE SMOOTH",
"139 737 OFFCURVE",
"295 583 OFFCURVE",
"516 583 CURVE SMOOTH",
"737 583 OFFCURVE",
"893 738 OFFCURVE",
"893 1031 CURVE SMOOTH",
"893 1331 OFFCURVE",
"726 1474 OFFCURVE",
"517 1474 CURVE SMOOTH"
);
},
{
closed = 1;
nodes = (
"690 1376 OFFCURVE",
"763 1204 OFFCURVE",
"763 1029 CURVE SMOOTH",
"763 854 OFFCURVE",
"690 682 OFFCURVE",
"517 682 CURVE SMOOTH",
"341 682 OFFCURVE",
"270 855 OFFCURVE",
"270 1031 CURVE SMOOTH",
"270 1204 OFFCURVE",
"341 1376 OFFCURVE",
"516 1376 CURVE SMOOTH"
);
}
);
width = 1000;
},
{
layerId = "5D328E58-2F78-4B3D-8E27-494E56F2C351";
name = Bold;
paths = (
{
closed = 1;
nodes = (
"285 1474 OFFCURVE",
"119 1340 OFFCURVE",
"119 1028 CURVE SMOOTH",
"119 727 OFFCURVE",
"275 583 OFFCURVE",
"516 583 CURVE SMOOTH",
"757 583 OFFCURVE",
"913 728 OFFCURVE",
"913 1031 CURVE SMOOTH",
"913 1341 OFFCURVE",
"746 1474 OFFCURVE",
"517 1474 CURVE SMOOTH"
);
},
{
closed = 1;
nodes = (
"650 1330 OFFCURVE",
"716 1214 OFFCURVE",
"716 1029 CURVE SMOOTH",
"716 844 OFFCURVE",
"650 730 OFFCURVE",
"517 730 CURVE SMOOTH",
"381 730 OFFCURVE",
"317 845 OFFCURVE",
"317 1031 CURVE SMOOTH",
"317 1214 OFFCURVE",
"381 1330 OFFCURVE",
"516 1330 CURVE SMOOTH"
);
}
);
width = 1000;
}
);
unicode = 00BA;
userData = {
anchors = (
);
b = {
};
com.typemytype.robofont.layerData = {
};
components = (
);
contours = (
);
lib = {
};
name = ordmasculine;
unicodes = (
);
width = 1000;
};
},
{
glyphname = germandbls;
lastChange = "2013-12-10 07:01:58 -0800";
layers = (
{
layerId = "E322F6D1-BA90-436B-BB35-51D9BD3EA9D1";
name = Regular;
paths = (
{
closed = 1;
nodes = (
"350 1492 OFFCURVE",
"130 1373 OFFCURVE",
"130 1151 CURVE SMOOTH",
"130 0 LINE",
"276 0 LINE",
"276 1140 LINE SMOOTH",
"276 1303 OFFCURVE",
"420 1388 OFFCURVE",
"565 1388 CURVE SMOOTH",
"721 1388 OFFCURVE",
"804 1322 OFFCURVE",
"804 1209 CURVE SMOOTH",
"804 996 OFFCURVE",
"445 1001 OFFCURVE",
"441 816 CURVE SMOOTH",
"436 586 OFFCURVE",
"984 572 OFFCURVE",
"975 334 CURVE SMOOTH",
"970 206 OFFCURVE",
"895 117 OFFCURVE",
"441 117 CURVE",
"441 0 LINE",
"481 0 LINE SMOOTH",
"1022 0 OFFCURVE",
"1121 111 OFFCURVE",
"1121 336 CURVE SMOOTH",
"1121 654 OFFCURVE",
"580 685 OFFCURVE",
"585 823 CURVE SMOOTH",
"587 890 OFFCURVE",
"940 949 OFFCURVE",
"940 1203 CURVE SMOOTH",
"940 1360 OFFCURVE",
"829 1492 OFFCURVE",
"568 1492 CURVE SMOOTH"
);
}
);
width = 1199;
},
{
layerId = "5D328E58-2F78-4B3D-8E27-494E56F2C351";
name = Bold;
paths = (
{
closed = 1;
nodes = (
"330 1496 OFFCURVE",
"103 1373 OFFCURVE",
"103 1151 CURVE SMOOTH",
"103 0 LINE",
"324 0 LINE",
"324 1135 LINE SMOOTH",
"324 1258 OFFCURVE",
"420 1339 OFFCURVE",
"565 1337 CURVE SMOOTH",
"708 1335 OFFCURVE",
"756 1282 OFFCURVE",
"756 1209 CURVE SMOOTH",
"756 996 OFFCURVE",
"431 1041 OFFCURVE",
"431 816 CURVE SMOOTH",
"431 569 OFFCURVE",
"907 551 OFFCURVE",
"903 335 CURVE SMOOTH",
"900 199 OFFCURVE",
"736 176 OFFCURVE",
"441 176 CURVE",
"441 0 LINE",
"481 0 LINE SMOOTH",
"1043 0 OFFCURVE",
"1122 117 OFFCURVE",
"1125 336 CURVE SMOOTH",
"1129 654 OFFCURVE",
"649 725 OFFCURVE",
"649 823 CURVE SMOOTH",
"649 880 OFFCURVE",
"964 926 OFFCURVE",
"960 1203 CURVE SMOOTH",
"958 1370 OFFCURVE",
"833 1487 OFFCURVE",
"568 1492 CURVE SMOOTH"
);
}
);
width = 1199;
}
);
unicode = 00DF;
userData = {
anchors = (
);
b = {
};
com.typemytype.robofont.layerData = {
};
components = (
);
contours = (
);
lib = {
};
name = germandbls;
unicodes = (
);
width = 1199;
};
},
{
glyphname = ae;
lastChange = "2013-12-10 07:02:29 -0800";
layers = (
{
layerId = "E322F6D1-BA90-436B-BB35-51D9BD3EA9D1";
name = Regular;
paths = (
{
closed = 1;
nodes = (
"1047 1044 OFFCURVE",
"912 969 OFFCURVE",
"848 814 CURVE",
"804 977 OFFCURVE",
"695 1044 OFFCURVE",
"518 1044 CURVE SMOOTH",
"366 1044 OFFCURVE",
"247 1006 OFFCURVE",
"133 927 CURVE",
"187 840 LINE",
"274 896 OFFCURVE",
"370 948 OFFCURVE",
"530 942 CURVE SMOOTH",
"723 934 OFFCURVE",
"757 841 OFFCURVE",
"760 584 CURVE",
"563 581 LINE SMOOTH",
"254 576 OFFCURVE",
"73 503 OFFCURVE",
"84 251 CURVE SMOOTH",
"92 58 OFFCURVE",
"241 -24 OFFCURVE",
"429 -24 CURVE SMOOTH",
"635 -24 OFFCURVE",
"777 50 OFFCURVE",
"831 220 CURVE",
"886 46 OFFCURVE",
"1053 -24 OFFCURVE",
"1195 -24 CURVE SMOOTH",
"1379 -23 OFFCURVE",
"1515 83 OFFCURVE",
"1570 234 CURVE",
"1474 276 LINE",
"1444 204 OFFCURVE",
"1374 78 OFFCURVE",
"1198 78 CURVE SMOOTH",
"989 78 OFFCURVE",
"906 250 OFFCURVE",
"900 494 CURVE",
"1584 506 LINE",
"1586 523 OFFCURVE",
"1587 563 OFFCURVE",
"1587 572 CURVE SMOOTH",
"1587 844 OFFCURVE",
"1478 1044 OFFCURVE",
"1193 1044 CURVE SMOOTH"
);
},
{
closed = 1;
nodes = (
"760 414 LINE SMOOTH",
"760 154 OFFCURVE",
"642 78 OFFCURVE",
"440 78 CURVE SMOOTH",
"313 78 OFFCURVE",
"233 134 OFFCURVE",
"226 256 CURVE SMOOTH",
"215 436 OFFCURVE",
"351 477 OFFCURVE",
"570 482 CURVE SMOOTH",
"760 485 LINE"
);
},
{
closed = 1;
nodes = (
"1375 942 OFFCURVE",
"1454 832 OFFCURVE",
"1464 600 CURVE",
"901 590 LINE",
"909 802 OFFCURVE",
"1020 942 OFFCURVE",
"1196 942 CURVE SMOOTH"
);
}
);
width = 1667;
},
{
layerId = "5D328E58-2F78-4B3D-8E27-494E56F2C351";
name = Bold;
paths = (
{
closed = 1;
nodes = (
"1053 1047 OFFCURVE",
"918 992 OFFCURVE",
"848 857 CURVE",
"796 1012 OFFCURVE",
"636 1047 OFFCURVE",
"518 1047 CURVE SMOOTH",
"366 1047 OFFCURVE",
"242 1011 OFFCURVE",
"128 932 CURVE",
"211 799 LINE",
"298 855 OFFCURVE",
"411 902 OFFCURVE",
"533 890 CURVE SMOOTH",
"689 875 OFFCURVE",
"716 787 OFFCURVE",
"719 610 CURVE",
"600 608 LINE SMOOTH",
"255 602 OFFCURVE",
"58 500 OFFCURVE",
"74 246 CURVE SMOOTH",
"86 53 OFFCURVE",
"254 -24 OFFCURVE",
"429 -24 CURVE SMOOTH",
"589 -24 OFFCURVE",
"727 17 OFFCURVE",
"826 177 CURVE",
"891 32 OFFCURVE",
"1030 -24 OFFCURVE",
"1195 -24 CURVE SMOOTH",
"1369 -22 OFFCURVE",
"1515 83 OFFCURVE",
"1570 234 CURVE",
"1422 293 LINE",
"1399 240 OFFCURVE",
"1334 132 OFFCURVE",
"1191 133 CURVE SMOOTH",
"1005 135 OFFCURVE",
"940 248 OFFCURVE",
"933 476 CURVE",
"1594 488 LINE",
"1596 505 OFFCURVE",
"1597 563 OFFCURVE",
"1597 572 CURVE SMOOTH",
"1597 844 OFFCURVE",
"1476 1047 OFFCURVE",
"1191 1047 CURVE SMOOTH"
);
},
{
closed = 1;
nodes = (
"721 368 LINE SMOOTH",
"721 208 OFFCURVE",
"599 124 OFFCURVE",
"444 132 CURVE SMOOTH",
"348 137 OFFCURVE",
"296 182 OFFCURVE",
"288 251 CURVE SMOOTH",
"272 398 OFFCURVE",
"401 453 OFFCURVE",
"620 458 CURVE SMOOTH",
"721 460 LINE"
);
},
{
closed = 1;
nodes = (
"1344 891 OFFCURVE",
"1395 787 OFFCURVE",
"1407 625 CURVE",
"936 616 LINE",
"950 763 OFFCURVE",
"1023 891 OFFCURVE",
"1187 891 CURVE SMOOTH"
);
}
);
width = 1667;
}
);
unicode = 00E6;
userData = {
anchors = (
);
b = {
};
com.typemytype.robofont.layerData = {
};
components = (
);
contours = {
};
lib = {
};
name = ae;
points = {
};
segmentType = curve;
unicodes = (
);
width = 1667;
x = 771;
y = 158;
};
},
{
glyphname = eth;
lastChange = "2013-12-10 07:01:58 -0800";
layers = (
{
layerId = "E322F6D1-BA90-436B-BB35-51D9BD3EA9D1";
name = Regular;
paths = (
{
closed = 1;
nodes = (
"169 1338 LINE",
"337 1338 OFFCURVE",
"464 1292 OFFCURVE",
"559 1223 CURVE",
"381 1107 LINE",
"434 1032 LINE",
"631 1161 LINE",
"743 1046 OFFCURVE",
"794 895 OFFCURVE",
"810 772 CURVE",
"730 867 OFFCURVE",
"617 909 OFFCURVE",
"503 908 CURVE SMOOTH",
"294 906 OFFCURVE",
"94 746 OFFCURVE",
"94 454 CURVE SMOOTH",
"94 208 OFFCURVE",
"231 -24 OFFCURVE",
"518 -24 CURVE SMOOTH",
"835 -24 OFFCURVE",
"959 213 OFFCURVE",
"959 529 CURVE SMOOTH",
"959 775 OFFCURVE",
"903 1045 OFFCURVE",
"729 1225 CURVE",
"920 1349 LINE",
"867 1424 LINE",
"658 1288 LINE",
"541 1377 OFFCURVE",
"381 1432 OFFCURVE",
"169 1432 CURVE"
);
},
{
closed = 1;
nodes = (
"629 798 OFFCURVE",
"724 748 OFFCURVE",
"816 650 CURVE",
"822 624 OFFCURVE",
"823 535 OFFCURVE",
"823 511 CURVE SMOOTH",
"823 262 OFFCURVE",
"736 85 OFFCURVE",
"525 85 CURVE SMOOTH",
"360 85 OFFCURVE",
"236 216 OFFCURVE",
"236 441 CURVE SMOOTH",
"236 670 OFFCURVE",
"366 798 OFFCURVE",
"523 798 CURVE SMOOTH"
);
}
);
width = 1053;
},
{
layerId = "5D328E58-2F78-4B3D-8E27-494E56F2C351";
name = Bold;
paths = (
{
closed = 1;
nodes = (
"169 1293 LINE",
"311 1293 OFFCURVE",
"425 1257 OFFCURVE",
"515 1199 CURVE",
"374 1107 LINE",
"452 997 LINE",
"622 1108 LINE",
"713 1010 OFFCURVE",
"762 886 OFFCURVE",
"776 774 CURVE",
"711 864 OFFCURVE",
"611 908 OFFCURVE",
"503 908 CURVE SMOOTH",
"282 908 OFFCURVE",
"64 746 OFFCURVE",
"64 454 CURVE SMOOTH",
"64 208 OFFCURVE",
"219 -21 OFFCURVE",
"518 -24 CURVE SMOOTH",
"847 -27 OFFCURVE",
"991 213 OFFCURVE",
"991 529 CURVE SMOOTH",
"991 774 OFFCURVE",
"931 1027 OFFCURVE",
"768 1203 CURVE",
"938 1314 LINE",
"860 1424 LINE",
"662 1295 LINE",
"541 1380 OFFCURVE",
"379 1432 OFFCURVE",
"169 1432 CURVE"
);
},
{
closed = 1;
nodes = (
"619 744 OFFCURVE",
"690 697 OFFCURVE",
"782 596 CURVE",
"788 570 OFFCURVE",
"789 535 OFFCURVE",
"789 511 CURVE SMOOTH",
"789 308 OFFCURVE",
"710 127 OFFCURVE",
"518 138 CURVE SMOOTH",
"385 146 OFFCURVE",
"276 253 OFFCURVE",
"276 444 CURVE SMOOTH",
"276 624 OFFCURVE",
"381 744 OFFCURVE",
"523 744 CURVE SMOOTH"
);
}
);
width = 1053;
}
);
unicode = 00F0;
userData = {
anchors = (
);
b = {
};
com.typemytype.robofont.layerData = {
};
components = (
);
contours = {
};
lib = {
};
name = eth;
points = {
};
segmentType = line;
unicodes = (
);
width = 1053;
x = 421;
y = 1026;
};
},
{
glyphname = oslash;
lastChange = "2013-12-10 16:02:32 -0800";
layers = (
{
components = (
{
name = o;
transform = "{1, 0, 0, 1, 0, 0}";
}
);
layerId = "E322F6D1-BA90-436B-BB35-51D9BD3EA9D1";
name = Regular;
paths = (
{
closed = 1;
nodes = (
"181 -159 LINE",
"254 -197 LINE",
"906 1178 LINE",
"834 1216 LINE"
);
}
);
width = 1104;
},
{
components = (
{
name = o;
transform = "{1, 0, 0, 1, 0, 0}";
}
);
layerId = "5D328E58-2F78-4B3D-8E27-494E56F2C351";
name = Bold;
paths = (
{
closed = 1;
nodes = (
"182 -143 LINE",
"291 -200 LINE",
"942 1175 LINE",
"835 1232 LINE"
);
}
);
width = 1104;
}
);
leftKerningGroup = _o_left;
rightKerningGroup = _o_right;
unicode = 00F8;
userData = {
anchors = (
);
b = {
};
com.typemytype.robofont.layerData = {
};
components = (
);
contours = (
);
lib = {
};
name = oslash;
unicodes = (
);
width = 1104;
};
},
{
glyphname = thorn;
lastChange = "2013-12-10 07:01:58 -0800";
layers = (
{
layerId = "E322F6D1-BA90-436B-BB35-51D9BD3EA9D1";
name = Regular;
paths = (
{
closed = 1;
nodes = (
"131 1464 LINE",
"131 -394 LINE",
"273 -378 LINE",
"273 174 LINE",
"327 52 OFFCURVE",
"417 -24 OFFCURVE",
"576 -24 CURVE SMOOTH",
"817 -24 OFFCURVE",
"967 217 OFFCURVE",
"967 520 CURVE SMOOTH",
"967 812 OFFCURVE",
"848 1044 OFFCURVE",
"573 1044 CURVE SMOOTH",
"431 1044 OFFCURVE",
"325 972 OFFCURVE",
"272 834 CURVE",
"272 1464 LINE"
);
},
{
closed = 1;
nodes = (
"708 942 OFFCURVE",
"821 810 OFFCURVE",
"821 521 CURVE SMOOTH",
"821 243 OFFCURVE",
"724 78 OFFCURVE",
"559 78 CURVE SMOOTH",
"351 78 OFFCURVE",
"273 294 OFFCURVE",
"273 519 CURVE SMOOTH",
"273 803 OFFCURVE",
"396 942 OFFCURVE",
"557 942 CURVE SMOOTH"
);
}
);
width = 1058;
},
{
layerId = "5D328E58-2F78-4B3D-8E27-494E56F2C351";
name = Bold;
paths = (
{
closed = 1;
nodes = (
"82 1464 LINE",
"82 -394 LINE",
"294 -372 LINE",
"294 94 LINE",
"351 34 OFFCURVE",
"448 -24 OFFCURVE",
"587 -24 CURVE SMOOTH",
"853 -24 OFFCURVE",
"1014 217 OFFCURVE",
"1014 520 CURVE SMOOTH",
"1014 842 OFFCURVE",
"866 1047 OFFCURVE",
"580 1047 CURVE SMOOTH",
"438 1047 OFFCURVE",
"351 990 OFFCURVE",
"293 932 CURVE",
"293 1464 LINE"
);
},
{
closed = 1;
nodes = (
"690 893 OFFCURVE",
"796 780 OFFCURVE",
"796 521 CURVE SMOOTH",
"796 293 OFFCURVE",
"736 128 OFFCURVE",
"571 128 CURVE SMOOTH",
"407 128 OFFCURVE",
"297 230 OFFCURVE",
"294 519 CURVE SMOOTH",
"291 816 OFFCURVE",
"426 897 OFFCURVE",
"557 895 CURVE SMOOTH"
);
}
);
width = 1058;
}
);
unicode = 00FE;
userData = {
anchors = (
);
b = {
};
com.typemytype.robofont.layerData = {
};
components = (
);
contours = (
);
lib = {
};
name = thorn;
unicodes = (
);
width = 1058;
};
},
{
glyphname = dcroat;
lastChange = "2013-12-10 07:03:09 -0800";
layers = (
{
components = (
{
name = d;
transform = "{1, 0, 0, 1, 0, 0}";
}
);
layerId = "E322F6D1-BA90-436B-BB35-51D9BD3EA9D1";
name = Regular;
paths = (
{
closed = 1;
nodes = (
"574 1287 LINE",
"574 1201 LINE",
"1094 1201 LINE",
"1094 1287 LINE"
);
}
);
width = 1137;
},
{
components = (
{
name = d;
transform = "{1, 0, 0, 1, 0, 0}";
}
);
layerId = "5D328E58-2F78-4B3D-8E27-494E56F2C351";
name = Bold;
paths = (
{
closed = 1;
nodes = (
"1139 1304 LINE",
"589 1304 LINE",
"589 1176 LINE",
"1139 1176 LINE"
);
}
);
width = 1137;
}
);
unicode = 0111;
userData = {
anchors = (
);
b = {
};
com.typemytype.robofont.layerData = {
};
components = (
);
contours = (
);
lib = {
};
name = dcroat;
unicodes = (
);
width = 1137;
};
},
{
glyphname = hbar;
lastChange = "2013-12-10 07:03:05 -0800";
layers = (
{
components = (
{
name = h;
transform = "{1, 0, 0, 1, 0, 0}";
}
);
layerId = "E322F6D1-BA90-436B-BB35-51D9BD3EA9D1";
name = Regular;
paths = (
{
closed = 1;
nodes = (
"0 1287 LINE",
"0 1201 LINE",
"520 1201 LINE",
"520 1287 LINE"
);
}
);
width = 1117;
},
{
components = (
{
name = h;
transform = "{1, 0, 0, 1, 0, 0}";
}
);
layerId = "5D328E58-2F78-4B3D-8E27-494E56F2C351";
name = Bold;
paths = (
{
closed = 1;
nodes = (
"538 1304 LINE",
"-12 1304 LINE",
"-12 1176 LINE",
"538 1176 LINE"
);
}
);
width = 1117;
}
);
unicode = 0127;
userData = {
anchors = (
);
b = {
};
com.typemytype.robofont.layerData = {
};
components = (
);
contours = (
);
lib = {
};
name = hbar;
unicodes = (
);
width = 1117;
};
},
{
glyphname = dotlessi;
lastChange = "2013-12-10 07:01:58 -0800";
layers = (
{
anchors = (
{
name = top;
position = "{215, 1023}";
}
);
layerId = "E322F6D1-BA90-436B-BB35-51D9BD3EA9D1";
name = Regular;
paths = (
{
closed = 1;
nodes = (
"140 1023 LINE",
"140 0 LINE",
"282 0 LINE",
"282 1023 LINE"
);
}
);
width = 411;
},
{
anchors = (
{
name = top;
position = "{248, 1023}";
}
);
layerId = "5D328E58-2F78-4B3D-8E27-494E56F2C351";
name = Bold;
paths = (
{
closed = 1;
nodes = (
"137 1023 LINE",
"137 0 LINE",
"349 0 LINE",
"349 1023 LINE"
);
}
);
width = 456;
}
);
unicode = 0131;
},
{
glyphname = kgreenlandic;
lastChange = "2013-12-10 07:02:41 -0800";
layers = (
{
components = (
{
name = lc_main_stem;
transform = "{1, 0, 0, 1, 0, 0}";
}
);
layerId = "E322F6D1-BA90-436B-BB35-51D9BD3EA9D1";
name = Regular;
paths = (
{
closed = 1;
nodes = (
"797 1023 LINE",
"203 372 LINE",
"203 231 LINE",
"490 527 LINE",
"858 0 LINE",
"1018 0 LINE",
"585 604 LINE",
"959 1023 LINE"
);
}
);
width = 1010;
},
{
components = (
{
name = lc_main_stem;
transform = "{1, 0, 0, 1, 0, 0}";
}
);
layerId = "5D328E58-2F78-4B3D-8E27-494E56F2C351";
name = Bold;
paths = (
{
closed = 1;
nodes = (
"496 470 LINE",
"825 0 LINE",
"1066 0 LINE",
"639 586 LINE",
"1011 1023 LINE",
"767 1023 LINE",
"207 382 LINE",
"207 172 LINE"
);
}
);
width = 1010;
}
);
unicode = 0138;
userData = {
anchors = (
);
b = {
};
com.typemytype.robofont.layerData = {
};
components = (
);
contours = {
};
lib = {
};
name = kgreenlandic;
points = {
};
segmentType = curve;
unicodes = (
);
width = 1010;
x = 271;
y = 446;
};
},
{
glyphname = lslash;
lastChange = "2013-12-10 07:02:59 -0800";
layers = (
{
components = (
{
name = l;
transform = "{1, 0, 0, 1, 0, 0}";
}
);
layerId = "E322F6D1-BA90-436B-BB35-51D9BD3EA9D1";
name = Regular;
paths = (
{
closed = 1;
nodes = (
"-60 787 LINE",
"-60 669 LINE",
"457 914 LINE",
"457 1032 LINE"
);
}
);
width = 421;
},
{
components = (
{
name = l;
transform = "{1, 0, 0, 1, 0, 0}";
}
);
layerId = "5D328E58-2F78-4B3D-8E27-494E56F2C351";
name = Bold;
paths = (
{
closed = 1;
nodes = (
"507 1032 LINE",
"-39 787 LINE",
"-39 612 LINE",
"507 857 LINE"
);
}
);
width = 421;
}
);
unicode = 0142;
userData = {
anchors = (
);
b = {
};
com.typemytype.robofont.layerData = {
};
components = (
);
contours = (
);
lib = {
};
name = lslash;
unicodes = (
);
width = 421;
};
},
{
glyphname = oe;
lastChange = "2013-12-10 16:02:09 -0800";
layers = (
{
anchors = (
{
name = ogonek;
position = "{1719, 0}";
},
{
name = top;
position = "{1619, 1023}";
}
);
layerId = "E322F6D1-BA90-436B-BB35-51D9BD3EA9D1";
name = Regular;
paths = (
{
closed = 1;
nodes = (
"1701 834 OFFCURVE",
"1579 1044 OFFCURVE",
"1294 1044 CURVE SMOOTH",
"1117 1044 OFFCURVE",
"979 934 OFFCURVE",
"918 782 CURVE",
"863 943 OFFCURVE",
"730 1044 OFFCURVE",
"558 1044 CURVE SMOOTH",
"293 1044 OFFCURVE",
"118 860 OFFCURVE",
"118 510 CURVE SMOOTH",
"118 160 OFFCURVE",
"293 -24 OFFCURVE",
"558 -24 CURVE SMOOTH",
"731 -24 OFFCURVE",
"858 74 OFFCURVE",
"919 235 CURVE",
"988 79 OFFCURVE",
"1112 -24 OFFCURVE",
"1304 -24 CURVE SMOOTH",
"1465 -23 OFFCURVE",
"1630 68 OFFCURVE",
"1677 246 CURVE",
"1570 270 LINE",
"1535 160 OFFCURVE",
"1441 78 OFFCURVE",
"1301 78 CURVE SMOOTH",
"1089 78 OFFCURVE",
"996 269 OFFCURVE",
"996 500 CURVE",
"1698 500 LINE",
"1700 517 OFFCURVE",
"1701 553 OFFCURVE",
"1701 562 CURVE SMOOTH"
);
},
{
closed = 1;
nodes = (
"324 77 OFFCURVE",
"263 299 OFFCURVE",
"263 510 CURVE SMOOTH",
"263 721 OFFCURVE",
"324 943 OFFCURVE",
"558 943 CURVE SMOOTH",
"792 943 OFFCURVE",
"853 721 OFFCURVE",
"853 510 CURVE SMOOTH",
"853 299 OFFCURVE",
"792 77 OFFCURVE",
"558 77 CURVE SMOOTH"
);
},
{
closed = 1;
nodes = (
"996 594 LINE",
"1012 782 OFFCURVE",
"1107 942 OFFCURVE",
"1293 942 CURVE SMOOTH",
"1489 942 OFFCURVE",
"1565 809 OFFCURVE",
"1568 594 CURVE"
);
}
);
width = 2103;
},
{
anchors = (
{
name = ogonek;
position = "{1752, 0}";
},
{
name = top;
position = "{1649, 1023}";
}
);
hints = (
{
horizontal = 1;
origin = "{0, 20}";
target = "{0, 27}";
},
{
horizontal = 1;
origin = "{0, 30}";
target = "{2, 0}";
},
{
horizontal = 1;
origin = "{2, 3}";
target = "{0, 2}";
},
{
origin = "{1, 8}";
target = "{0, 30}";
},
{
origin = "{2, 6}";
target = "{0, 34}";
}
);
layerId = "5D328E58-2F78-4B3D-8E27-494E56F2C351";
name = Bold;
paths = (
{
closed = 1;
nodes = (
"1677 841 OFFCURVE",
"1544 1047 OFFCURVE",
"1259 1047 CURVE SMOOTH",
"1107 1047 OFFCURVE",
"979 970 OFFCURVE",
"911 848 CURVE",
"844 974 OFFCURVE",
"707 1047 OFFCURVE",
"552 1047 CURVE SMOOTH",
"266 1047 OFFCURVE",
"88 866 OFFCURVE",
"88 512 CURVE SMOOTH",
"88 158 OFFCURVE",
"266 -24 OFFCURVE",
"552 -24 CURVE SMOOTH",
"708 -24 OFFCURVE",
"842 40 OFFCURVE",
"912 167 CURVE",
"968 57 OFFCURVE",
"1105 -24 OFFCURVE",
"1268 -24 CURVE SMOOTH",
"1465 -24 OFFCURVE",
"1612 94 OFFCURVE",
"1659 272 CURVE",
"1500 307 LINE",
"1465 212 OFFCURVE",
"1403 127 OFFCURVE",
"1265 127 CURVE SMOOTH",
"1081 127 OFFCURVE",
"1019 304 OFFCURVE",
"1016 468 CURVE",
"1674 468 LINE",
"1676 485 OFFCURVE",
"1677 559 OFFCURVE",
"1677 568 CURVE SMOOTH"
);
},
{
closed = 1;
nodes = (
"346 126 OFFCURVE",
"305 322 OFFCURVE",
"305 512 CURVE SMOOTH",
"305 702 OFFCURVE",
"346 897 OFFCURVE",
"552 897 CURVE SMOOTH",
"758 897 OFFCURVE",
"799 702 OFFCURVE",
"799 512 CURVE SMOOTH",
"799 322 OFFCURVE",
"758 126 OFFCURVE",
"552 126 CURVE SMOOTH"
);
},
{
closed = 1;
nodes = (
"1016 607 LINE",
"1021 721 OFFCURVE",
"1074 896 OFFCURVE",
"1255 896 CURVE SMOOTH",
"1417 896 OFFCURVE",
"1478 796 OFFCURVE",
"1478 607 CURVE"
);
}
);
width = 2136;
}
);
leftKerningGroup = _o_left;
unicode = 0153;
userData = {
com.typemytype.robofont.layerData = {
};
};
},
{
glyphname = uni0237;
lastChange = "2013-12-10 07:01:58 -0800";
layers = (
{
anchors = (
{
name = top;
position = "{294, 1023}";
}
);
layerId = "E322F6D1-BA90-436B-BB35-51D9BD3EA9D1";
name = Regular;
paths = (
{
closed = 1;
nodes = (
"214 1023 LINE",
"214 -91 LINE SMOOTH",
"214 -182 OFFCURVE",
"177 -207 OFFCURVE",
"118 -207 CURVE SMOOTH",
"65 -207 OFFCURVE",
"29 -189 OFFCURVE",
"2 -177 CURVE",
"-27 -284 LINE",
"13 -306 OFFCURVE",
"69 -325 OFFCURVE",
"140 -325 CURVE SMOOTH",
"322 -325 OFFCURVE",
"356 -217 OFFCURVE",
"356 -12 CURVE SMOOTH",
"356 1023 LINE"
);
}
);
width = 482;
},
{
anchors = (
{
name = top;
position = "{302, 1023}";
}
);
layerId = "5D328E58-2F78-4B3D-8E27-494E56F2C351";
name = Bold;
paths = (
{
closed = 1;
nodes = (
"195 1023 LINE",
"195 -91 LINE SMOOTH",
"195 -177 OFFCURVE",
"155 -207 OFFCURVE",
"100 -207 CURVE SMOOTH",
"64 -207 OFFCURVE",
"22 -195 OFFCURVE",
"-20 -176 CURVE",
"-61 -334 LINE",
"-13 -362 OFFCURVE",
"63 -380 OFFCURVE",
"134 -380 CURVE SMOOTH",
"323 -380 OFFCURVE",
"407 -304 OFFCURVE",
"407 -42 CURVE SMOOTH",
"407 1023 LINE"
);
}
);
width = 513;
}
);
unicode = 0237;
userData = {
anchors = (
);
b = {
};
com.typemytype.robofont.layerData = {
};
components = (
);
contours = (
);
lib = {
};
name = j;
unicodes = (
);
width = 482;
};
},
{
glyphname = mu;
lastChange = "2013-12-10 07:01:58 -0800";
layers = (
{
components = (
{
name = u;
transform = "{1, 0, 0, 1, 0, 0}";
}
);
layerId = "E322F6D1-BA90-436B-BB35-51D9BD3EA9D1";
name = Regular;
paths = (
{
closed = 1;
nodes = (
"121 1023 LINE",
"121 -224 LINE",
"263 -224 LINE",
"263 1023 LINE"
);
}
);
width = 1119;
},
{
components = (
{
name = u;
transform = "{1, 0, 0, 1, 0, 0}";
}
);
layerId = "5D328E58-2F78-4B3D-8E27-494E56F2C351";
name = Bold;
paths = (
{
closed = 1;
nodes = (
"107 1023 LINE",
"107 -224 LINE",
"319 -224 LINE",
"319 1023 LINE"
);
}
);
width = 1119;
}
);
unicode = 03BC;
userData = {
com.typemytype.robofont.layerData = {
};
};
},
{
glyphname = uni0307;
lastChange = "2013-12-10 00:09:49 -0800";
layers = (
{
layerId = "E322F6D1-BA90-436B-BB35-51D9BD3EA9D1";
name = Regular;
paths = (
{
closed = 1;
nodes = (
"270 1268 CURVE SMOOTH",
"189 1268 OFFCURVE",
"148 1331 OFFCURVE",
"148 1393 CURVE SMOOTH",
"148 1455 OFFCURVE",
"189 1517 OFFCURVE",
"270 1517 CURVE SMOOTH",
"351 1517 OFFCURVE",
"392 1455 OFFCURVE",
"392 1393 CURVE SMOOTH",
"392 1331 OFFCURVE",
"351 1268 OFFCURVE"
);
}
);
width = 539;
},
{
layerId = "5D328E58-2F78-4B3D-8E27-494E56F2C351";
name = Bold;
paths = (
{
closed = 1;
nodes = (
"270 1268 CURVE SMOOTH",
"189 1268 OFFCURVE",
"148 1331 OFFCURVE",
"148 1393 CURVE SMOOTH",
"148 1455 OFFCURVE",
"189 1517 OFFCURVE",
"270 1517 CURVE SMOOTH",
"351 1517 OFFCURVE",
"392 1455 OFFCURVE",
"392 1393 CURVE SMOOTH",
"392 1331 OFFCURVE",
"351 1268 OFFCURVE"
);
}
);
width = 539;
}
);
unicode = 0307;
},
{
glyphname = uni030F;
lastChange = "2013-12-10 03:35:08 -0800";
layers = (
{
anchors = (
{
name = _top;
position = "{520, 1023}";
}
);
layerId = "E322F6D1-BA90-436B-BB35-51D9BD3EA9D1";
name = Regular;
paths = (
{
closed = 1;
nodes = (
"571 1474 LINE",
"676 1154 LINE",
"610 1154 LINE",
"382 1474 LINE"
);
},
{
closed = 1;
nodes = (
"273 1474 LINE",
"408 1154 LINE",
"335 1154 LINE",
"78 1474 LINE"
);
}
);
width = 745;
},
{
anchors = (
{
name = _top;
position = "{575, 1023}";
}
);
layerId = "5D328E58-2F78-4B3D-8E27-494E56F2C351";
name = Bold;
paths = (
{
closed = 1;
nodes = (
"690 1492 LINE",
"755 1152 LINE",
"657 1152 LINE",
"411 1492 LINE"
);
},
{
closed = 1;
nodes = (
"335 1492 LINE",
"427 1152 LINE",
"319 1152 LINE",
"47 1492 LINE"
);
}
);
width = 745;
}
);
unicode = 030F;
userData = {
anchors = (
);
b = {
};
com.typemytype.robofont.layerData = {
};
components = (
);
contours = (
);
lib = {
};
name = uni030F;
unicodes = (
);
width = 745;
};
},
{
glyphname = uni0311;
lastChange = "2013-12-10 03:35:25 -0800";
layers = (
{
anchors = (
{
name = _top;
position = "{410, 1023}";
}
);
layerId = "E322F6D1-BA90-436B-BB35-51D9BD3EA9D1";
name = Regular;
paths = (
{
closed = 1;
nodes = (
"402 1437 CURVE SMOOTH",
"549 1437 OFFCURVE",
"674 1362 OFFCURVE",
"678 1182 CURVE",
"562 1182 LINE",
"562 1289 OFFCURVE",
"501 1334 OFFCURVE",
"402 1334 CURVE SMOOTH",
"302 1334 OFFCURVE",
"242 1289 OFFCURVE",
"242 1182 CURVE",
"126 1182 LINE",
"130 1362 OFFCURVE",
"255 1437 OFFCURVE"
);
}
);
width = 805;
},
{
anchors = (
{
name = _top;
position = "{414, 1023}";
}
);
layerId = "5D328E58-2F78-4B3D-8E27-494E56F2C351";
name = Bold;
paths = (
{
closed = 1;
nodes = (
"402 1438 CURVE SMOOTH",
"539 1438 OFFCURVE",
"687 1362 OFFCURVE",
"691 1162 CURVE",
"518 1162 LINE",
"518 1229 OFFCURVE",
"496 1283 OFFCURVE",
"402 1283 CURVE SMOOTH",
"308 1283 OFFCURVE",
"286 1229 OFFCURVE",
"286 1162 CURVE",
"113 1162 LINE",
"117 1362 OFFCURVE",
"265 1438 OFFCURVE"
);
}
);
width = 805;
}
);
unicode = 0311;
userData = {
anchors = (
);
b = {
};
com.typemytype.robofont.layerData = {
};
components = (
);
contours = (
);
lib = {
};
name = uni0311;
unicodes = (
);
width = 805;
};
},
{
glyphname = uni0326;
lastChange = "2013-12-10 00:09:49 -0800";
layers = (
{
layerId = "E322F6D1-BA90-436B-BB35-51D9BD3EA9D1";
name = Regular;
paths = (
{
closed = 1;
nodes = (
"210 -168 CURVE",
"100 -168 LINE",
"100 0 LINE",
"300 0 LINE",
"300 -160 LINE SMOOTH",
"300 -279 OFFCURVE",
"233 -397 OFFCURVE",
"190 -397 CURVE",
"143 -375 LINE",
"201 -332 OFFCURVE",
"209 -219 OFFCURVE"
);
}
);
width = 409;
},
{
layerId = "5D328E58-2F78-4B3D-8E27-494E56F2C351";
name = Bold;
paths = (
{
closed = 1;
nodes = (
"210 -168 CURVE",
"100 -168 LINE",
"100 0 LINE",
"300 0 LINE",
"300 -160 LINE SMOOTH",
"300 -279 OFFCURVE",
"233 -397 OFFCURVE",
"190 -397 CURVE",
"143 -375 LINE",
"201 -332 OFFCURVE",
"209 -219 OFFCURVE"
);
}
);
width = 409;
}
);
unicode = 0326;
},
{
glyphname = zero;
lastChange = "2013-12-10 00:09:49 -0800";
layers = (
{
layerId = "E322F6D1-BA90-436B-BB35-51D9BD3EA9D1";
name = Regular;
paths = (
{
closed = 1;
nodes = (
"114 724 CURVE",
"114 262 OFFCURVE",
"283 -24 OFFCURVE",
"623 -24 CURVE",
"963 -24 OFFCURVE",
"1132 262 OFFCURVE",
"1132 724 CURVE",
"1132 1186 OFFCURVE",
"963 1489 OFFCURVE",
"623 1489 CURVE",
"283 1489 OFFCURVE",
"114 1186 OFFCURVE"
);
},
{
closed = 1;
nodes = (
"269 724 CURVE",
"269 1151 OFFCURVE",
"390 1372 OFFCURVE",
"623 1372 CURVE",
"856 1372 OFFCURVE",
"977 1151 OFFCURVE",
"977 724 CURVE",
"977 297 OFFCURVE",
"856 93 OFFCURVE",
"623 93 CURVE",
"390 93 OFFCURVE",
"269 297 OFFCURVE"
);
}
);
width = 1246;
},
{
layerId = "5D328E58-2F78-4B3D-8E27-494E56F2C351";
name = Bold;
paths = (
{
closed = 1;
nodes = (
"71 724 CURVE",
"71 264 OFFCURVE",
"243 -24 OFFCURVE",
"623 -24 CURVE",
"1003 -24 OFFCURVE",
"1175 264 OFFCURVE",
"1175 724 CURVE",
"1175 1184 OFFCURVE",
"1003 1489 OFFCURVE",
"623 1489 CURVE",
"243 1489 OFFCURVE",
"71 1184 OFFCURVE"
);
},
{
closed = 1;
nodes = (
"304 724 CURVE",
"304 1101 OFFCURVE",
"390 1313 OFFCURVE",
"623 1313 CURVE",
"856 1313 OFFCURVE",
"942 1101 OFFCURVE",
"942 724 CURVE",
"942 347 OFFCURVE",
"856 152 OFFCURVE",
"623 152 CURVE",
"390 152 OFFCURVE",
"304 347 OFFCURVE"
);
}
);
width = 1246;
}
);
unicode = 0030;
userData = {
com.typemytype.robofont.layerData = {
};
};
},
{
glyphname = one;
lastChange = "2013-12-10 15:50:57 -0800";
layers = (
{
layerId = "E322F6D1-BA90-436B-BB35-51D9BD3EA9D1";
name = Regular;
paths = (
{
closed = 1;
nodes = (
"365 1328 LINE",
"365 0 LINE",
"511 0 LINE",
"511 1464 LINE",
"382 1464 LINE",
"105 1344 LINE",
"149 1228 LINE"
);
}
);
width = 777;
},
{
layerId = "5D328E58-2F78-4B3D-8E27-494E56F2C351";
name = Bold;
paths = (
{
closed = 1;
nodes = (
"423 1258 LINE",
"423 0 LINE",
"643 0 LINE",
"643 1464 LINE",
"452 1464 LINE",
"132 1333 LINE",
"197 1158 LINE"
);
}
);
width = 924;
}
);
unicode = 0031;
userData = {
com.typemytype.robofont.layerData = {
};
};
},
{
glyphname = two;
lastChange = "2013-12-10 15:56:19 -0800";
layers = (
{
layerId = "E322F6D1-BA90-436B-BB35-51D9BD3EA9D1";
name = Regular;
paths = (
{
closed = 1;
nodes = (
"275 1089 LINE",
"358 1275 OFFCURVE",
"456 1374 OFFCURVE",
"633 1374 CURVE SMOOTH",
"792 1374 OFFCURVE",
"909 1263 OFFCURVE",
"909 1060 CURVE SMOOTH",
"909 625 OFFCURVE",
"206 481 OFFCURVE",
"190 0 CURVE",
"1055 0 LINE",
"1055 125 LINE",
"350 125 LINE",
"504 475 OFFCURVE",
"1053 606 OFFCURVE",
"1053 1057 CURVE SMOOTH",
"1053 1359 OFFCURVE",
"868 1491 OFFCURVE",
"621 1491 CURVE SMOOTH",
"396 1491 OFFCURVE",
"258 1387 OFFCURVE",
"146 1141 CURVE"
);
}
);
width = 1246;
},
{
layerId = "5D328E58-2F78-4B3D-8E27-494E56F2C351";
name = Bold;
paths = (
{
closed = 1;
nodes = (
"303 1064 LINE",
"387 1231 OFFCURVE",
"479 1314 OFFCURVE",
"628 1314 CURVE SMOOTH",
"773 1314 OFFCURVE",
"857 1203 OFFCURVE",
"857 1049 CURVE SMOOTH",
"857 592 OFFCURVE",
"159 551 OFFCURVE",
"154 0 CURVE",
"1080 0 LINE",
"1080 175 LINE",
"404 175 LINE",
"602 482 OFFCURVE",
"1090 607 OFFCURVE",
"1078 1044 CURVE SMOOTH",
"1070 1346 OFFCURVE",
"883 1489 OFFCURVE",
"616 1489 CURVE SMOOTH",
"391 1489 OFFCURVE",
"228 1396 OFFCURVE",
"110 1141 CURVE"
);
}
);
width = 1246;
}
);
unicode = 0032;
userData = {
com.typemytype.robofont.layerData = {
};
};
},
{
glyphname = three;
lastChange = "2013-12-10 00:09:49 -0800";
layers = (
{
layerId = "E322F6D1-BA90-436B-BB35-51D9BD3EA9D1";
name = Regular;
paths = (
{
closed = 1;
nodes = (
"926 1152 CURVE SMOOTH",
"926 1350.83 OFFCURVE",
"781 1491 OFFCURVE",
"535 1491 CURVE SMOOTH",
"365 1491 OFFCURVE",
"223 1411.68 OFFCURVE",
"123 1256 CURVE",
"229 1192 LINE",
"320 1332.59 OFFCURVE",
"430 1374 OFFCURVE",
"542 1374 CURVE SMOOTH",
"708 1374 OFFCURVE",
"783 1257.49 OFFCURVE",
"783 1140 CURVE SMOOTH",
"783 1006 OFFCURVE",
"715 864 OFFCURVE",
"441 864 CURVE",
"441 751 LINE",
"695 751 OFFCURVE",
"851 655 OFFCURVE",
"848 396 CURVE SMOOTH",
"846 239 OFFCURVE",
"745 93 OFFCURVE",
"533 93 CURVE SMOOTH",
"377 93 OFFCURVE",
"268 184.345 OFFCURVE",
"213 358 CURVE",
"89 316 LINE",
"150 68.2735 OFFCURVE",
"351 -26 OFFCURVE",
"545 -25 CURVE SMOOTH",
"844 -24 OFFCURVE",
"993 190 OFFCURVE",
"997 403 CURVE SMOOTH",
"1000 581 OFFCURVE",
"906 766 OFFCURVE",
"667 815 CURVE",
"852 863 OFFCURVE",
"926 1012 OFFCURVE"
);
}
);
width = 1092;
},
{
layerId = "5D328E58-2F78-4B3D-8E27-494E56F2C351";
name = Bold;
paths = (
{
closed = 1;
nodes = (
"1015 1156 CURVE SMOOTH",
"1015 1355 OFFCURVE",
"854 1489 OFFCURVE",
"600 1489 CURVE SMOOTH",
"430 1489 OFFCURVE",
"288 1412 OFFCURVE",
"188 1256 CURVE",
"346 1161 LINE",
"428 1282 OFFCURVE",
"505 1316 OFFCURVE",
"607 1316 CURVE SMOOTH",
"729 1316 OFFCURVE",
"802 1240 OFFCURVE",
"802 1140 CURVE SMOOTH",
"802 1006 OFFCURVE",
"768 894 OFFCURVE",
"494 894 CURVE",
"494 726 LINE",
"721 726 OFFCURVE",
"872 660 OFFCURVE",
"863 396 CURVE SMOOTH",
"859 265 OFFCURVE",
"786 146 OFFCURVE",
"595 152 CURVE SMOOTH",
"447 157 OFFCURVE",
"388 243 OFFCURVE",
"340 378 CURVE",
"154 316 LINE",
"215 68 OFFCURVE",
"387 -23 OFFCURVE",
"612 -24 CURVE SMOOTH",
"922 -25 OFFCURVE",
"1086 196 OFFCURVE",
"1086 399 CURVE SMOOTH",
"1086 577 OFFCURVE",
"1018 754 OFFCURVE",
"803 821 CURVE",
"967 882 OFFCURVE",
"1015 1016 OFFCURVE"
);
}
);
width = 1246;
}
);
unicode = 0033;
userData = {
com.typemytype.robofont.layerData = {
};
};
},
{
glyphname = four;
lastChange = "2013-12-10 15:58:26 -0800";
layers = (
{
layerId = "E322F6D1-BA90-436B-BB35-51D9BD3EA9D1";
name = Regular;
paths = (
{
closed = 1;
nodes = (
"106 464 LINE",
"691 1464 LINE",
"895 1464 LINE",
"895 467 LINE",
"1150 467 LINE",
"1150 357 LINE",
"896 357 LINE",
"896 0 LINE",
"756 0 LINE",
"756 357 LINE",
"106 357 LINE"
);
},
{
closed = 1;
nodes = (
"756 1332 LINE",
"267 467 LINE",
"756 467 LINE"
);
}
);
width = 1206;
},
{
layerId = "5D328E58-2F78-4B3D-8E27-494E56F2C351";
name = Bold;
paths = (
{
closed = 1;
nodes = (
"103 507 LINE",
"656 1464 LINE",
"958 1464 LINE",
"958 510 LINE",
"1193 510 LINE",
"1193 347 LINE",
"959 347 LINE",
"959 0 LINE",
"751 0 LINE",
"751 347 LINE",
"103 347 LINE"
);
},
{
closed = 1;
nodes = (
"751 1319 LINE",
"309 510 LINE",
"751 510 LINE"
);
}
);
width = 1246;
}
);
unicode = 0034;
userData = {
com.typemytype.robofont.layerData = {
};
};
},
{
glyphname = five;
lastChange = "2013-12-10 15:57:19 -0800";
layers = (
{
layerId = "E322F6D1-BA90-436B-BB35-51D9BD3EA9D1";
name = Regular;
paths = (
{
closed = 1;
nodes = (
"615 928 CURVE SMOOTH",
"937 928 OFFCURVE",
"1079 703 OFFCURVE",
"1079 461 CURVE SMOOTH",
"1079 170 OFFCURVE",
"888 -24 OFFCURVE",
"595 -24 CURVE SMOOTH",
"378 -24 OFFCURVE",
"197 76 OFFCURVE",
"106 309 CURVE",
"230 359 LINE",
"303 192 OFFCURVE",
"440 93 OFFCURVE",
"587 93 CURVE SMOOTH",
"796 93 OFFCURVE",
"930 237 OFFCURVE",
"930 453 CURVE SMOOTH",
"930 634 OFFCURVE",
"824 808 OFFCURVE",
"609 808 CURVE SMOOTH",
"492 808 OFFCURVE",
"381 768 OFFCURVE",
"285 685 CURVE",
"192 744 LINE",
"288 1464 LINE",
"965 1464 LINE",
"965 1337 LINE",
"419 1337 LINE",
"345 821 LINE",
"305 823 LINE",
"402 903 OFFCURVE",
"535 928 OFFCURVE"
);
}
);
width = 1163;
},
{
layerId = "5D328E58-2F78-4B3D-8E27-494E56F2C351";
name = Bold;
paths = (
{
closed = 1;
nodes = (
"652 928 CURVE SMOOTH",
"983 928 OFFCURVE",
"1135 719 OFFCURVE",
"1135 461 CURVE SMOOTH",
"1135 181 OFFCURVE",
"941 -24 OFFCURVE",
"632 -24 CURVE SMOOTH",
"395 -24 OFFCURVE",
"210 66 OFFCURVE",
"116 309 CURVE",
"300 382 LINE",
"373 229 OFFCURVE",
"491 149 OFFCURVE",
"623 149 CURVE SMOOTH",
"782 149 OFFCURVE",
"914 273 OFFCURVE",
"914 453 CURVE SMOOTH",
"914 621 OFFCURVE",
"813 751 OFFCURVE",
"642 751 CURVE SMOOTH",
"541 751 OFFCURVE",
"446 725 OFFCURVE",
"347 658 CURVE",
"212 744 LINE",
"308 1464 LINE",
"1019 1464 LINE",
"1019 1275 LINE",
"502 1275 LINE",
"438 856 LINE",
"375 858 LINE",
"465 908 OFFCURVE",
"572 928 OFFCURVE"
);
}
);
width = 1246;
}
);
unicode = 0035;
userData = {
anchors = (
);
b = {
};
com.typemytype.robofont.layerData = {
};
components = (
);
contours = {
};
lib = {
};
name = five;
points = {
};
segmentType = line;
unicodes = (
);
width = 1163;
x = 528;
y = 928;
};
},
{
glyphname = six;
lastChange = "2013-12-10 00:09:49 -0800";
layers = (
{
layerId = "E322F6D1-BA90-436B-BB35-51D9BD3EA9D1";
name = Regular;
paths = (
{
closed = 1;
nodes = (
"283 820 CURVE",
"380 897 OFFCURVE",
"509 941 OFFCURVE",
"622 946 CURVE SMOOTH",
"892 957 OFFCURVE",
"1083 789 OFFCURVE",
"1083 484 CURVE SMOOTH",
"1083 233.508 OFFCURVE",
"925 -25 OFFCURVE",
"623 -25 CURVE SMOOTH",
"280 -25 OFFCURVE",
"124 252.383 OFFCURVE",
"124 700 CURVE SMOOTH",
"124 1201 OFFCURVE",
"339 1491 OFFCURVE",
"641 1491 CURVE SMOOTH",
"739 1491 OFFCURVE",
"867 1460 OFFCURVE",
"963 1396 CURVE",
"922 1285 LINE",
"835 1346 OFFCURVE",
"736 1376 OFFCURVE",
"644 1374 CURVE SMOOTH",
"435 1369 OFFCURVE",
"296 1177 OFFCURVE"
);
},
{
closed = 1;
nodes = (
"283 701 CURVE",
"283 659 LINE SMOOTH",
"283 369 OFFCURVE",
"346 93 OFFCURVE",
"623 93 CURVE SMOOTH",
"811 93 OFFCURVE",
"932 237 OFFCURVE",
"932 480 CURVE SMOOTH",
"932 722 OFFCURVE",
"834 842 OFFCURVE",
"609 834 CURVE SMOOTH",
"497 830 OFFCURVE",
"382 779 OFFCURVE"
);
}
);
width = 1202;
},
{
layerId = "5D328E58-2F78-4B3D-8E27-494E56F2C351";
name = Bold;
paths = (
{
closed = 1;
nodes = (
"360 850 CURVE",
"464 925 OFFCURVE",
"573 948 OFFCURVE",
"686 948 CURVE SMOOTH",
"933 948 OFFCURVE",
"1134 782 OFFCURVE",
"1134 477 CURVE SMOOTH",
"1134 217 OFFCURVE",
"957 -24 OFFCURVE",
"658 -24 CURVE SMOOTH",
"323 -24 OFFCURVE",
"119 248 OFFCURVE",
"119 696 CURVE SMOOTH",
"119 1197 OFFCURVE",
"337 1489 OFFCURVE",
"669 1489 CURVE SMOOTH",
"767 1489 OFFCURVE",
"910 1460 OFFCURVE",
"1026 1396 CURVE",
"966 1229 LINE",
"863 1288 OFFCURVE",
"765 1313 OFFCURVE",
"683 1313 CURVE SMOOTH",
"505 1313 OFFCURVE",
"374 1202 OFFCURVE"
);
},
{
closed = 1;
nodes = (
"360 671 CURVE",
"360 639 LINE SMOOTH",
"360 393 OFFCURVE",
"437 153 OFFCURVE",
"658 153 CURVE SMOOTH",
"811 153 OFFCURVE",
"907 262 OFFCURVE",
"907 473 CURVE SMOOTH",
"907 702 OFFCURVE",
"825 779 OFFCURVE",
"656 779 CURVE SMOOTH",
"553 779 OFFCURVE",
"460 746 OFFCURVE"
);
}
);
width = 1246;
}
);
unicode = 0036;
userData = {
com.typemytype.robofont.layerData = {
};
};
},
{
glyphname = seven;
lastChange = "2013-12-10 15:58:02 -0800";
layers = (
{
layerId = "E322F6D1-BA90-436B-BB35-51D9BD3EA9D1";
name = Regular;
paths = (
{
closed = 1;
nodes = (
"214 1352 LINE",
"202 1464 LINE",
"1070 1464 LINE",
"1070 1351 LINE",
"523 -1 LINE",
"365 1 LINE",
"918 1352 LINE"
);
}
);
width = 1246;
},
{
layerId = "5D328E58-2F78-4B3D-8E27-494E56F2C351";
name = Bold;
paths = (
{
closed = 1;
nodes = (
"210 1294 LINE",
"194 1464 LINE",
"1077 1464 LINE",
"1077 1295 LINE",
"563 -1 LINE",
"323 0 LINE",
"846 1294 LINE"
);
}
);
width = 1246;
}
);
unicode = 0037;
userData = {
com.typemytype.robofont.layerData = {
};
};
},
{
glyphname = eight;
lastChange = "2013-12-10 00:09:49 -0800";
layers = (
{
layerId = "E322F6D1-BA90-436B-BB35-51D9BD3EA9D1";
name = Regular;
paths = (
{
closed = 1;
nodes = (
"501 716 CURVE",
"347 623 OFFCURVE",
"264 487 OFFCURVE",
"264 367 CURVE SMOOTH",
"264 223.246 OFFCURVE",
"379 93 OFFCURVE",
"584 93 CURVE SMOOTH",
"741 93 OFFCURVE",
"914 188.526 OFFCURVE",
"914 368 CURVE SMOOTH",
"914 586 OFFCURVE",
"716 654 OFFCURVE"
);
},
{
closed = 1;
nodes = (
"106 351 CURVE SMOOTH",
"106 502 OFFCURVE",
"194 640 OFFCURVE",
"398 759 CURVE",
"285 812 OFFCURVE",
"127 925 OFFCURVE",
"127 1101 CURVE SMOOTH",
"127 1379.29 OFFCURVE",
"356 1491 OFFCURVE",
"594 1491 CURVE SMOOTH",
"839 1491 OFFCURVE",
"1049 1375.3 OFFCURVE",
"1049 1099 CURVE SMOOTH",
"1049 903 OFFCURVE",
"857 783 OFFCURVE",
"768 751 CURVE",
"1023 628 OFFCURVE",
"1062 506 OFFCURVE",
"1062 365 CURVE SMOOTH",
"1062 160.476 OFFCURVE",
"885 -25 OFFCURVE",
"569 -25 CURVE SMOOTH",
"281 -25 OFFCURVE",
"106 154.477 OFFCURVE"
);
},
{
closed = 1;
nodes = (
"659 792 CURVE",
"753 839 OFFCURVE",
"899 932 OFFCURVE",
"899 1101 CURVE SMOOTH",
"899 1291.51 OFFCURVE",
"758 1374 OFFCURVE",
"594 1374 CURVE SMOOTH",
"441 1374 OFFCURVE",
"278 1301.35 OFFCURVE",
"278 1104 CURVE SMOOTH",
"278 914 OFFCURVE",
"454 857 OFFCURVE"
);
}
);
width = 1160;
},
{
layerId = "5D328E58-2F78-4B3D-8E27-494E56F2C351";
name = Bold;
paths = (
{
closed = 1;
nodes = (
"541 680 CURVE",
"395 586 OFFCURVE",
"373 477 OFFCURVE",
"384 361 CURVE SMOOTH",
"395 247 OFFCURVE",
"477 155 OFFCURVE",
"623 154 CURVE SMOOTH",
"755 153 OFFCURVE",
"877 236 OFFCURVE",
"877 368 CURVE SMOOTH",
"877 586 OFFCURVE",
"756 618 OFFCURVE"
);
},
{
closed = 1;
nodes = (
"145 351 CURVE SMOOTH",
"142 503 OFFCURVE",
"185 625 OFFCURVE",
"389 744 CURVE",
"276 797 OFFCURVE",
"154 925 OFFCURVE",
"154 1101 CURVE SMOOTH",
"154 1379 OFFCURVE",
"395 1489 OFFCURVE",
"633 1489 CURVE SMOOTH",
"878 1489 OFFCURVE",
"1100 1375 OFFCURVE",
"1100 1099 CURVE SMOOTH",
"1100 903 OFFCURVE",
"928 798 OFFCURVE",
"839 766 CURVE",
"1094 643 OFFCURVE",
"1101 506 OFFCURVE",
"1101 365 CURVE SMOOTH",
"1101 160 OFFCURVE",
"926 -24 OFFCURVE",
"608 -24 CURVE SMOOTH",
"320 -24 OFFCURVE",
"149 154 OFFCURVE"
);
},
{
closed = 1;
nodes = (
"676 827 CURVE",
"768 875 OFFCURVE",
"873 942 OFFCURVE",
"873 1101 CURVE SMOOTH",
"873 1228 OFFCURVE",
"790 1313 OFFCURVE",
"633 1313 CURVE SMOOTH",
"483 1313 OFFCURVE",
"383 1241 OFFCURVE",
"383 1104 CURVE SMOOTH",
"383 914 OFFCURVE",
"471 892 OFFCURVE"
);
}
);
width = 1246;
}
);
unicode = 0038;
},
{
glyphname = nine;
lastChange = "2013-12-10 00:09:49 -0800";
layers = (
{
layerId = "E322F6D1-BA90-436B-BB35-51D9BD3EA9D1";
name = Regular;
paths = (
{
closed = 1;
nodes = (
"923 646 CURVE",
"910 289 OFFCURVE",
"771 97 OFFCURVE",
"562 92 CURVE SMOOTH",
"470 90 OFFCURVE",
"371 120 OFFCURVE",
"284 181 CURVE",
"243 70 LINE",
"339 6 OFFCURVE",
"467 -25 OFFCURVE",
"565 -25 CURVE SMOOTH",
"867 -25 OFFCURVE",
"1082 265 OFFCURVE",
"1082 766 CURVE SMOOTH",
"1082 1214 OFFCURVE",
"926 1491 OFFCURVE",
"583 1491 CURVE SMOOTH",
"281 1491 OFFCURVE",
"123 1232 OFFCURVE",
"123 982 CURVE SMOOTH",
"123 677 OFFCURVE",
"314 509 OFFCURVE",
"584 520 CURVE SMOOTH",
"697 525 OFFCURVE",
"826 569 OFFCURVE"
);
},
{
closed = 1;
nodes = (
"923 765 LINE",
"824 687 OFFCURVE",
"709 636 OFFCURVE",
"597 632 CURVE SMOOTH",
"372 624 OFFCURVE",
"274 744 OFFCURVE",
"274 986 CURVE SMOOTH",
"274 1229 OFFCURVE",
"395 1373 OFFCURVE",
"583 1373 CURVE SMOOTH",
"860 1373 OFFCURVE",
"923 1097 OFFCURVE",
"923 807 CURVE SMOOTH"
);
}
);
width = 1202;
},
{
layerId = "5D328E58-2F78-4B3D-8E27-494E56F2C351";
name = Bold;
paths = (
{
closed = 1;
nodes = (
"879 615 CURVE",
"865 263 OFFCURVE",
"734 152 OFFCURVE",
"556 152 CURVE SMOOTH",
"474 152 OFFCURVE",
"376 177 OFFCURVE",
"273 236 CURVE",
"213 69 LINE",
"329 5 OFFCURVE",
"472 -24 OFFCURVE",
"570 -24 CURVE SMOOTH",
"902 -24 OFFCURVE",
"1120 268 OFFCURVE",
"1120 769 CURVE SMOOTH",
"1120 1217 OFFCURVE",
"916 1489 OFFCURVE",
"581 1489 CURVE SMOOTH",
"282 1489 OFFCURVE",
"105 1248 OFFCURVE",
"105 988 CURVE SMOOTH",
"105 683 OFFCURVE",
"306 517 OFFCURVE",
"553 517 CURVE SMOOTH",
"666 517 OFFCURVE",
"775 540 OFFCURVE"
);
},
{
closed = 1;
nodes = (
"879 794 LINE",
"779 719 OFFCURVE",
"686 686 OFFCURVE",
"583 686 CURVE SMOOTH",
"414 686 OFFCURVE",
"332 763 OFFCURVE",
"332 992 CURVE SMOOTH",
"332 1203 OFFCURVE",
"428 1312 OFFCURVE",
"581 1312 CURVE SMOOTH",
"802 1312 OFFCURVE",
"879 1072 OFFCURVE",
"879 826 CURVE SMOOTH"
);
}
);
width = 1246;
}
);
unicode = 0039;
userData = {
anchors = (
);
b = {
};
com.typemytype.robofont.layerData = {
};
components = (
);
contours = (
);
lib = {
};
name = nine;
unicodes = (
);
width = 1202;
};
},
{
glyphname = uni00B9;
lastChange = "2013-12-10 00:09:49 -0800";
layers = (
{
layerId = "E322F6D1-BA90-436B-BB35-51D9BD3EA9D1";
name = Regular;
paths = (
{
closed = 1;
nodes = (
"262 769 LINE",
"375 769 LINE",
"375 1464 LINE",
"272 1464 LINE",
"124 1397 LINE",
"145 1307 LINE",
"262 1365 LINE"
);
}
);
width = 546;
},
{
layerId = "5D328E58-2F78-4B3D-8E27-494E56F2C351";
name = Bold;
paths = (
{
closed = 1;
nodes = (
"262 769 LINE",
"375 769 LINE",
"375 1464 LINE",
"272 1464 LINE",
"124 1397 LINE",
"145 1307 LINE",
"262 1365 LINE"
);
}
);
width = 546;
}
);
unicode = 00B9;
},
{
glyphname = uni00B2;
lastChange = "2013-12-10 00:09:49 -0800";
layers = (
{
layerId = "E322F6D1-BA90-436B-BB35-51D9BD3EA9D1";
name = Regular;
paths = (
{
closed = 1;
nodes = (
"860 859 LINE",
"530 859 LINE",
"621 1014 OFFCURVE",
"858 1058 OFFCURVE",
"858 1276 CURVE SMOOTH",
"858 1419 OFFCURVE",
"736 1491 OFFCURVE",
"619 1491 CURVE SMOOTH",
"513 1491 OFFCURVE",
"407 1437 OFFCURVE",
"364 1316 CURVE",
"379 1310 OFFCURVE",
"454 1272 OFFCURVE",
"454 1271 CURVE",
"472 1353 OFFCURVE",
"547 1396 OFFCURVE",
"618 1396 CURVE SMOOTH",
"686 1396 OFFCURVE",
"750 1355 OFFCURVE",
"750 1269 CURVE SMOOTH",
"750 1266 LINE SMOOTH",
"750 1115 OFFCURVE",
"392 1004 OFFCURVE",
"385 779 CURVE",
"860 779 LINE"
);
}
);
width = 1230;
},
{
layerId = "5D328E58-2F78-4B3D-8E27-494E56F2C351";
name = Bold;
paths = (
{
closed = 1;
nodes = (
"860 859 LINE",
"530 859 LINE",
"621 1014 OFFCURVE",
"858 1058 OFFCURVE",
"858 1276 CURVE SMOOTH",
"858 1419 OFFCURVE",
"736 1491 OFFCURVE",
"619 1491 CURVE SMOOTH",
"513 1491 OFFCURVE",
"407 1437 OFFCURVE",
"364 1316 CURVE",
"379 1310 OFFCURVE",
"454 1272 OFFCURVE",
"454 1271 CURVE",
"472 1353 OFFCURVE",
"547 1396 OFFCURVE",
"618 1396 CURVE SMOOTH",
"686 1396 OFFCURVE",
"750 1355 OFFCURVE",
"750 1269 CURVE SMOOTH",
"750 1266 LINE SMOOTH",
"750 1115 OFFCURVE",
"392 1004 OFFCURVE",
"385 779 CURVE",
"860 779 LINE"
);
}
);
width = 1230;
}
);
unicode = 00B2;
},
{
glyphname = uni00B3;
lastChange = "2013-12-10 00:09:49 -0800";
layers = (
{
layerId = "E322F6D1-BA90-436B-BB35-51D9BD3EA9D1";
name = Regular;
paths = (
{
closed = 1;
nodes = (
"363 1481 CURVE SMOOTH",
"281 1481 OFFCURVE",
"180 1440 OFFCURVE",
"150 1358 CURVE",
"223 1307 LINE",
"251 1368 OFFCURVE",
"310 1396 OFFCURVE",
"364 1396 CURVE SMOOTH",
"438 1396 OFFCURVE",
"471 1356 OFFCURVE",
"471 1298 CURVE SMOOTH",
"471 1233 OFFCURVE",
"440 1184 OFFCURVE",
"318 1182 CURVE",
"318 1095 LINE",
"454 1095 OFFCURVE",
"506 1040 OFFCURVE",
"506 953 CURVE SMOOTH",
"506 895 OFFCURVE",
"456 834 OFFCURVE",
"376 834 CURVE SMOOTH",
"300 834 OFFCURVE",
"234 866 OFFCURVE",
"208 950 CURVE",
"130 910 LINE",
"159 791 OFFCURVE",
"275 746 OFFCURVE",
"369 745 CURVE",
"528.664 745 OFFCURVE",
"615.291 844.254 OFFCURVE",
"615.291 949.437 CURVE SMOOTH",
"615.291 952.952 OFFCURVE",
"615.194 956.475 OFFCURVE",
"615 960 CURVE SMOOTH",
"610 1043 OFFCURVE",
"572 1111 OFFCURVE",
"459 1144 CURVE",
"540 1173 OFFCURVE",
"581 1242 OFFCURVE",
"581 1308 CURVE SMOOTH",
"581 1396 OFFCURVE",
"505 1481 OFFCURVE"
);
}
);
width = 772;
},
{
layerId = "5D328E58-2F78-4B3D-8E27-494E56F2C351";
name = Bold;
paths = (
{
closed = 1;
nodes = (
"363 1481 CURVE SMOOTH",
"281 1481 OFFCURVE",
"180 1440 OFFCURVE",
"150 1358 CURVE",
"223 1307 LINE",
"251 1368 OFFCURVE",
"310 1396 OFFCURVE",
"364 1396 CURVE SMOOTH",
"438 1396 OFFCURVE",
"471 1356 OFFCURVE",
"471 1298 CURVE SMOOTH",
"471 1233 OFFCURVE",
"440 1184 OFFCURVE",
"318 1182 CURVE",
"318 1095 LINE",
"454 1095 OFFCURVE",
"506 1040 OFFCURVE",
"506 953 CURVE SMOOTH",
"506 895 OFFCURVE",
"456 834 OFFCURVE",
"376 834 CURVE SMOOTH",
"300 834 OFFCURVE",
"234 866 OFFCURVE",
"208 950 CURVE",
"130 910 LINE",
"159 791 OFFCURVE",
"275 746 OFFCURVE",
"369 745 CURVE",
"528.664 745 OFFCURVE",
"615.291 844.254 OFFCURVE",
"615.291 949.437 CURVE SMOOTH",
"615.291 952.952 OFFCURVE",
"615.194 956.475 OFFCURVE",
"615 960 CURVE SMOOTH",
"610 1043 OFFCURVE",
"572 1111 OFFCURVE",
"459 1144 CURVE",
"540 1173 OFFCURVE",
"581 1242 OFFCURVE",
"581 1308 CURVE SMOOTH",
"581 1396 OFFCURVE",
"505 1481 OFFCURVE"
);
}
);
width = 772;
}
);
unicode = 00B3;
},
{
glyphname = onequarter;
lastChange = "2013-12-10 00:09:49 -0800";
layers = (
{
layerId = "E322F6D1-BA90-436B-BB35-51D9BD3EA9D1";
name = Regular;
paths = (
{
closed = 1;
nodes = (
"155 -14 LINE",
"1390 1415 LINE",
"1314 1481 LINE",
"78 52 LINE"
);
},
{
closed = 1;
nodes = (
"242 1365 LINE",
"242 769 LINE",
"355 769 LINE",
"355 1464 LINE",
"252 1464 LINE",
"104 1397 LINE",
"125 1307 LINE"
);
},
{
closed = 1;
nodes = (
"789 152 LINE",
"1140 152 LINE",
"1140 0 LINE",
"1255 0 LINE",
"1255 152 LINE",
"1355 152 LINE",
"1355 234 LINE",
"1255 234 LINE",
"1255 693 LINE",
"1109 693 LINE",
"789 220 LINE"
);
},
{
closed = 1;
nodes = (
"1140 234 LINE",
"903 234 LINE",
"1140 585 LINE"
);
}
);
width = 1403;
},
{
layerId = "5D328E58-2F78-4B3D-8E27-494E56F2C351";
name = Bold;
paths = (
{
closed = 1;
nodes = (
"29 84 LINE",
"146 -14 LINE",
"1381 1415 LINE",
"1265 1513 LINE"
);
},
{
closed = 1;
nodes = (
"184 1316 LINE",
"184 769 LINE",
"353 769 LINE",
"353 1464 LINE",
"199 1464 LINE",
"41 1390 LINE",
"72 1256 LINE"
);
},
{
closed = 1;
nodes = (
"762 121 LINE",
"1102 121 LINE",
"1102 0 LINE",
"1266 0 LINE",
"1266 121 LINE",
"1374 121 LINE",
"1374 243 LINE",
"1266 243 LINE",
"1266 693 LINE",
"1051 693 LINE",
"762 220 LINE"
);
},
{
closed = 1;
nodes = (
"1102 243 LINE",
"932 243 LINE",
"1102 542 LINE"
);
}
);
width = 1403;
}
);
unicode = 00BC;
userData = {
com.typemytype.robofont.layerData = {
};
};
},
{
glyphname = onehalf;
lastChange = "2013-12-10 06:09:21 -0800";
layers = (
{
layerId = "E322F6D1-BA90-436B-BB35-51D9BD3EA9D1";
name = Regular;
paths = (
{
closed = 1;
nodes = (
"195 -14 LINE",
"1430 1415 LINE",
"1354 1481 LINE",
"118 52 LINE"
);
},
{
closed = 1;
nodes = (
"302 769 LINE",
"415 769 LINE",
"415 1464 LINE",
"312 1464 LINE",
"164 1397 LINE",
"185 1307 LINE",
"302 1365 LINE"
);
},
{
closed = 1;
nodes = (
"1094 712 OFFCURVE",
"988 658 OFFCURVE",
"945 537 CURVE",
"1035 492 LINE",
"1053 574 OFFCURVE",
"1127 619 OFFCURVE",
"1198 619 CURVE SMOOTH",
"1266 619 OFFCURVE",
"1327 576 OFFCURVE",
"1335 486 CURVE SMOOTH",
"1346 364 OFFCURVE",
"1217 295 OFFCURVE",
"965 82 CURVE",
"966 0 LINE",
"1441 0 LINE",
"1441 79 LINE",
"1098 79 LINE",
"1311 265 OFFCURVE",
"1454 339 OFFCURVE",
"1440 495 CURVE SMOOTH",
"1427 638 OFFCURVE",
"1317 712 OFFCURVE",
"1200 712 CURVE SMOOTH"
);
}
);
width = 1548;
},
{
layerId = "5D328E58-2F78-4B3D-8E27-494E56F2C351";
name = Bold;
paths = (
{
closed = 1;
nodes = (
"29 84 LINE",
"146 -14 LINE",
"1381 1415 LINE",
"1265 1513 LINE"
);
},
{
closed = 1;
nodes = (
"199 1464 LINE",
"41 1390 LINE",
"72 1256 LINE",
"184 1316 LINE",
"184 769 LINE",
"353 769 LINE",
"353 1464 LINE"
);
},
{
closed = 1;
nodes = (
"1055 712 OFFCURVE",
"941 658 OFFCURVE",
"898 537 CURVE",
"1032 470 LINE",
"1050 532 OFFCURVE",
"1081 573 OFFCURVE",
"1152 573 CURVE SMOOTH",
"1217 573 OFFCURVE",
"1244 536 OFFCURVE",
"1246 487 CURVE SMOOTH",
"1250 379 OFFCURVE",
"1110 293 OFFCURVE",
"919 123 CURVE",
"919 0 LINE",
"1412 0 LINE",
"1412 119 LINE",
"1143 120 LINE",
"1311 266 OFFCURVE",
"1431 344 OFFCURVE",
"1411 516 CURVE SMOOTH",
"1394 658 OFFCURVE",
"1278 712 OFFCURVE",
"1161 712 CURVE SMOOTH"
);
}
);
width = 1361;
}
);
unicode = 00BD;
userData = {
com.typemytype.robofont.layerData = {
};
};
},
{
glyphname = threequarters;
lastChange = "2013-12-10 00:09:49 -0800";
layers = (
{
layerId = "E322F6D1-BA90-436B-BB35-51D9BD3EA9D1";
name = Regular;
paths = (
{
closed = 1;
nodes = (
"570 1308 CURVE SMOOTH",
"570 1396 OFFCURVE",
"488 1481 OFFCURVE",
"346 1481 CURVE SMOOTH",
"264 1481 OFFCURVE",
"161 1440 OFFCURVE",
"131 1358 CURVE",
"204 1307 LINE",
"232 1368 OFFCURVE",
"293 1396 OFFCURVE",
"347 1396 CURVE SMOOTH",
"421 1396 OFFCURVE",
"466 1357 OFFCURVE",
"466 1299 CURVE SMOOTH",
"466 1234 OFFCURVE",
"429 1184 OFFCURVE",
"307 1182 CURVE",
"307 1095 LINE",
"443 1095 OFFCURVE",
"495 1040 OFFCURVE",
"495 953 CURVE SMOOTH",
"495 895 OFFCURVE",
"448 834 OFFCURVE",
"368 834 CURVE SMOOTH",
"292 834 OFFCURVE",
"229 863 OFFCURVE",
"200 942 CURVE",
"119 910 LINE",
"148 791 OFFCURVE",
"266 746 OFFCURVE",
"360 745 CURVE",
"520 745 OFFCURVE",
"600 843 OFFCURVE",
"602 949 CURVE SMOOTH",
"603 1001 OFFCURVE",
"586 1108 OFFCURVE",
"442 1144 CURVE",
"536 1171 OFFCURVE",
"570 1242 OFFCURVE"
);
},
{
closed = 1;
nodes = (
"248 -14 LINE",
"1483 1415 LINE",
"1407 1481 LINE",
"171 52 LINE"
);
},
{
closed = 1;
nodes = (
"1195 152 LINE",
"1195 0 LINE",
"1310 0 LINE",
"1310 152 LINE",
"1410 152 LINE",
"1410 234 LINE",
"1310 234 LINE",
"1310 693 LINE",
"1164 693 LINE",
"844 220 LINE",
"844 152 LINE"
);
},
{
closed = 1;
nodes = (
"958 234 LINE",
"1195 585 LINE",
"1195 234 LINE"
);
}
);
width = 1548;
},
{
layerId = "5D328E58-2F78-4B3D-8E27-494E56F2C351";
name = Bold;
paths = (
{
closed = 1;
nodes = (
"611 1303 CURVE SMOOTH",
"611 1411 OFFCURVE",
"505 1481 OFFCURVE",
"363 1481 CURVE SMOOTH",
"281 1481 OFFCURVE",
"176 1441 OFFCURVE",
"146 1359 CURVE",
"250 1281 LINE",
"273 1321 OFFCURVE",
"310 1354 OFFCURVE",
"364 1354 CURVE SMOOTH",
"418 1354 OFFCURVE",
"455 1333 OFFCURVE",
"458 1295 CURVE SMOOTH",
"462 1237 OFFCURVE",
"440 1204 OFFCURVE",
"318 1202 CURVE",
"318 1072 LINE",
"454 1072 OFFCURVE",
"477 1024 OFFCURVE",
"477 957 CURVE SMOOTH",
"477 907 OFFCURVE",
"430 874 OFFCURVE",
"376 874 CURVE SMOOTH",
"330 874 OFFCURVE",
"272 889 OFFCURVE",
"246 973 CURVE",
"130 910 LINE",
"159 791 OFFCURVE",
"275 744 OFFCURVE",
"369 743 CURVE",
"535 740 OFFCURVE",
"633 824 OFFCURVE",
"636 954 CURVE SMOOTH",
"637 1006 OFFCURVE",
"632 1098 OFFCURVE",
"501 1145 CURVE",
"582 1174 OFFCURVE",
"611 1237 OFFCURVE"
);
},
{
closed = 1;
nodes = (
"324 -14 LINE",
"1559 1415 LINE",
"1443 1513 LINE",
"207 84 LINE"
);
},
{
closed = 1;
nodes = (
"1280 121 LINE",
"1280 0 LINE",
"1448 0 LINE",
"1448 121 LINE",
"1552 121 LINE",
"1552 243 LINE",
"1448 243 LINE",
"1448 693 LINE",
"1229 693 LINE",
"940 220 LINE",
"940 121 LINE"
);
},
{
closed = 1;
nodes = (
"1110 243 LINE",
"1280 542 LINE",
"1280 243 LINE"
);
}
);
width = 1441;
}
);
unicode = 00BE;
userData = {
com.typemytype.robofont.layerData = {
};
};
},
{
glyphname = uni2074;
lastChange = "2013-12-10 06:09:43 -0800";
layers = (
{
layerId = "E322F6D1-BA90-436B-BB35-51D9BD3EA9D1";
name = Regular;
paths = (
{
closed = 1;
nodes = (
"875 1465 LINE",
"729 1465 LINE",
"409 992 LINE",
"409 924 LINE",
"760 924 LINE",
"760 772 LINE",
"875 772 LINE",
"875 924 LINE",
"975 924 LINE",
"975 1006 LINE",
"875 1006 LINE"
);
},
{
closed = 1;
nodes = (
"760 1357 LINE",
"760 1006 LINE",
"523 1006 LINE"
);
}
);
width = 1441;
},
{
layerId = "5D328E58-2F78-4B3D-8E27-494E56F2C351";
name = Bold;
paths = (
{
closed = 1;
nodes = (
"639 1474 LINE",
"350 1001 LINE",
"350 902 LINE",
"690 902 LINE",
"690 781 LINE",
"854 781 LINE",
"854 902 LINE",
"962 902 LINE",
"962 1024 LINE",
"854 1024 LINE",
"854 1474 LINE"
);
},
{
closed = 1;
nodes = (
"520 1024 LINE",
"690 1323 LINE",
"690 1024 LINE"
);
}
);
width = 1441;
}
);
unicode = 2074;
},
{
glyphname = underscore;
lastChange = "2013-12-10 00:09:49 -0800";
layers = (
{
layerId = "E322F6D1-BA90-436B-BB35-51D9BD3EA9D1";
name = Regular;
paths = (
{
closed = 1;
nodes = (
"99 -1 LINE",
"750 -1 LINE",
"750 -99 LINE",
"99 -99 LINE"
);
}
);
width = 870;
},
{
layerId = "5D328E58-2F78-4B3D-8E27-494E56F2C351";
name = Bold;
paths = (
{
closed = 1;
nodes = (
"99 -1 LINE",
"750 -1 LINE",
"750 -147 LINE",
"99 -147 LINE"
);
}
);
width = 870;
}
);
unicode = 005F;
},
{
glyphname = hyphen;
lastChange = "2013-12-10 00:09:49 -0800";
layers = (
{
layerId = "E322F6D1-BA90-436B-BB35-51D9BD3EA9D1";
name = Regular;
paths = (
{
closed = 1;
nodes = (
"100 400 LINE",
"100 511 LINE",
"600 511 LINE",
"600 400 LINE"
);
}
);
width = 724;
},
{
layerId = "5D328E58-2F78-4B3D-8E27-494E56F2C351";
name = Bold;
paths = (
{
closed = 1;
nodes = (
"100 360 LINE",
"100 527 LINE",
"600 527 LINE",
"600 360 LINE"
);
}
);
width = 724;
}
);
unicode = 002D;
},
{
glyphname = endash;
lastChange = "2013-12-10 00:09:49 -0800";
layers = (
{
layerId = "E322F6D1-BA90-436B-BB35-51D9BD3EA9D1";
name = Regular;
paths = (
{
closed = 1;
nodes = (
"135 334 LINE",
"135 420 LINE",
"889 420 LINE",
"889 334 LINE"
);
}
);
width = 1024;
},
{
layerId = "5D328E58-2F78-4B3D-8E27-494E56F2C351";
name = Bold;
paths = (
{
closed = 1;
nodes = (
"135 294 LINE",
"135 420 LINE",
"889 420 LINE",
"889 294 LINE"
);
}
);
width = 1024;
}
);
unicode = 2013;
},
{
glyphname = emdash;
lastChange = "2013-12-10 00:09:49 -0800";
layers = (
{
layerId = "E322F6D1-BA90-436B-BB35-51D9BD3EA9D1";
name = Regular;
paths = (
{
closed = 1;
nodes = (
"135 334 LINE",
"135 420 LINE",
"1913 420 LINE",
"1913 334 LINE"
);
}
);
width = 2048;
},
{
layerId = "5D328E58-2F78-4B3D-8E27-494E56F2C351";
name = Bold;
paths = (
{
closed = 1;
nodes = (
"135 294 LINE",
"135 420 LINE",
"1912 420 LINE",
"1912 294 LINE"
);
}
);
width = 2048;
}
);
unicode = 2014;
},
{
glyphname = parenleft;
lastChange = "2013-12-10 00:09:49 -0800";
layers = (
{
layerId = "E322F6D1-BA90-436B-BB35-51D9BD3EA9D1";
name = Regular;
paths = (
{
closed = 1;
nodes = (
"34 703 CURVE",
"34 164 OFFCURVE",
"232 -112 OFFCURVE",
"523 -181 CURVE",
"552 -96 LINE",
"282 -20 OFFCURVE",
"184 289 OFFCURVE",
"184 703 CURVE",
"184 1117 OFFCURVE",
"282 1426 OFFCURVE",
"552 1502 CURVE",
"523 1587 LINE",
"232 1518 OFFCURVE",
"34 1242 OFFCURVE"
);
}
);
width = 602;
},
{
layerId = "5D328E58-2F78-4B3D-8E27-494E56F2C351";
name = Bold;
paths = (
{
closed = 1;
nodes = (
"-5 703 CURVE",
"-5 164 OFFCURVE",
"232 -112 OFFCURVE",
"523 -181 CURVE",
"564 -54 LINE",
"338 19 OFFCURVE",
"222 289 OFFCURVE",
"222 703 CURVE",
"222 1117 OFFCURVE",
"338 1387 OFFCURVE",
"564 1460 CURVE",
"523 1587 LINE",
"232 1518 OFFCURVE",
"-5 1242 OFFCURVE"
);
}
);
width = 602;
}
);
unicode = 0028;
userData = {
anchors = (
);
b = {
};
com.typemytype.robofont.layerData = {
};
components = (
);
contours = {
};
lib = {
};
name = parenleft;
points = {
};
segmentType = curve;
unicodes = (
);
width = 602;
x = 232;
y = 1518;
};
},
{
glyphname = parenright;
lastChange = "2013-12-10 00:09:49 -0800";
layers = (
{
layerId = "E322F6D1-BA90-436B-BB35-51D9BD3EA9D1";
name = Regular;
paths = (
{
closed = 1;
nodes = (
"552 703 CURVE",
"552 1242 OFFCURVE",
"354 1518 OFFCURVE",
"63 1587 CURVE",
"34 1502 LINE",
"304 1426 OFFCURVE",
"402 1117 OFFCURVE",
"402 703 CURVE",
"402 289 OFFCURVE",
"304 -20 OFFCURVE",
"34 -96 CURVE",
"63 -181 LINE",
"354 -112 OFFCURVE",
"552 164 OFFCURVE"
);
}
);
width = 602;
},
{
layerId = "5D328E58-2F78-4B3D-8E27-494E56F2C351";
name = Bold;
paths = (
{
closed = 1;
nodes = (
"564 703 CURVE",
"564 1242 OFFCURVE",
"327 1518 OFFCURVE",
"36 1587 CURVE",
"-5 1460 LINE",
"221 1387 OFFCURVE",
"337 1117 OFFCURVE",
"337 703 CURVE",
"337 289 OFFCURVE",
"221 19 OFFCURVE",
"-5 -54 CURVE",
"36 -181 LINE",
"327 -112 OFFCURVE",
"564 164 OFFCURVE"
);
}
);
width = 602;
}
);
unicode = 0029;
userData = {
anchors = (
);
b = {
};
com.typemytype.robofont.layerData = {
};
components = (
);
contours = {
};
lib = {
};
name = parenright;
points = {
};
segmentType = curve;
unicodes = (
);
width = 602;
x = 232;
y = 1518;
};
},
{
glyphname = bracketleft;
lastChange = "2013-12-10 00:09:49 -0800";
layers = (
{
layerId = "E322F6D1-BA90-436B-BB35-51D9BD3EA9D1";
name = Regular;
paths = (
{
closed = 1;
nodes = (
"132 -52 LINE",
"132 1480 LINE",
"590 1480 LINE",
"590 1374 LINE",
"277 1374 LINE",
"277 55 LINE",
"590 55 LINE",
"590 -52 LINE"
);
}
);
width = 708;
},
{
layerId = "5D328E58-2F78-4B3D-8E27-494E56F2C351";
name = Bold;
paths = (
{
closed = 1;
nodes = (
"132 -52 LINE",
"132 1480 LINE",
"620 1480 LINE",
"620 1320 LINE",
"352 1320 LINE",
"352 110 LINE",
"620 110 LINE",
"620 -52 LINE"
);
}
);
width = 708;
}
);
unicode = 005B;
},
{
glyphname = bracketright;
lastChange = "2013-12-10 00:09:49 -0800";
layers = (
{
layerId = "E322F6D1-BA90-436B-BB35-51D9BD3EA9D1";
name = Regular;
paths = (
{
closed = 1;
nodes = (
"119 1374 LINE",
"119 1480 LINE",
"576 1480 LINE",
"576 -52 LINE",
"119 -52 LINE",
"119 55 LINE",
"431 55 LINE",
"431 1374 LINE"
);
}
);
width = 707;
},
{
layerId = "5D328E58-2F78-4B3D-8E27-494E56F2C351";
name = Bold;
paths = (
{
closed = 1;
nodes = (
"132 1320 LINE",
"132 1480 LINE",
"620 1480 LINE",
"620 -52 LINE",
"132 -52 LINE",
"132 110 LINE",
"400 110 LINE",
"400 1320 LINE"
);
}
);
width = 708;
}
);
unicode = 005D;
},
{
glyphname = braceleft;
lastChange = "2013-12-10 00:09:49 -0800";
layers = (
{
layerId = "E322F6D1-BA90-436B-BB35-51D9BD3EA9D1";
name = Regular;
paths = (
{
closed = 1;
nodes = (
"608 -130 CURVE",
"608 -40 LINE",
"350 -40 OFFCURVE",
"349 38 OFFCURVE",
"349 381 CURVE SMOOTH",
"349 563 OFFCURVE",
"319 676 OFFCURVE",
"190 707 CURVE",
"319 738 OFFCURVE",
"349 851 OFFCURVE",
"349 1033 CURVE SMOOTH",
"349 1376 OFFCURVE",
"350 1454 OFFCURVE",
"608 1454 CURVE",
"608 1544 LINE",
"228 1544 OFFCURVE",
"198 1402 OFFCURVE",
"198 1033 CURVE SMOOTH",
"198 902 OFFCURVE",
"200 766 OFFCURVE",
"35 754 CURVE",
"35 660 LINE",
"200 648 OFFCURVE",
"198 512 OFFCURVE",
"198 381 CURVE SMOOTH",
"198 12 OFFCURVE",
"228 -130 OFFCURVE"
);
}
);
width = 644;
},
{
layerId = "5D328E58-2F78-4B3D-8E27-494E56F2C351";
name = Bold;
paths = (
{
closed = 1;
nodes = (
"628 -130 CURVE",
"628 3 LINE",
"411 3 OFFCURVE",
"387 48 OFFCURVE",
"387 381 CURVE SMOOTH",
"387 563 OFFCURVE",
"347 676 OFFCURVE",
"218 707 CURVE",
"347 738 OFFCURVE",
"387 851 OFFCURVE",
"387 1033 CURVE SMOOTH",
"387 1366 OFFCURVE",
"411 1411 OFFCURVE",
"628 1411 CURVE",
"628 1544 LINE",
"232 1544 OFFCURVE",
"158 1417 OFFCURVE",
"158 1046 CURVE SMOOTH",
"158 915 OFFCURVE",
"160 789 OFFCURVE",
"-5 777 CURVE",
"-5 637 LINE",
"160 625 OFFCURVE",
"158 499 OFFCURVE",
"158 368 CURVE SMOOTH",
"158 -3 OFFCURVE",
"232 -130 OFFCURVE"
);
}
);
width = 644;
}
);
unicode = 007B;
userData = {
anchors = (
);
b = {
};
com.typemytype.robofont.layerData = {
};
components = (
);
contours = (
);
lib = {
};
name = braceleft;
unicodes = (
);
width = 644;
};
},
{
glyphname = braceright;
lastChange = "2013-12-10 00:09:49 -0800";
layers = (
{
layerId = "E322F6D1-BA90-436B-BB35-51D9BD3EA9D1";
name = Regular;
paths = (
{
closed = 1;
nodes = (
"35 -130 LINE",
"415 -130 OFFCURVE",
"445 12 OFFCURVE",
"445 381 CURVE SMOOTH",
"445 512 OFFCURVE",
"443 648 OFFCURVE",
"608 660 CURVE",
"608 754 LINE",
"443 766 OFFCURVE",
"445 902 OFFCURVE",
"445 1033 CURVE SMOOTH",
"445 1402 OFFCURVE",
"415 1544 OFFCURVE",
"35 1544 CURVE",
"35 1454 LINE",
"293 1454 OFFCURVE",
"294 1376 OFFCURVE",
"294 1033 CURVE SMOOTH",
"294 851 OFFCURVE",
"324 738 OFFCURVE",
"453 707 CURVE",
"324 676 OFFCURVE",
"294 563 OFFCURVE",
"294 381 CURVE SMOOTH",
"294 38 OFFCURVE",
"293 -40 OFFCURVE",
"35 -40 CURVE"
);
}
);
width = 644;
},
{
layerId = "5D328E58-2F78-4B3D-8E27-494E56F2C351";
name = Bold;
paths = (
{
closed = 1;
nodes = (
"-5 -130 LINE",
"391 -130 OFFCURVE",
"465 -3 OFFCURVE",
"465 368 CURVE SMOOTH",
"465 499 OFFCURVE",
"463 625 OFFCURVE",
"628 637 CURVE",
"628 777 LINE",
"463 789 OFFCURVE",
"465 915 OFFCURVE",
"465 1046 CURVE SMOOTH",
"465 1417 OFFCURVE",
"391 1544 OFFCURVE",
"-5 1544 CURVE",
"-5 1411 LINE",
"212 1411 OFFCURVE",
"236 1366 OFFCURVE",
"236 1033 CURVE SMOOTH",
"236 851 OFFCURVE",
"276 738 OFFCURVE",
"405 707 CURVE",
"276 676 OFFCURVE",
"236 563 OFFCURVE",
"236 381 CURVE SMOOTH",
"236 48 OFFCURVE",
"212 3 OFFCURVE",
"-5 3 CURVE"
);
}
);
width = 644;
}
);
unicode = 007D;
userData = {
anchors = (
);
b = {
};
com.typemytype.robofont.layerData = {
};
components = (
);
contours = (
);
lib = {
};
name = braceleft;
unicodes = (
);
width = 644;
};
},
{
glyphname = numbersign;
lastChange = "2013-12-10 00:09:49 -0800";
layers = (
{
layerId = "E322F6D1-BA90-436B-BB35-51D9BD3EA9D1";
name = Regular;
paths = (
{
closed = 1;
nodes = (
"278 1 LINE",
"145 0 LINE",
"256 551 LINE",
"51 551 LINE",
"80 649 LINE",
"276 649 LINE",
"327 901 LINE",
"120 901 LINE",
"149 999 LINE",
"347 999 LINE",
"441 1463 LINE",
"579 1464 LINE",
"483 999 LINE",
"808 999 LINE",
"903 1463 LINE",
"1041 1464 LINE",
"945 999 LINE",
"1175 999 LINE",
"1146 901 LINE",
"925 901 LINE",
"873 649 LINE",
"1106 649 LINE",
"1077 551 LINE",
"853 551 LINE",
"740 1 LINE",
"607 0 LINE",
"718 551 LINE",
"391 551 LINE"
);
},
{
closed = 1;
nodes = (
"463 901 LINE",
"411 649 LINE",
"738 649 LINE",
"788 901 LINE"
);
}
);
width = 1221;
},
{
layerId = "5D328E58-2F78-4B3D-8E27-494E56F2C351";
name = Bold;
paths = (
{
closed = 1;
nodes = (
"324 0 LINE",
"124 -1 LINE",
"230 526 LINE",
"46 526 LINE",
"87 672 LINE",
"259 672 LINE",
"302 877 LINE",
"116 877 LINE",
"154 1023 LINE",
"331 1023 LINE",
"420 1464 LINE",
"626 1464 LINE",
"535 1023 LINE",
"765 1023 LINE",
"854 1464 LINE",
"1061 1464 LINE",
"970 1023 LINE",
"1180 1023 LINE",
"1142 877 LINE",
"941 877 LINE",
"897 672 LINE",
"1113 672 LINE",
"1072 526 LINE",
"868 526 LINE",
"760 0 LINE",
"560 -1 LINE",
"666 526 LINE",
"432 526 LINE"
);
},
{
closed = 1;
nodes = (
"506 877 LINE",
"461 672 LINE",
"695 672 LINE",
"736 877 LINE"
);
}
);
width = 1221;
}
);
unicode = 0023;
userData = {
com.typemytype.robofont.layerData = {
};
};
},
{
glyphname = percent;
lastChange = "2013-12-10 00:09:49 -0800";
layers = (
{
layerId = "E322F6D1-BA90-436B-BB35-51D9BD3EA9D1";
name = Regular;
paths = (
{
closed = 1;
nodes = (
"1309 93 CURVE",
"1177 93 OFFCURVE",
"1112 212 OFFCURVE",
"1112 348 CURVE",
"1112 484 OFFCURVE",
"1177 604 OFFCURVE",
"1309 604 CURVE",
"1441 604 OFFCURVE",
"1507 487 OFFCURVE",
"1507 348 CURVE",
"1507 212 OFFCURVE",
"1441 93 OFFCURVE"
);
},
{
closed = 1;
nodes = (
"1309 0 CURVE",
"1512 0 OFFCURVE",
"1616 175 OFFCURVE",
"1616 348 CURVE",
"1616 521 OFFCURVE",
"1512 696 OFFCURVE",
"1309 696 CURVE",
"1106 696 OFFCURVE",
"1002 521 OFFCURVE",
"1002 348 CURVE",
"1002 175 OFFCURVE",
"1106 0 OFFCURVE"
);
},
{
closed = 1;
nodes = (
"357 863 CURVE",
"225 863 OFFCURVE",
"160 982 OFFCURVE",
"160 1118 CURVE",
"160 1254 OFFCURVE",
"225 1374 OFFCURVE",
"357 1374 CURVE",
"489 1374 OFFCURVE",
"555 1257 OFFCURVE",
"555 1118 CURVE",
"555 982 OFFCURVE",
"489 863 OFFCURVE"
);
},
{
closed = 1;
nodes = (
"357 770 CURVE",
"560 770 OFFCURVE",
"664 945 OFFCURVE",
"664 1118 CURVE",
"664 1291 OFFCURVE",
"560 1466 OFFCURVE",
"357 1466 CURVE",
"154 1466 OFFCURVE",
"50 1291 OFFCURVE",
"50 1118 CURVE",
"50 945 OFFCURVE",
"154 770 OFFCURVE"
);
},
{
closed = 1;
nodes = (
"268 -14 LINE",
"1503 1415 LINE",
"1426 1481 LINE",
"190 52 LINE"
);
}
);
width = 1677;
},
{
layerId = "5D328E58-2F78-4B3D-8E27-494E56F2C351";
name = Bold;
paths = (
{
closed = 1;
nodes = (
"1279 115 CURVE SMOOTH",
"1179 115 OFFCURVE",
"1127 207 OFFCURVE",
"1127 325 CURVE SMOOTH",
"1127 436 OFFCURVE",
"1184 531 OFFCURVE",
"1279 531 CURVE SMOOTH",
"1377 531 OFFCURVE",
"1430 440 OFFCURVE",
"1430 324 CURVE SMOOTH",
"1430 207 OFFCURVE",
"1376 115 OFFCURVE"
);
},
{
closed = 1;
nodes = (
"1280 -24 CURVE SMOOTH",
"1481 -24 OFFCURVE",
"1593 148 OFFCURVE",
"1593 322 CURVE SMOOTH",
"1593 494 OFFCURVE",
"1481 668 OFFCURVE",
"1280 668 CURVE SMOOTH",
"1077 668 OFFCURVE",
"963 493 OFFCURVE",
"963 320 CURVE SMOOTH",
"963 147 OFFCURVE",
"1075 -24 OFFCURVE"
);
},
{
closed = 1;
nodes = (
"356 913 CURVE SMOOTH",
"256 913 OFFCURVE",
"204 1005 OFFCURVE",
"204 1123 CURVE SMOOTH",
"204 1234 OFFCURVE",
"261 1329 OFFCURVE",
"356 1329 CURVE SMOOTH",
"454 1329 OFFCURVE",
"507 1238 OFFCURVE",
"507 1122 CURVE SMOOTH",
"507 1005 OFFCURVE",
"453 913 OFFCURVE"
);
},
{
closed = 1;
nodes = (
"357 774 CURVE SMOOTH",
"558 774 OFFCURVE",
"670 946 OFFCURVE",
"670 1120 CURVE SMOOTH",
"670 1292 OFFCURVE",
"558 1466 OFFCURVE",
"357 1466 CURVE SMOOTH",
"154 1466 OFFCURVE",
"40 1291 OFFCURVE",
"40 1118 CURVE SMOOTH",
"40 945 OFFCURVE",
"152 774 OFFCURVE"
);
},
{
closed = 1;
nodes = (
"281 -32 LINE",
"1516 1398 LINE",
"1405 1502 LINE",
"169 73 LINE"
);
}
);
width = 1677;
}
);
unicode = 0025;
userData = {
anchors = (
);
b = {
};
com.typemytype.robofont.layerData = {
};
components = (
);
contours = (
);
lib = {
};
name = percent;
unicodes = (
);
width = 1677;
};
},
{
glyphname = quotesingle;
lastChange = "2013-12-10 00:09:49 -0800";
layers = (
{
layerId = "E322F6D1-BA90-436B-BB35-51D9BD3EA9D1";
name = Regular;
paths = (
{
closed = 1;
nodes = (
"172 1000 LINE",
"123 1000 LINE",
"81 1464 LINE",
"213 1464 LINE"
);
}
);
width = 280;
},
{
layerId = "5D328E58-2F78-4B3D-8E27-494E56F2C351";
name = Bold;
paths = (
{
closed = 1;
nodes = (
"195 1000 LINE",
"122 1000 LINE",
"60 1464 LINE",
"256 1464 LINE"
);
}
);
width = 280;
}
);
unicode = 0027;
userData = {
com.typemytype.robofont.layerData = {
};
};
},
{
glyphname = quotedbl;
lastChange = "2013-12-10 00:09:49 -0800";
layers = (
{
layerId = "E322F6D1-BA90-436B-BB35-51D9BD3EA9D1";
name = Regular;
paths = (
{
closed = 1;
nodes = (
"406 1000 LINE",
"357 1000 LINE",
"315 1464 LINE",
"447 1464 LINE"
);
},
{
closed = 1;
nodes = (
"149 1000 LINE",
"100 1000 LINE",
"58 1464 LINE",
"190 1464 LINE"
);
}
);
width = 510;
},
{
layerId = "5D328E58-2F78-4B3D-8E27-494E56F2C351";
name = Bold;
paths = (
{
closed = 1;
nodes = (
"438 1000 LINE",
"365 1000 LINE",
"303 1464 LINE",
"499 1464 LINE"
);
},
{
closed = 1;
nodes = (
"146 1000 LINE",
"73 1000 LINE",
"11 1464 LINE",
"207 1464 LINE"
);
}
);
width = 510;
}
);
unicode = 0022;
userData = {
com.typemytype.robofont.layerData = {
};
};
},
{
glyphname = quoteleft;
lastChange = "2013-12-10 14:24:29 -0800";
layers = (
{
layerId = "E322F6D1-BA90-436B-BB35-51D9BD3EA9D1";
name = Regular;
paths = (
{
closed = 1;
nodes = (
"145 1469 CURVE",
"145 1468 OFFCURVE",
"213 1431 OFFCURVE",
"214 1431 CURVE",
"157 1335 OFFCURVE",
"136 1298 OFFCURVE",
"136 1200 CURVE",
"230 1187 LINE",
"230 1143.67 OFFCURVE",
"229.556 1100.33 OFFCURVE",
"229.556 1057 CURVE SMOOTH",
"229.556 1035.33 OFFCURVE",
"229.667 1013.67 OFFCURVE",
"230 992 CURVE",
"30 992 LINE",
"30 1089 LINE SMOOTH",
"30 1093.83 OFFCURVE",
"29.9978 1098.64 OFFCURVE",
"29.9978 1103.45 CURVE SMOOTH",
"29.9978 1243.95 OFFCURVE",
"31.8678 1374.24 OFFCURVE"
);
}
);
width = 330;
},
{
layerId = "5D328E58-2F78-4B3D-8E27-494E56F2C351";
name = Bold;
paths = (
{
closed = 1;
nodes = (
"145 1469 CURVE",
"145 1468 OFFCURVE",
"233 1421 OFFCURVE",
"234 1421 CURVE",
"177 1325 OFFCURVE",
"156 1298 OFFCURVE",
"156 1200 CURVE",
"250 1187 LINE",
"250 1144 OFFCURVE",
"250 1100 OFFCURVE",
"250 1057 CURVE SMOOTH",
"250 1035 OFFCURVE",
"250 1014 OFFCURVE",
"250 992 CURVE",
"20 992 LINE",
"20 1089 LINE SMOOTH",
"20 1094 OFFCURVE",
"20 1099 OFFCURVE",
"20 1103 CURVE SMOOTH",
"20 1244 OFFCURVE",
"22 1374 OFFCURVE"
);
}
);
width = 330;
}
);
unicode = 2018;
},
{
glyphname = quoteright;
lastChange = "2013-12-10 14:27:04 -0800";
layers = (
{
layerId = "E322F6D1-BA90-436B-BB35-51D9BD3EA9D1";
name = Regular;
paths = (
{
closed = 1;
nodes = (
"90 1292 CURVE SMOOTH",
"90 1464 LINE",
"310 1464 LINE",
"306 1284 OFFCURVE",
"330 1104 OFFCURVE",
"160 991 CURVE",
"101 1064 LINE",
"126 1087 OFFCURVE",
"177 1154 OFFCURVE",
"180 1274 CURVE",
"180 1273 OFFCURVE",
"90 1291 OFFCURVE"
);
}
);
width = 330;
},
{
layerId = "5D328E58-2F78-4B3D-8E27-494E56F2C351";
name = Bold;
paths = (
{
closed = 1;
nodes = (
"100 1292 CURVE SMOOTH",
"100 1464 LINE",
"300 1464 LINE",
"296 1284 OFFCURVE",
"320 1104 OFFCURVE",
"160 991 CURVE",
"111 1054 LINE",
"136 1077 OFFCURVE",
"187 1154 OFFCURVE",
"190 1274 CURVE",
"190 1273 OFFCURVE",
"100 1291 OFFCURVE"
);
}
);
width = 330;
}
);
unicode = 2019;
},
{
glyphname = quotedblleft;
lastChange = "2013-12-10 14:27:23 -0800";
layers = (
{
layerId = "E322F6D1-BA90-436B-BB35-51D9BD3EA9D1";
name = Regular;
paths = (
{
closed = 1;
nodes = (
"479 1473 CURVE",
"538 1410 LINE",
"513 1387 OFFCURVE",
"460 1319 OFFCURVE",
"457 1196 CURVE",
"560 1183 LINE",
"560 995 LINE",
"340 995 LINE",
"340 1084 LINE",
"345 1242 OFFCURVE",
"345 1378 OFFCURVE"
);
},
{
closed = 1;
nodes = (
"165 1473 CURVE",
"224 1410 LINE",
"199 1387 OFFCURVE",
"146 1319 OFFCURVE",
"143 1197 CURVE",
"240 1183 LINE",
"240 995 LINE",
"20 995 LINE",
"20 1084 LINE SMOOTH",
"20 1240 OFFCURVE",
"31 1379 OFFCURVE"
);
}
);
width = 630;
},
{
layerId = "5D328E58-2F78-4B3D-8E27-494E56F2C351";
name = Bold;
paths = (
{
closed = 1;
nodes = (
"459 1473 CURVE",
"508 1410 LINE",
"483 1387 OFFCURVE",
"430 1319 OFFCURVE",
"427 1196 CURVE",
"530 1183 LINE",
"530 995 LINE",
"330 995 LINE",
"330 1084 LINE",
"335 1242 OFFCURVE",
"325 1378 OFFCURVE"
);
},
{
closed = 1;
nodes = (
"165 1473 CURVE",
"214 1410 LINE",
"189 1387 OFFCURVE",
"136 1319 OFFCURVE",
"133 1197 CURVE",
"230 1183 LINE",
"230 995 LINE",
"30 995 LINE",
"30 1084 LINE SMOOTH",
"30 1240 OFFCURVE",
"31 1379 OFFCURVE"
);
}
);
width = 630;
}
);
unicode = 201C;
},
{
glyphname = quotedblright;
lastChange = "2013-12-10 14:27:39 -0800";
layers = (
{
layerId = "E322F6D1-BA90-436B-BB35-51D9BD3EA9D1";
name = Regular;
paths = (
{
closed = 1;
nodes = (
"391 1292 LINE",
"391 1464 LINE",
"611 1464 LINE",
"606 1285 OFFCURVE",
"612 1103 OFFCURVE",
"453 991 CURVE",
"392 1054 LINE",
"417 1075 OFFCURVE",
"469 1152 OFFCURVE",
"472 1273 CURVE"
);
},
{
closed = 1;
nodes = (
"60 1292 CURVE SMOOTH",
"60 1464 LINE",
"281 1464 LINE",
"277 1284 OFFCURVE",
"300 1104 OFFCURVE",
"140 991 CURVE",
"70 1054 LINE",
"96 1077 OFFCURVE",
"147 1154 OFFCURVE",
"150 1274 CURVE",
"150 1273 OFFCURVE",
"60 1291 OFFCURVE"
);
}
);
width = 631;
},
{
layerId = "5D328E58-2F78-4B3D-8E27-494E56F2C351";
name = Bold;
paths = (
{
closed = 1;
nodes = (
"401 1292 LINE",
"401 1464 LINE",
"601 1464 LINE",
"596 1285 OFFCURVE",
"612 1103 OFFCURVE",
"453 991 CURVE",
"402 1054 LINE",
"427 1075 OFFCURVE",
"479 1152 OFFCURVE",
"482 1273 CURVE"
);
},
{
closed = 1;
nodes = (
"100 1292 CURVE SMOOTH",
"100 1464 LINE",
"301 1464 LINE",
"297 1284 OFFCURVE",
"320 1104 OFFCURVE",
"160 991 CURVE",
"110 1054 LINE",
"136 1077 OFFCURVE",
"187 1154 OFFCURVE",
"190 1274 CURVE",
"190 1273 OFFCURVE",
"100 1291 OFFCURVE"
);
}
);
width = 631;
}
);
unicode = 201D;
},
{
glyphname = quotesinglbase;
lastChange = "2013-12-10 14:27:51 -0800";
layers = (
{
layerId = "E322F6D1-BA90-436B-BB35-51D9BD3EA9D1";
name = Regular;
paths = (
{
closed = 1;
nodes = (
"118 -81 CURVE SMOOTH",
"118 93 LINE",
"350 93 LINE",
"346 -87 OFFCURVE",
"349 -269 OFFCURVE",
"189 -382 CURVE",
"120 -319 LINE",
"145 -296 OFFCURVE",
"196 -219 OFFCURVE",
"199 -99 CURVE",
"199 -99 OFFCURVE",
"118 -82 OFFCURVE"
);
}
);
width = 436;
},
{
layerId = "5D328E58-2F78-4B3D-8E27-494E56F2C351";
name = Bold;
paths = (
{
closed = 1;
nodes = (
"128 -81 CURVE SMOOTH",
"128 93 LINE",
"320 93 LINE",
"316 -87 OFFCURVE",
"319 -269 OFFCURVE",
"159 -382 CURVE",
"110 -319 LINE",
"135 -296 OFFCURVE",
"186 -219 OFFCURVE",
"189 -99 CURVE",
"189 -99 OFFCURVE",
"128 -82 OFFCURVE"
);
}
);
width = 436;
}
);
unicode = 201A;
},
{
glyphname = quotedblbase;
lastChange = "2013-12-10 14:28:06 -0800";
layers = (
{
layerId = "E322F6D1-BA90-436B-BB35-51D9BD3EA9D1";
name = Regular;
paths = (
{
closed = 1;
nodes = (
"434 -81 CURVE SMOOTH",
"434 93 LINE",
"668 93 LINE",
"664 -87 OFFCURVE",
"667 -269 OFFCURVE",
"507 -382 CURVE",
"438 -319 LINE",
"463 -296 OFFCURVE",
"514 -219 OFFCURVE",
"517 -99 CURVE",
"517 -99 OFFCURVE",
"434 -82 OFFCURVE"
);
},
{
closed = 1;
nodes = (
"86 -81 CURVE",
"86 93 LINE",
"320 93 LINE",
"316 -87 OFFCURVE",
"319 -269 OFFCURVE",
"159 -382 CURVE",
"90 -319 LINE",
"115 -296 OFFCURVE",
"166 -219 OFFCURVE",
"169 -99 CURVE",
"169 -99 OFFCURVE",
"85 -82 OFFCURVE"
);
}
);
width = 744;
},
{
layerId = "5D328E58-2F78-4B3D-8E27-494E56F2C351";
name = Bold;
paths = (
{
closed = 1;
nodes = (
"434 -81 CURVE SMOOTH",
"434 93 LINE",
"628 93 LINE",
"624 -87 OFFCURVE",
"627 -269 OFFCURVE",
"467 -382 CURVE",
"418 -319 LINE",
"443 -296 OFFCURVE",
"494 -219 OFFCURVE",
"497 -99 CURVE",
"497 -99 OFFCURVE",
"434 -82 OFFCURVE"
);
},
{
closed = 1;
nodes = (
"126 -81 CURVE",
"126 93 LINE",
"320 93 LINE",
"316 -87 OFFCURVE",
"319 -269 OFFCURVE",
"159 -382 CURVE",
"110 -319 LINE",
"135 -296 OFFCURVE",
"186 -219 OFFCURVE",
"189 -99 CURVE",
"189 -99 OFFCURVE",
"125 -82 OFFCURVE"
);
}
);
width = 744;
}
);
unicode = 201E;
},
{
glyphname = guilsinglleft;
lastChange = "2013-12-10 00:09:49 -0800";
layers = (
{
layerId = "E322F6D1-BA90-436B-BB35-51D9BD3EA9D1";
name = Regular;
paths = (
{
closed = 1;
nodes = (
"51 552 LINE",
"51 749 LINE",
"435 1050 LINE",
"435 909 LINE",
"149 650 LINE",
"435 393 LINE",
"435 251 LINE"
);
}
);
width = 528;
},
{
layerId = "5D328E58-2F78-4B3D-8E27-494E56F2C351";
name = Bold;
paths = (
{
closed = 1;
nodes = (
"43 798 LINE",
"498 1069 LINE",
"498 857 LINE",
"191 650 LINE",
"498 441 LINE",
"498 230 LINE",
"43 501 LINE"
);
}
);
width = 528;
}
);
unicode = 2039;
},
{
glyphname = guilsinglright;
lastChange = "2013-12-10 00:09:49 -0800";
layers = (
{
layerId = "E322F6D1-BA90-436B-BB35-51D9BD3EA9D1";
name = Regular;
paths = (
{
closed = 1;
nodes = (
"435 552 LINE",
"435 749 LINE",
"51 1050 LINE",
"51 909 LINE",
"337 650 LINE",
"51 393 LINE",
"51 251 LINE"
);
}
);
width = 528;
},
{
layerId = "5D328E58-2F78-4B3D-8E27-494E56F2C351";
name = Bold;
paths = (
{
closed = 1;
nodes = (
"493 798 LINE",
"493 501 LINE",
"38 230 LINE",
"38 441 LINE",
"345 650 LINE",
"38 857 LINE",
"38 1069 LINE"
);
}
);
width = 528;
}
);
unicode = 203A;
},
{
glyphname = guillemotleft;
lastChange = "2013-12-10 03:49:34 -0800";
layers = (
{
layerId = "5D328E58-2F78-4B3D-8E27-494E56F2C351";
name = Bold;
paths = (
{
closed = 1;
nodes = (
"938 1069 LINE",
"938 857 LINE",
"631 650 LINE",
"938 441 LINE",
"938 230 LINE",
"483 501 LINE",
"483 798 LINE"
);
},
{
closed = 1;
nodes = (
"-7 798 LINE",
"448 1069 LINE",
"448 857 LINE",
"141 650 LINE",
"448 441 LINE",
"448 230 LINE",
"-7 501 LINE"
);
}
);
width = 946;
},
{
layerId = "E322F6D1-BA90-436B-BB35-51D9BD3EA9D1";
name = Regular;
paths = (
{
closed = 1;
nodes = (
"936 1049 LINE",
"936 907 LINE",
"589 650 LINE",
"936 391 LINE",
"936 250 LINE",
"491 551 LINE",
"491 748 LINE"
);
},
{
closed = 1;
nodes = (
"53 748 LINE",
"498 1049 LINE",
"498 907 LINE",
"151 650 LINE",
"498 391 LINE",
"498 250 LINE",
"53 551 LINE"
);
}
);
width = 946;
}
);
unicode = 00AB;
userData = {
anchors = (
);
b = {
};
com.typemytype.robofont.layerData = {
};
components = (
);
contours = (
);
lib = {
};
name = guillemotleft;
unicodes = (
);
width = 946;
};
},
{
glyphname = guillemotright;
lastChange = "2013-12-10 00:09:49 -0800";
layers = (
{
layerId = "E322F6D1-BA90-436B-BB35-51D9BD3EA9D1";
name = Regular;
paths = (
{
closed = 1;
nodes = (
"53 1049 LINE",
"498 748 LINE",
"498 551 LINE",
"53 250 LINE",
"53 391 LINE",
"400 650 LINE",
"53 907 LINE"
);
},
{
closed = 1;
nodes = (
"936 748 LINE",
"936 551 LINE",
"491 250 LINE",
"491 391 LINE",
"838 650 LINE",
"491 907 LINE",
"491 1049 LINE"
);
}
);
width = 946;
},
{
layerId = "5D328E58-2F78-4B3D-8E27-494E56F2C351";
name = Bold;
paths = (
{
closed = 1;
nodes = (
"-7 1069 LINE",
"448 798 LINE",
"448 501 LINE",
"-7 230 LINE",
"-7 441 LINE",
"300 650 LINE",
"-7 857 LINE"
);
},
{
closed = 1;
nodes = (
"938 798 LINE",
"938 501 LINE",
"483 230 LINE",
"483 441 LINE",
"790 650 LINE",
"483 857 LINE",
"483 1069 LINE"
);
}
);
width = 946;
}
);
unicode = 00BB;
userData = {
com.typemytype.robofont.layerData = {
};
};
},
{
glyphname = asterisk;
lastChange = "2013-12-10 00:09:49 -0800";
layers = (
{
layerId = "E322F6D1-BA90-436B-BB35-51D9BD3EA9D1";
name = Regular;
paths = (
{
closed = 1;
nodes = (
"460 763 LINE",
"364 763 LINE",
"373 1050 LINE",
"117 895 LINE",
"72 983 LINE",
"338 1113 LINE",
"71 1243 LINE",
"116 1331 LINE",
"373 1176 LINE",
"364 1464 LINE",
"460 1464 LINE",
"451 1177 LINE",
"707 1332 LINE",
"752 1244 LINE",
"486 1114 LINE",
"753 984 LINE",
"708 896 LINE",
"451 1051 LINE"
);
}
);
width = 826;
},
{
layerId = "5D328E58-2F78-4B3D-8E27-494E56F2C351";
name = Bold;
paths = (
{
closed = 1;
nodes = (
"474 753 LINE",
"361 753 LINE",
"367 1031 LINE",
"112 875 LINE",
"55 983 LINE",
"320 1113 LINE",
"54 1243 LINE",
"111 1351 LINE",
"367 1199 LINE",
"361 1474 LINE",
"474 1474 LINE",
"467 1200 LINE",
"722 1352 LINE",
"779 1244 LINE",
"514 1114 LINE",
"780 984 LINE",
"723 876 LINE",
"467 1032 LINE"
);
}
);
width = 826;
}
);
unicode = 002A;
userData = {
com.typemytype.robofont.layerData = {
};
};
},
{
glyphname = period;
lastChange = "2013-12-10 00:09:49 -0800";
layers = (
{
layerId = "E322F6D1-BA90-436B-BB35-51D9BD3EA9D1";
name = Regular;
paths = (
{
closed = 1;
nodes = (
"135 215 LINE",
"299 215 LINE",
"299 0 LINE",
"135 0 LINE"
);
}
);
width = 434;
},
{
layerId = "5D328E58-2F78-4B3D-8E27-494E56F2C351";
name = Bold;
paths = (
{
closed = 1;
nodes = (
"85 240 LINE",
"345 240 LINE",
"345 0 LINE",
"85 0 LINE"
);
}
);
width = 434;
}
);
unicode = 002E;
},
{
glyphname = comma;
lastChange = "2013-12-10 14:28:23 -0800";
layers = (
{
layerId = "E322F6D1-BA90-436B-BB35-51D9BD3EA9D1";
name = Regular;
paths = (
{
closed = 1;
nodes = (
"90 219 LINE",
"310 219 LINE",
"310 134 LINE",
"305 -24 OFFCURVE",
"305 -163 OFFCURVE",
"163 -254 CURVE",
"104 -192 LINE",
"129 -172 OFFCURVE",
"181 -105 OFFCURVE",
"184 16 CURVE",
"90 29 LINE"
);
}
);
width = 445;
},
{
layerId = "5D328E58-2F78-4B3D-8E27-494E56F2C351";
name = Bold;
paths = (
{
closed = 1;
nodes = (
"85 240 LINE",
"355 240 LINE",
"355 95 LINE SMOOTH",
"355 -103 OFFCURVE",
"324 -214 OFFCURVE",
"182 -295 CURVE",
"111 -203 LINE",
"144 -172 OFFCURVE",
"204 -92 OFFCURVE",
"204 -13 CURVE",
"85 0 LINE"
);
}
);
width = 445;
}
);
unicode = 002C;
},
{
glyphname = colon;
lastChange = "2013-12-10 00:09:49 -0800";
layers = (
{
layerId = "E322F6D1-BA90-436B-BB35-51D9BD3EA9D1";
name = Regular;
paths = (
{
closed = 1;
nodes = (
"332 387 LINE",
"332 171 LINE",
"159 171 LINE",
"159 387 LINE"
);
},
{
closed = 1;
nodes = (
"159 1024 LINE",
"332 1024 LINE",
"332 808 LINE",
"159 808 LINE"
);
}
);
width = 482;
},
{
layerId = "5D328E58-2F78-4B3D-8E27-494E56F2C351";
name = Bold;
paths = (
{
closed = 1;
nodes = (
"375 408 LINE",
"375 171 LINE",
"116 171 LINE",
"116 408 LINE"
);
},
{
closed = 1;
nodes = (
"116 1047 LINE",
"375 1047 LINE",
"375 808 LINE",
"116 808 LINE"
);
}
);
width = 482;
}
);
unicode = 003A;
},
{
glyphname = semicolon;
lastChange = "2013-12-10 14:28:38 -0800";
layers = (
{
layerId = "E322F6D1-BA90-436B-BB35-51D9BD3EA9D1";
name = Regular;
paths = (
{
closed = 1;
nodes = (
"130 219 LINE",
"350 219 LINE",
"350 134 LINE",
"345 -24 OFFCURVE",
"345 -163 OFFCURVE",
"213 -254 CURVE",
"144 -182 LINE",
"169 -162 OFFCURVE",
"221 -105 OFFCURVE",
"224 16 CURVE",
"130 29 LINE"
);
},
{
closed = 1;
nodes = (
"342 1024 LINE",
"342 808 LINE",
"149 808 LINE",
"149 1024 LINE"
);
}
);
width = 478;
},
{
layerId = "5D328E58-2F78-4B3D-8E27-494E56F2C351";
name = Bold;
paths = (
{
closed = 1;
nodes = (
"123 240 LINE",
"123 0 LINE",
"242 -13 LINE",
"242 -92 OFFCURVE",
"182 -172 OFFCURVE",
"149 -203 CURVE",
"220 -295 LINE",
"362 -214 OFFCURVE",
"393 -103 OFFCURVE",
"393 95 CURVE SMOOTH",
"393 240 LINE"
);
},
{
closed = 1;
nodes = (
"116 1047 LINE",
"116 808 LINE",
"375 808 LINE",
"375 1047 LINE"
);
}
);
width = 478;
}
);
unicode = 003B;
},
{
glyphname = exclam;
lastChange = "2013-12-10 00:09:49 -0800";
layers = (
{
layerId = "E322F6D1-BA90-436B-BB35-51D9BD3EA9D1";
name = Regular;
paths = (
{
closed = 1;
nodes = (
"191 325 LINE",
"136 1464 LINE",
"309 1464 LINE",
"250 325 LINE"
);
},
{
closed = 1;
nodes = (
"148 177 LINE",
"292 177 LINE",
"292 0 LINE",
"148 0 LINE"
);
}
);
width = 428;
},
{
layerId = "5D328E58-2F78-4B3D-8E27-494E56F2C351";
name = Bold;
paths = (
{
closed = 1;
nodes = (
"181 349 LINE",
"87 1464 LINE",
"349 1464 LINE",
"267 349 LINE"
);
},
{
closed = 1;
nodes = (
"117 217 LINE",
"334 217 LINE",
"334 0 LINE",
"117 0 LINE"
);
}
);
width = 428;
}
);
unicode = 0021;
userData = {
com.typemytype.robofont.layerData = {
};
};
},
{
glyphname = question;
lastChange = "2013-12-10 00:09:49 -0800";
layers = (
{
layerId = "E322F6D1-BA90-436B-BB35-51D9BD3EA9D1";
name = Regular;
paths = (
{
closed = 1;
nodes = (
"795 1089 CURVE SMOOTH",
"795 828 OFFCURVE",
"620 791 OFFCURVE",
"363 358 CURVE",
"491 357 LINE",
"749 754 OFFCURVE",
"941 805 OFFCURVE",
"941 1094 CURVE SMOOTH",
"941 1286 OFFCURVE",
"816 1491 OFFCURVE",
"497 1491 CURVE SMOOTH",
"335 1491 OFFCURVE",
"154 1439 OFFCURVE",
"35 1250 CURVE",
"134 1177 LINE",
"164 1222.61 OFFCURVE",
"269 1374 OFFCURVE",
"488 1374 CURVE SMOOTH",
"723 1374 OFFCURVE",
"795 1227 OFFCURVE"
);
},
{
closed = 1;
nodes = (
"350 0 LINE",
"514 0 LINE",
"514 215 LINE",
"350 215 LINE"
);
}
);
width = 1010;
},
{
layerId = "5D328E58-2F78-4B3D-8E27-494E56F2C351";
name = Bold;
paths = (
{
closed = 1;
nodes = (
"722 1089 CURVE SMOOTH",
"722 841 OFFCURVE",
"538 775 OFFCURVE",
"332 358 CURVE",
"526 358 LINE",
"734 715 OFFCURVE",
"941 805 OFFCURVE",
"941 1094 CURVE SMOOTH",
"941 1296 OFFCURVE",
"816 1491 OFFCURVE",
"497 1491 CURVE SMOOTH",
"327 1491 OFFCURVE",
"154 1440 OFFCURVE",
"35 1251 CURVE",
"184 1143 LINE",
"214 1189 OFFCURVE",
"305 1316 OFFCURVE",
"488 1316 CURVE SMOOTH",
"659 1316 OFFCURVE",
"722 1227 OFFCURVE"
);
},
{
closed = 1;
nodes = (
"315 0 LINE",
"557 0 LINE",
"557 235 LINE",
"315 235 LINE"
);
}
);
width = 1010;
}
);
unicode = 003F;
userData = {
com.typemytype.robofont.layerData = {
};
};
},
{
glyphname = slash;
lastChange = "2013-12-10 00:09:49 -0800";
layers = (
{
layerId = "E322F6D1-BA90-436B-BB35-51D9BD3EA9D1";
name = Regular;
paths = (
{
closed = 1;
nodes = (
"152 -35 LINE",
"43 -8 LINE",
"458 1534 LINE",
"575 1507 LINE"
);
}
);
width = 592;
},
{
layerId = "5D328E58-2F78-4B3D-8E27-494E56F2C351";
name = Bold;
paths = (
{
closed = 1;
nodes = (
"203 -47 LINE",
"43 -8 LINE",
"458 1534 LINE",
"632 1495 LINE"
);
}
);
width = 592;
}
);
unicode = 002F;
},
{
glyphname = backslash;
lastChange = "2013-12-10 00:09:49 -0800";
layers = (
{
layerId = "E322F6D1-BA90-436B-BB35-51D9BD3EA9D1";
name = Regular;
paths = (
{
closed = 1;
nodes = (
"588 -5 LINE",
"443 -5 LINE",
"46 1464 LINE",
"191 1464 LINE"
);
}
);
width = 632;
},
{
layerId = "5D328E58-2F78-4B3D-8E27-494E56F2C351";
name = Bold;
paths = (
{
closed = 1;
nodes = (
"651 -5 LINE",
"433 -5 LINE",
"36 1464 LINE",
"254 1464 LINE"
);
}
);
width = 632;
}
);
unicode = 005C;
},
{
glyphname = bar;
lastChange = "2013-12-10 00:09:49 -0800";
layers = (
{
layerId = "E322F6D1-BA90-436B-BB35-51D9BD3EA9D1";
name = Regular;
paths = (
{
closed = 1;
nodes = (
"281 -197 LINE",
"135 -197 LINE",
"135 1502 LINE",
"281 1502 LINE"
);
}
);
width = 416;
},
{
layerId = "5D328E58-2F78-4B3D-8E27-494E56F2C351";
name = Bold;
paths = (
{
closed = 1;
nodes = (
"325 -197 LINE",
"105 -197 LINE",
"105 1502 LINE",
"325 1502 LINE"
);
}
);
width = 416;
}
);
unicode = 007C;
},
{
glyphname = brokenbar;
lastChange = "2013-12-10 00:09:49 -0800";
layers = (
{
layerId = "E322F6D1-BA90-436B-BB35-51D9BD3EA9D1";
name = Regular;
paths = (
{
closed = 1;
nodes = (
"135 -198 LINE",
"135 463 LINE",
"281 463 LINE",
"281 -198 LINE"
);
},
{
closed = 1;
nodes = (
"281 853 LINE",
"135 853 LINE",
"135 1504 LINE",
"281 1504 LINE"
);
}
);
width = 416;
},
{
layerId = "5D328E58-2F78-4B3D-8E27-494E56F2C351";
name = Bold;
paths = (
{
closed = 1;
nodes = (
"101 -198 LINE",
"101 473 LINE",
"321 473 LINE",
"321 -198 LINE"
);
},
{
closed = 1;
nodes = (
"321 843 LINE",
"101 843 LINE",
"101 1504 LINE",
"321 1504 LINE"
);
}
);
width = 416;
}
);
unicode = 00A6;
userData = {
com.typemytype.robofont.layerData = {
};
};
},
{
glyphname = at;
lastChange = "2013-12-10 00:25:23 -0800";
layers = (
{
layerId = "E322F6D1-BA90-436B-BB35-51D9BD3EA9D1";
name = Regular;
paths = (
{
closed = 1;
nodes = (
"1100 531 CURVE",
"1053 373 OFFCURVE",
"902 272 OFFCURVE",
"764 276 CURVE SMOOTH",
"549 282 OFFCURVE",
"445 451 OFFCURVE",
"445 634 CURVE SMOOTH",
"445 888 OFFCURVE",
"622 1150 OFFCURVE",
"874 1150 CURVE SMOOTH",
"959 1150 OFFCURVE",
"1045 1120 OFFCURVE",
"1145 1053 CURVE",
"1169 1126 LINE",
"1268 1126 LINE",
"1177 569 LINE SMOOTH",
"1163 486 OFFCURVE",
"1198 403 OFFCURVE",
"1277 397 CURVE SMOOTH",
"1373 390 OFFCURVE",
"1473 499 OFFCURVE",
"1473 817 CURVE SMOOTH",
"1473 1156 OFFCURVE",
"1189 1360 OFFCURVE",
"886 1360 CURVE SMOOTH",
"488 1360 OFFCURVE",
"240 1004 OFFCURVE",
"240 676 CURVE SMOOTH",
"240 371 OFFCURVE",
"425 88 OFFCURVE",
"839 88 CURVE SMOOTH",
"955 88 OFFCURVE",
"1094 114 OFFCURVE",
"1246 183 CURVE",
"1288 100 LINE",
"1123 17 OFFCURVE",
"974 -14 OFFCURVE",
"842 -14 CURVE SMOOTH",
"340 -14 OFFCURVE",
"114 326 OFFCURVE",
"114 685 CURVE SMOOTH",
"114 1064 OFFCURVE",
"393 1465 OFFCURVE",
"883 1465 CURVE SMOOTH",
"1256 1465 OFFCURVE",
"1591 1197 OFFCURVE",
"1591 805 CURVE SMOOTH",
"1591 484 OFFCURVE",
"1435 290 OFFCURVE",
"1256 309 CURVE SMOOTH",
"1200 315 OFFCURVE",
"1101 365 OFFCURVE"
);
},
{
closed = 1;
nodes = (
"1123 972 LINE",
"1037 1030 OFFCURVE",
"957 1055 OFFCURVE",
"886 1055 CURVE SMOOTH",
"695 1055 OFFCURVE",
"570 864 OFFCURVE",
"570 631 CURVE SMOOTH",
"570 498 OFFCURVE",
"634 372 OFFCURVE",
"779 372 CURVE SMOOTH",
"869 372 OFFCURVE",
"1032 428 OFFCURVE",
"1080 716 CURVE SMOOTH"
);
}
);
width = 1704;
},
{
layerId = "5D328E58-2F78-4B3D-8E27-494E56F2C351";
name = Bold;
paths = (
{
closed = 1;
nodes = (
"1073 239 CURVE",
"1018 140 OFFCURVE",
"892 62 OFFCURVE",
"764 67 CURVE SMOOTH",
"549 75 OFFCURVE",
"425 242 OFFCURVE",
"425 425 CURVE SMOOTH",
"425 679 OFFCURVE",
"614 940 OFFCURVE",
"866 940 CURVE SMOOTH",
"951 940 OFFCURVE",
"1046 900 OFFCURVE",
"1105 844 CURVE",
"1135 917 LINE",
"1280 917 LINE",
"1191 326 LINE SMOOTH",
"1182 264 OFFCURVE",
"1223 241 OFFCURVE",
"1276 241 CURVE SMOOTH",
"1373 241 OFFCURVE",
"1443 339 OFFCURVE",
"1443 608 CURVE SMOOTH",
"1443 938 OFFCURVE",
"1186 1097 OFFCURVE",
"886 1097 CURVE SMOOTH",
"508 1097 OFFCURVE",
"274 755 OFFCURVE",
"274 467 CURVE SMOOTH",
"274 171 OFFCURVE",
"440 -71 OFFCURVE",
"849 -71 CURVE SMOOTH",
"1017 -71 OFFCURVE",
"1163 -15 OFFCURVE",
"1221 19 CURVE",
"1288 -105 LINE",
"1161 -179 OFFCURVE",
"1014 -223 OFFCURVE",
"842 -223 CURVE SMOOTH",
"320 -223 OFFCURVE",
"84 97 OFFCURVE",
"84 476 CURVE SMOOTH",
"84 865 OFFCURVE",
"383 1256 OFFCURVE",
"883 1256 CURVE SMOOTH",
"1277 1256 OFFCURVE",
"1621 998 OFFCURVE",
"1621 596 CURVE SMOOTH",
"1621 275 OFFCURVE",
"1442 106 OFFCURVE",
"1258 106 CURVE SMOOTH",
"1202 106 OFFCURVE",
"1102 132 OFFCURVE"
);
},
{
closed = 1;
nodes = (
"1073 724 LINE",
"1018 771 OFFCURVE",
"950 799 OFFCURVE",
"879 799 CURVE SMOOTH",
"732 799 OFFCURVE",
"614 655 OFFCURVE",
"614 422 CURVE SMOOTH",
"614 295 OFFCURVE",
"687 211 OFFCURVE",
"783 211 CURVE SMOOTH",
"873 211 OFFCURVE",
"1001 259 OFFCURVE",
"1039 504 CURVE SMOOTH"
);
}
);
width = 1704;
}
);
unicode = 0040;
userData = {
com.typemytype.robofont.layerData = {
};
};
},
{
glyphname = ampersand;
lastChange = "2013-12-10 00:09:49 -0800";
layers = (
{
layerId = "E322F6D1-BA90-436B-BB35-51D9BD3EA9D1";
name = Regular;
paths = (
{
closed = 1;
nodes = (
"548 982 LINE SMOOTH",
"479 1060 OFFCURVE",
"456 1141 OFFCURVE",
"460 1210 CURVE SMOOTH",
"466 1314 OFFCURVE",
"569 1374 OFFCURVE",
"678 1374 CURVE SMOOTH",
"782 1374 OFFCURVE",
"882 1315 OFFCURVE",
"882 1205 CURVE SMOOTH",
"882 1116 OFFCURVE",
"816 1000 OFFCURVE",
"548 893 CURVE SMOOTH",
"221 762 OFFCURVE",
"98 615 OFFCURVE",
"98 409 CURVE SMOOTH",
"98 169 OFFCURVE",
"292 -25 OFFCURVE",
"582 -25 CURVE SMOOTH",
"897 -25 OFFCURVE",
"1248 178 OFFCURVE",
"1311 782 CURVE",
"1188 801 LINE",
"1150 399 OFFCURVE",
"943 93 OFFCURVE",
"603 93 CURVE SMOOTH",
"350 93 OFFCURVE",
"244 254 OFFCURVE",
"244 415 CURVE SMOOTH",
"244 557 OFFCURVE",
"318 669 OFFCURVE",
"617 811 CURVE SMOOTH",
"817 906 OFFCURVE",
"1010 1017 OFFCURVE",
"1010 1211 CURVE SMOOTH",
"1010 1393 OFFCURVE",
"861 1491 OFFCURVE",
"673 1491 CURVE SMOOTH",
"495 1491 OFFCURVE",
"331 1392 OFFCURVE",
"325 1210 CURVE SMOOTH",
"322 1112 OFFCURVE",
"354 1024 OFFCURVE",
"428 940 CURVE SMOOTH",
"1284 -24 LINE",
"1371 61 LINE"
);
}
);
width = 1430;
},
{
layerId = "5D328E58-2F78-4B3D-8E27-494E56F2C351";
name = Bold;
paths = (
{
closed = 1;
nodes = (
"592 1008 LINE SMOOTH",
"534 1073 OFFCURVE",
"510 1141 OFFCURVE",
"518 1208 CURVE SMOOTH",
"524 1262 OFFCURVE",
"579 1316 OFFCURVE",
"678 1316 CURVE SMOOTH",
"771 1316 OFFCURVE",
"825 1260 OFFCURVE",
"831 1205 CURVE SMOOTH",
"838 1143 OFFCURVE",
"824 1039 OFFCURVE",
"525 923 CURVE SMOOTH",
"229 808 OFFCURVE",
"102 661 OFFCURVE",
"98 420 CURVE SMOOTH",
"94 173 OFFCURVE",
"292 -25 OFFCURVE",
"582 -25 CURVE SMOOTH",
"857 -25 OFFCURVE",
"1236 91 OFFCURVE",
"1332 777 CURVE",
"1150 803 LINE",
"1076 298 OFFCURVE",
"851 151 OFFCURVE",
"615 151 CURVE SMOOTH",
"403 151 OFFCURVE",
"321 270 OFFCURVE",
"316 421 CURVE SMOOTH",
"311 560 OFFCURVE",
"371 677 OFFCURVE",
"637 804 CURVE SMOOTH",
"947 952 OFFCURVE",
"1023 1038 OFFCURVE",
"1023 1211 CURVE SMOOTH",
"1023 1393 OFFCURVE",
"861 1491 OFFCURVE",
"673 1491 CURVE SMOOTH",
"489 1491 OFFCURVE",
"327 1392 OFFCURVE",
"316 1210 CURVE SMOOTH",
"310 1114 OFFCURVE",
"333 1036 OFFCURVE",
"405 955 CURVE SMOOTH",
"1278 -35 LINE",
"1414 87 LINE"
);
}
);
width = 1430;
}
);
unicode = 0026;
userData = {
anchors = (
);
b = {
};
com.typemytype.robofont.layerData = {
};
components = (
);
contours = {
};
lib = {
};
name = ampersand;
points = {
};
segmentType = line;
unicodes = (
);
width = 1430;
x = 1010;
y = 1044;
};
},
{
glyphname = section;
lastChange = "2013-12-10 00:09:49 -0800";
layers = (
{
layerId = "E322F6D1-BA90-436B-BB35-51D9BD3EA9D1";
name = Regular;
paths = (
{
closed = 1;
nodes = (
"531 -25 CURVE SMOOTH",
"751 -25 OFFCURVE",
"883 68 OFFCURVE",
"900 253 CURVE SMOOTH",
"909 350 OFFCURVE",
"850 432 OFFCURVE",
"775 482 CURVE",
"850 565 OFFCURVE",
"873 647 OFFCURVE",
"873 714 CURVE SMOOTH",
"873 1022 OFFCURVE",
"310 985 OFFCURVE",
"303 1198 CURVE SMOOTH",
"299 1314 OFFCURVE",
"374 1378 OFFCURVE",
"527 1378 CURVE SMOOTH",
"659 1378 OFFCURVE",
"731 1340.17 OFFCURVE",
"793 1229 CURVE",
"793 1230 OFFCURVE",
"884 1286 OFFCURVE",
"884 1286 CURVE",
"810 1437.7 OFFCURVE",
"704 1491 OFFCURVE",
"527 1491 CURVE SMOOTH",
"308 1491 OFFCURVE",
"164 1391 OFFCURVE",
"164 1210 CURVE SMOOTH",
"164 1092 OFFCURVE",
"239 1027 OFFCURVE",
"307 986 CURVE",
"212 898 OFFCURVE",
"176 823 OFFCURVE",
"174 755 CURVE SMOOTH",
"166 437 OFFCURVE",
"812 499 OFFCURVE",
"774 251 CURVE SMOOTH",
"758 144 OFFCURVE",
"681 93 OFFCURVE",
"536 93 CURVE SMOOTH",
"374 93 OFFCURVE",
"273 162.478 OFFCURVE",
"229 310 CURVE",
"127 273 LINE",
"165 49 OFFCURVE",
"366 -25 OFFCURVE"
);
},
{
closed = 1;
nodes = (
"677 532 CURVE",
"425 652 OFFCURVE",
"155 655 OFFCURVE",
"391 939 CURVE",
"686.513 825.234 OFFCURVE",
"838.163 807.767 OFFCURVE"
);
}
);
width = 1005;
},
{
layerId = "5D328E58-2F78-4B3D-8E27-494E56F2C351";
name = Bold;
paths = (
{
closed = 1;
nodes = (
"541 -24 CURVE SMOOTH",
"772 -24 OFFCURVE",
"918 76 OFFCURVE",
"918 265 CURVE SMOOTH",
"918 367 OFFCURVE",
"846 433 OFFCURVE",
"771 483 CURVE",
"875 588 OFFCURVE",
"878 645 OFFCURVE",
"885 712 CURVE SMOOTH",
"914 994 OFFCURVE",
"345 1060 OFFCURVE",
"358 1215 CURVE",
"360 1274 OFFCURVE",
"414 1317 OFFCURVE",
"529 1319 CURVE SMOOTH",
"611 1320 OFFCURVE",
"691 1304 OFFCURVE",
"747 1198 CURVE",
"747 1199 OFFCURVE",
"884 1284 OFFCURVE",
"884 1284 CURVE",
"812 1436 OFFCURVE",
"707 1489 OFFCURVE",
"530 1489 CURVE SMOOTH",
"311 1489 OFFCURVE",
"147 1391 OFFCURVE",
"147 1203 CURVE SMOOTH",
"147 1085 OFFCURVE",
"225 1028 OFFCURVE",
"293 987 CURVE",
"179 895 OFFCURVE",
"155 823 OFFCURVE",
"154 755 CURVE SMOOTH",
"149 429 OFFCURVE",
"753 406 OFFCURVE",
"728 247 CURVE SMOOTH",
"720 197 OFFCURVE",
"679 152 OFFCURVE",
"544 152 CURVE SMOOTH",
"422 152 OFFCURVE",
"329 196 OFFCURVE",
"280 328 CURVE",
"127 273 LINE",
"168 49 OFFCURVE",
"376 -24 OFFCURVE"
);
},
{
closed = 1;
nodes = (
"622 558 CURVE",
"354 675 OFFCURVE",
"240 725 OFFCURVE",
"418 916 CURVE",
"712 791 OFFCURVE",
"752 739 OFFCURVE"
);
}
);
width = 1005;
}
);
unicode = 00A7;
userData = {
anchors = (
);
b = {
};
com.typemytype.robofont.layerData = {
};
components = (
);
contours = {
};
lib = {
};
name = section;
points = {
};
segmentType = curve;
unicodes = (
);
width = 1005;
x = 838;
y = 808;
};
},
{
glyphname = paragraph;
lastChange = "2013-12-10 00:09:49 -0800";
layers = (
{
layerId = "E322F6D1-BA90-436B-BB35-51D9BD3EA9D1";
name = Regular;
paths = (
{
closed = 1;
nodes = (
"469 0 LINE",
"469 799 LINE",
"254 799 OFFCURVE",
"109 928 OFFCURVE",
"109 1124 CURVE SMOOTH",
"109 1303 OFFCURVE",
"186 1464 OFFCURVE",
"626 1464 CURVE SMOOTH",
"974 1464 LINE",
"974 1349 LINE",
"824 1349 LINE",
"824 0 LINE",
"698 0 LINE",
"698 799 LINE",
"595 799 LINE",
"595 0 LINE"
);
}
);
width = 1038;
},
{
layerId = "5D328E58-2F78-4B3D-8E27-494E56F2C351";
name = Bold;
paths = (
{
closed = 1;
nodes = (
"386 0 LINE",
"386 799 LINE",
"173 799 OFFCURVE",
"57 930 OFFCURVE",
"57 1126 CURVE SMOOTH",
"57 1305 OFFCURVE",
"147 1464 OFFCURVE",
"547 1464 CURVE SMOOTH",
"1014 1464 LINE",
"1014 1292 LINE",
"887 1292 LINE",
"887 0 LINE",
"698 0 LINE",
"698 799 LINE",
"575 799 LINE",
"575 0 LINE"
);
}
);
width = 1038;
}
);
unicode = 00B6;
userData = {
com.typemytype.robofont.layerData = {
};
};
},
{
glyphname = periodcentered;
lastChange = "2013-12-10 00:09:49 -0800";
layers = (
{
layerId = "E322F6D1-BA90-436B-BB35-51D9BD3EA9D1";
name = Regular;
paths = (
{
closed = 1;
nodes = (
"135 758 LINE",
"299 758 LINE",
"299 543 LINE",
"135 543 LINE"
);
}
);
width = 434;
},
{
layerId = "5D328E58-2F78-4B3D-8E27-494E56F2C351";
name = Bold;
paths = (
{
closed = 1;
nodes = (
"85 766 LINE",
"345 766 LINE",
"345 526 LINE",
"85 526 LINE"
);
}
);
width = 434;
}
);
unicode = 00B7;
},
{
glyphname = plus;
lastChange = "2013-12-10 00:09:49 -0800";
layers = (
{
layerId = "E322F6D1-BA90-436B-BB35-51D9BD3EA9D1";
name = Regular;
paths = (
{
closed = 1;
nodes = (
"72 673 LINE",
"72 773 LINE",
"376 773 LINE",
"376 1100 LINE",
"478 1100 LINE",
"478 773 LINE",
"778 773 LINE",
"778 673 LINE",
"478 673 LINE",
"478 350 LINE",
"376 350 LINE",
"376 673 LINE"
);
}
);
width = 860;
},
{
layerId = "5D328E58-2F78-4B3D-8E27-494E56F2C351";
name = Bold;
paths = (
{
closed = 1;
nodes = (
"72 652 LINE",
"72 802 LINE",
"351 802 LINE",
"351 1100 LINE",
"503 1100 LINE",
"503 802 LINE",
"778 802 LINE",
"778 652 LINE",
"503 652 LINE",
"503 350 LINE",
"351 350 LINE",
"351 652 LINE"
);
}
);
width = 860;
}
);
unicode = 002B;
},
{
glyphname = minus;
lastChange = "2013-12-10 00:09:49 -0800";
layers = (
{
layerId = "E322F6D1-BA90-436B-BB35-51D9BD3EA9D1";
name = Regular;
paths = (
{
closed = 1;
nodes = (
"803 670 LINE",
"803 756 LINE",
"135 756 LINE",
"135 670 LINE"
);
}
);
width = 1024;
},
{
layerId = "5D328E58-2F78-4B3D-8E27-494E56F2C351";
name = Bold;
paths = (
{
closed = 1;
nodes = (
"803 656 LINE",
"803 780 LINE",
"135 780 LINE",
"135 656 LINE"
);
}
);
width = 1024;
}
);
unicode = 2212;
},
{
glyphname = plusminus;
lastChange = "2013-12-10 00:09:49 -0800";
layers = (
{
layerId = "E322F6D1-BA90-436B-BB35-51D9BD3EA9D1";
name = Regular;
paths = (
{
closed = 1;
nodes = (
"129 247 LINE",
"129 333 LINE",
"730 333 LINE",
"730 247 LINE"
);
},
{
closed = 1;
nodes = (
"130 673 LINE",
"130 773 LINE",
"379 773 LINE",
"379 1023 LINE",
"481 1023 LINE",
"481 773 LINE",
"730 773 LINE",
"730 673 LINE",
"481 673 LINE",
"481 423 LINE",
"379 423 LINE",
"379 673 LINE"
);
}
);
width = 860;
},
{
layerId = "5D328E58-2F78-4B3D-8E27-494E56F2C351";
name = Bold;
paths = (
{
closed = 1;
nodes = (
"127 212 LINE",
"127 339 LINE",
"730 339 LINE",
"730 212 LINE"
);
},
{
closed = 1;
nodes = (
"128 651 LINE",
"128 800 LINE",
"353 800 LINE",
"353 1023 LINE",
"505 1023 LINE",
"505 800 LINE",
"730 800 LINE",
"730 651 LINE",
"505 651 LINE",
"505 423 LINE",
"353 423 LINE",
"353 651 LINE"
);
}
);
width = 860;
}
);
unicode = 00B1;
},
{
glyphname = divide;
lastChange = "2013-12-10 00:09:49 -0800";
layers = (
{
layerId = "E322F6D1-BA90-436B-BB35-51D9BD3EA9D1";
name = Regular;
paths = (
{
closed = 1;
nodes = (
"565 385 LINE",
"565 171 LINE",
"392 171 LINE",
"392 385 LINE"
);
},
{
closed = 1;
nodes = (
"392 1024 LINE",
"565 1024 LINE",
"565 808 LINE",
"392 808 LINE"
);
},
{
closed = 1;
nodes = (
"850 551 LINE",
"850 649 LINE",
"100 649 LINE",
"100 551 LINE"
);
}
);
width = 1024;
},
{
layerId = "5D328E58-2F78-4B3D-8E27-494E56F2C351";
name = Bold;
paths = (
{
closed = 1;
nodes = (
"595 395 LINE",
"595 171 LINE",
"334 171 LINE",
"334 395 LINE"
);
},
{
closed = 1;
nodes = (
"334 1024 LINE",
"595 1024 LINE",
"595 798 LINE",
"334 798 LINE"
);
},
{
closed = 1;
nodes = (
"842 527 LINE",
"842 669 LINE",
"92 669 LINE",
"92 527 LINE"
);
}
);
width = 1024;
}
);
unicode = 00F7;
},
{
glyphname = multiply;
lastChange = "2013-12-10 00:09:49 -0800";
layers = (
{
layerId = "E322F6D1-BA90-436B-BB35-51D9BD3EA9D1";
name = Regular;
paths = (
{
closed = 1;
nodes = (
"534 193 LINE",
"624 283 LINE",
"458 450 LINE",
"624 617 LINE",
"534 707 LINE",
"367 541 LINE",
"200 707 LINE",
"110 617 LINE",
"276 450 LINE",
"110 283 LINE",
"200 193 LINE",
"367 359 LINE"
);
}
);
width = 734;
},
{
layerId = "5D328E58-2F78-4B3D-8E27-494E56F2C351";
name = Bold;
paths = (
{
closed = 1;
nodes = (
"522 181 LINE",
"641 300 LINE",
"481 460 LINE",
"641 620 LINE",
"522 739 LINE",
"362 579 LINE",
"202 739 LINE",
"83 620 LINE",
"243 460 LINE",
"83 300 LINE",
"202 181 LINE",
"362 341 LINE"
);
}
);
width = 734;
}
);
unicode = 00D7;
userData = {
com.typemytype.robofont.layerData = {
};
};
},
{
glyphname = equal;
lastChange = "2013-12-10 00:09:49 -0800";
layers = (
{
layerId = "E322F6D1-BA90-436B-BB35-51D9BD3EA9D1";
name = Regular;
paths = (
{
closed = 1;
nodes = (
"135 550 LINE",
"135 650 LINE",
"685 650 LINE",
"685 550 LINE"
);
},
{
closed = 1;
nodes = (
"135 300 LINE",
"135 400 LINE",
"685 400 LINE",
"685 300 LINE"
);
}
);
width = 820;
},
{
layerId = "5D328E58-2F78-4B3D-8E27-494E56F2C351";
name = Bold;
paths = (
{
closed = 1;
nodes = (
"135 518 LINE",
"135 665 LINE",
"685 665 LINE",
"685 518 LINE"
);
},
{
closed = 1;
nodes = (
"135 269 LINE",
"135 416 LINE",
"685 416 LINE",
"685 269 LINE"
);
}
);
width = 820;
}
);
unicode = 003D;
userData = {
com.typemytype.robofont.layerData = {
};
};
},
{
glyphname = less;
lastChange = "2013-12-10 00:09:49 -0800";
layers = (
{
layerId = "E322F6D1-BA90-436B-BB35-51D9BD3EA9D1";
name = Regular;
paths = (
{
closed = 1;
nodes = (
"998 241 LINE",
"998 103 LINE",
"49 469 LINE",
"49 595 LINE",
"998 950 LINE",
"998 798 LINE",
"211 525 LINE"
);
}
);
width = 1051;
},
{
layerId = "5D328E58-2F78-4B3D-8E27-494E56F2C351";
name = Bold;
paths = (
{
closed = 1;
nodes = (
"998 280 LINE",
"998 72 LINE",
"49 438 LINE",
"49 632 LINE",
"998 983 LINE",
"998 754 LINE",
"288 524 LINE"
);
}
);
width = 1051;
}
);
unicode = 003C;
},
{
glyphname = greater;
lastChange = "2013-12-10 00:09:49 -0800";
layers = (
{
layerId = "E322F6D1-BA90-436B-BB35-51D9BD3EA9D1";
name = Regular;
paths = (
{
closed = 1;
nodes = (
"53 812 LINE",
"53 950 LINE",
"1002 584 LINE",
"1002 458 LINE",
"53 103 LINE",
"53 255 LINE",
"840 528 LINE"
);
}
);
width = 1051;
},
{
layerId = "5D328E58-2F78-4B3D-8E27-494E56F2C351";
name = Bold;
paths = (
{
closed = 1;
nodes = (
"49 775 LINE",
"49 983 LINE",
"998 617 LINE",
"998 423 LINE",
"49 72 LINE",
"49 301 LINE",
"759 531 LINE"
);
}
);
width = 1051;
}
);
unicode = 003E;
},
{
glyphname = logicalnot;
lastChange = "2013-12-10 00:09:49 -0800";
layers = (
{
layerId = "E322F6D1-BA90-436B-BB35-51D9BD3EA9D1";
name = Regular;
paths = (
{
closed = 1;
nodes = (
"803 335 LINE",
"889 335 LINE",
"889 756 LINE",
"135 756 LINE",
"135 670 LINE",
"803 670 LINE"
);
}
);
width = 1024;
},
{
layerId = "5D328E58-2F78-4B3D-8E27-494E56F2C351";
name = Bold;
paths = (
{
closed = 1;
nodes = (
"782 325 LINE",
"909 325 LINE",
"909 756 LINE",
"135 756 LINE",
"135 628 LINE",
"782 628 LINE"
);
}
);
width = 1024;
}
);
unicode = 00AC;
},
{
glyphname = dollar;
lastChange = "2013-12-10 05:57:50 -0800";
layers = (
{
components = (
{
name = S;
transform = "{1, 0, 0, 1, 0, 0}";
}
);
layerId = "E322F6D1-BA90-436B-BB35-51D9BD3EA9D1";
name = Regular;
paths = (
{
closed = 1;
nodes = (
"690 -204 LINE",
"690 1672 LINE",
"601 1672 LINE",
"601 -204 LINE"
);
}
);
width = 1216;
},
{
components = (
{
name = S;
transform = "{1, 0, 0, 1, 0, 0}";
}
);
layerId = "5D328E58-2F78-4B3D-8E27-494E56F2C351";
name = Bold;
paths = (
{
closed = 1;
nodes = (
"713 -204 LINE",
"713 1672 LINE",
"581 1672 LINE",
"581 -204 LINE"
);
}
);
width = 1216;
}
);
unicode = 0024;
userData = {
anchors = (
);
b = {
};
com.typemytype.robofont.layerData = {
};
components = (
);
contours = {
};
lib = {
};
name = dollar;
points = {
};
segmentType = curve;
unicodes = (
);
width = 1216;
x = 642;
y = "-24";
};
},
{
glyphname = cent;
lastChange = "2013-12-10 00:09:49 -0800";
layers = (
{
components = (
{
name = c;
transform = "{1, 0, 0, 1, 0, 0}";
}
);
layerId = "E322F6D1-BA90-436B-BB35-51D9BD3EA9D1";
name = Regular;
paths = (
{
closed = 1;
nodes = (
"484 -208 LINE",
"577 -208 LINE",
"577 -208 OFFCURVE",
"577 1253 OFFCURVE",
"577 1253 CURVE",
"484 1253 LINE"
);
}
);
width = 982;
},
{
components = (
{
name = c;
transform = "{1, 0, 0, 1, 0, 0}";
}
);
layerId = "5D328E58-2F78-4B3D-8E27-494E56F2C351";
name = Bold;
paths = (
{
closed = 1;
nodes = (
"486 -208 LINE",
"624 -208 LINE",
"624 -208 OFFCURVE",
"624 1253 OFFCURVE",
"624 1253 CURVE",
"486 1253 LINE"
);
}
);
width = 982;
}
);
unicode = 00A2;
userData = {
com.typemytype.robofont.layerData = {
};
};
},
{
glyphname = sterling;
lastChange = "2013-12-10 00:09:49 -0800";
layers = (
{
layerId = "E322F6D1-BA90-436B-BB35-51D9BD3EA9D1";
name = Regular;
paths = (
{
closed = 1;
nodes = (
"687 42 CURVE SMOOTH",
"817 42 OFFCURVE",
"878.668 20.5116 OFFCURVE",
"979 0 CURVE",
"1007 116 LINE",
"939 139 OFFCURVE",
"822 168 OFFCURVE",
"742 168 CURVE SMOOTH",
"618 168 OFFCURVE",
"493 159 OFFCURVE",
"310 92 CURVE",
"357 181 OFFCURVE",
"403 311 OFFCURVE",
"399 492 CURVE SMOOTH",
"398 546 OFFCURVE",
"387 623 OFFCURVE",
"381 695 CURVE",
"773 695 LINE",
"773 797 LINE",
"374 797 LINE",
"369 854 OFFCURVE",
"355 955 OFFCURVE",
"355 1007 CURVE SMOOTH",
"355 1257.85 OFFCURVE",
"447 1374 OFFCURVE",
"651 1374 CURVE SMOOTH",
"733 1374 OFFCURVE",
"848 1350.87 OFFCURVE",
"884 1134 CURVE",
"1003 1152 LINE",
"971 1365.26 OFFCURVE",
"876 1491 OFFCURVE",
"645 1491 CURVE SMOOTH",
"359 1491 OFFCURVE",
"215 1321.33 OFFCURVE",
"215 988 CURVE SMOOTH",
"215 942 OFFCURVE",
"229 847 OFFCURVE",
"233 797 CURVE",
"66 797 LINE",
"66 695 LINE",
"242 695 LINE",
"250 634 OFFCURVE",
"266 558 OFFCURVE",
"266 509 CURVE SMOOTH",
"266 312 OFFCURVE",
"219 178 OFFCURVE",
"159 57 CURVE",
"219 -26 LINE",
"419 28 OFFCURVE",
"566 42 OFFCURVE"
);
}
);
width = 1168;
},
{
layerId = "5D328E58-2F78-4B3D-8E27-494E56F2C351";
name = Bold;
paths = (
{
closed = 1;
nodes = (
"677 42 CURVE SMOOTH",
"807.432 42 OFFCURVE",
"878.668 20.5116 OFFCURVE",
"979 0 CURVE",
"1020 176 LINE",
"932 199 OFFCURVE",
"849 230 OFFCURVE",
"739 230 CURVE SMOOTH",
"615 230 OFFCURVE",
"535 214 OFFCURVE",
"352 147 CURVE",
"392 226 OFFCURVE",
"449 318 OFFCURVE",
"449 502 CURVE SMOOTH",
"449 556 OFFCURVE",
"441 604 OFFCURVE",
"435 676 CURVE",
"773 676 LINE",
"773 829 LINE",
"426 829 LINE",
"421 886 OFFCURVE",
"409 955 OFFCURVE",
"409 1007 CURVE SMOOTH",
"409 1221 OFFCURVE",
"484 1313 OFFCURVE",
"651 1313 CURVE SMOOTH",
"733 1313 OFFCURVE",
"790 1295 OFFCURVE",
"826 1126 CURVE",
"1003 1152 LINE",
"971 1372 OFFCURVE",
"878 1489 OFFCURVE",
"645 1489 CURVE SMOOTH",
"359 1489 OFFCURVE",
"199 1321 OFFCURVE",
"199 988 CURVE SMOOTH",
"199 942 OFFCURVE",
"211 879 OFFCURVE",
"215 829 CURVE",
"52 829 LINE",
"52 676 LINE",
"228 676 LINE",
"237 636 OFFCURVE",
"250 574 OFFCURVE",
"250 525 CURVE SMOOTH",
"250 341 OFFCURVE",
"173 172 OFFCURVE",
"125 97 CURVE",
"219 -26 LINE",
"431 17 OFFCURVE",
"555.553 42 OFFCURVE"
);
}
);
width = 1168;
}
);
unicode = 00A3;
userData = {
com.typemytype.robofont.layerData = {
};
};
},
{
glyphname = currency;
lastChange = "2013-12-10 00:09:49 -0800";
layers = (
{
layerId = "E322F6D1-BA90-436B-BB35-51D9BD3EA9D1";
name = Regular;
paths = (
{
closed = 1;
nodes = (
"769 658 CURVE SMOOTH",
"769 518 OFFCURVE",
"681 385 OFFCURVE",
"536 385 CURVE SMOOTH",
"385 385 OFFCURVE",
"303 516 OFFCURVE",
"303 655 CURVE SMOOTH",
"303 794 OFFCURVE",
"386 925 OFFCURVE",
"535 925 CURVE SMOOTH",
"684 925 OFFCURVE",
"769 796 OFFCURVE"
);
},
{
closed = 1;
nodes = (
"934 246 LINE",
"990 309 LINE",
"831 449 LINE",
"866 510 OFFCURVE",
"883 581 OFFCURVE",
"883 653 CURVE SMOOTH",
"883 740 OFFCURVE",
"857 828 OFFCURVE",
"805 896 CURVE",
"942 1052 LINE",
"878 1108 LINE",
"745 956 LINE",
"691 998 OFFCURVE",
"620 1023 OFFCURVE",
"534 1023 CURVE SMOOTH",
"427 1023 OFFCURVE",
"345 985 OFFCURVE",
"287 926 CURVE",
"134 1061 LINE",
"78 997 LINE",
"236 859 LINE",
"200 799 OFFCURVE",
"183 727 OFFCURVE",
"183 656 CURVE SMOOTH",
"183 568 OFFCURVE",
"210 479 OFFCURVE",
"264 410 CURVE",
"126 253 LINE",
"190 197 LINE",
"324 350 LINE",
"379 309 OFFCURVE",
"449 284 OFFCURVE",
"535 284 CURVE SMOOTH",
"641 284 OFFCURVE",
"722 322 OFFCURVE",
"780 381 CURVE"
);
}
);
width = 1068;
},
{
layerId = "5D328E58-2F78-4B3D-8E27-494E56F2C351";
name = Bold;
paths = (
{
closed = 1;
nodes = (
"769 658 CURVE SMOOTH",
"769 518 OFFCURVE",
"681 385 OFFCURVE",
"536 385 CURVE SMOOTH",
"385 385 OFFCURVE",
"303 516 OFFCURVE",
"303 655 CURVE SMOOTH",
"303 794 OFFCURVE",
"386 925 OFFCURVE",
"535 925 CURVE SMOOTH",
"684 925 OFFCURVE",
"769 796 OFFCURVE"
);
},
{
closed = 1;
nodes = (
"934 246 LINE",
"990 309 LINE",
"831 449 LINE",
"866 510 OFFCURVE",
"883 581 OFFCURVE",
"883 653 CURVE SMOOTH",
"883 740 OFFCURVE",
"857 828 OFFCURVE",
"805 896 CURVE",
"942 1052 LINE",
"878 1108 LINE",
"745 956 LINE",
"691 998 OFFCURVE",
"620 1023 OFFCURVE",
"534 1023 CURVE SMOOTH",
"427 1023 OFFCURVE",
"345 985 OFFCURVE",
"287 926 CURVE",
"134 1061 LINE",
"78 997 LINE",
"236 859 LINE",
"200 799 OFFCURVE",
"183 727 OFFCURVE",
"183 656 CURVE SMOOTH",
"183 568 OFFCURVE",
"210 479 OFFCURVE",
"264 410 CURVE",
"126 253 LINE",
"190 197 LINE",
"324 350 LINE",
"379 309 OFFCURVE",
"449 284 OFFCURVE",
"535 284 CURVE SMOOTH",
"641 284 OFFCURVE",
"722 322 OFFCURVE",
"780 381 CURVE"
);
}
);
width = 1068;
}
);
unicode = 00A4;
},
{
glyphname = yen;
lastChange = "2013-12-10 05:58:11 -0800";
layers = (
{
components = (
{
name = Y;
transform = "{1, 0, 0, 1, 0, 0}";
}
);
layerId = "E322F6D1-BA90-436B-BB35-51D9BD3EA9D1";
name = Regular;
paths = (
{
closed = 1;
nodes = (
"910 544 OFFCURVE",
"910 544 CURVE",
"910 630 LINE",
"910 630 OFFCURVE",
"256 630 OFFCURVE",
"256 630 CURVE",
"256 544 LINE",
"256 544 OFFCURVE"
);
},
{
closed = 1;
nodes = (
"256 334 LINE",
"256 334 OFFCURVE",
"910 334 OFFCURVE",
"910 334 CURVE",
"910 420 LINE",
"910 420 OFFCURVE",
"256 420 OFFCURVE",
"256 420 CURVE"
);
}
);
width = 1162;
},
{
components = (
{
name = Y;
transform = "{1, 0, 0, 1, 0, 0}";
}
);
layerId = "5D328E58-2F78-4B3D-8E27-494E56F2C351";
name = Bold;
paths = (
{
closed = 1;
nodes = (
"950 542 OFFCURVE",
"950 542 CURVE",
"950 669 LINE",
"950 669 OFFCURVE",
"216 669 OFFCURVE",
"216 669 CURVE",
"216 542 LINE",
"216 542 OFFCURVE"
);
},
{
closed = 1;
nodes = (
"216 304 LINE",
"216 304 OFFCURVE",
"950 304 OFFCURVE",
"950 304 CURVE",
"950 432 LINE",
"950 432 OFFCURVE",
"216 432 OFFCURVE",
"216 432 CURVE"
);
}
);
width = 1162;
}
);
unicode = 00A5;
userData = {
com.typemytype.robofont.layerData = {
};
};
},
{
glyphname = asciicircum;
lastChange = "2013-12-10 00:09:49 -0800";
layers = (
{
layerId = "E322F6D1-BA90-436B-BB35-51D9BD3EA9D1";
name = Regular;
paths = (
{
closed = 1;
nodes = (
"241 100 LINE",
"103 100 LINE",
"469 999 LINE",
"595 999 LINE",
"950 100 LINE",
"798 100 LINE",
"525 837 LINE"
);
}
);
width = 1053;
},
{
layerId = "5D328E58-2F78-4B3D-8E27-494E56F2C351";
name = Bold;
paths = (
{
closed = 1;
nodes = (
"280 100 LINE",
"73 100 LINE",
"434 999 LINE",
"625 999 LINE",
"987 100 LINE",
"758 100 LINE",
"520 761 LINE"
);
}
);
width = 1053;
}
);
unicode = 005E;
},
{
glyphname = asciitilde;
lastChange = "2013-12-10 00:09:49 -0800";
layers = (
{
layerId = "E322F6D1-BA90-436B-BB35-51D9BD3EA9D1";
name = Regular;
paths = (
{
closed = 1;
nodes = (
"758 694 CURVE SMOOTH",
"865 685 OFFCURVE",
"932 754 OFFCURVE",
"941 946 CURVE",
"822 946 LINE",
"804 855 OFFCURVE",
"800 826 OFFCURVE",
"743 826 CURVE SMOOTH",
"669 826 OFFCURVE",
"338 941 OFFCURVE",
"226 950 CURVE SMOOTH",
"134 957 OFFCURVE",
"36 944 OFFCURVE",
"21 707 CURVE",
"139 707 LINE",
"160 818 OFFCURVE",
"185 825 OFFCURVE",
"217 825 CURVE SMOOTH",
"314 825 OFFCURVE",
"606 707 OFFCURVE"
);
}
);
width = 962;
},
{
layerId = "5D328E58-2F78-4B3D-8E27-494E56F2C351";
name = Bold;
paths = (
{
closed = 1;
nodes = (
"787 670 CURVE SMOOTH",
"894 676 OFFCURVE",
"942 784 OFFCURVE",
"951 976 CURVE",
"773 976 LINE",
"755 905 OFFCURVE",
"751 876 OFFCURVE",
"694 876 CURVE SMOOTH",
"620 876 OFFCURVE",
"357 986 OFFCURVE",
"205 976 CURVE SMOOTH",
"113 970 OFFCURVE",
"26 914 OFFCURVE",
"11 677 CURVE",
"189 677 LINE",
"210 768 OFFCURVE",
"235 775 OFFCURVE",
"267 775 CURVE SMOOTH",
"364 775 OFFCURVE",
"595 660 OFFCURVE"
);
}
);
width = 962;
}
);
unicode = 007E;
userData = {
com.typemytype.robofont.layerData = {
};
};
},
{
glyphname = acute;
lastChange = "2013-12-10 03:10:22 -0800";
layers = (
{
anchors = (
{
name = _top;
position = "{144, 1023}";
}
);
layerId = "E322F6D1-BA90-436B-BB35-51D9BD3EA9D1";
name = Regular;
paths = (
{
closed = 1;
nodes = (
"475 1474 LINE",
"169 1154 LINE",
"75 1155 LINE",
"280 1474 LINE"
);
}
);
width = 496;
},
{
anchors = (
{
name = _top;
position = "{150, 1023}";
}
);
layerId = "5D328E58-2F78-4B3D-8E27-494E56F2C351";
name = Bold;
paths = (
{
closed = 1;
nodes = (
"487 1464 LINE",
"136 1144 LINE",
"-5 1144 LINE",
"197 1464 LINE"
);
}
);
width = 496;
}
);
unicode = 00B4;
userData = {
anchors = (
);
b = {
};
com.typemytype.robofont.layerData = {
};
components = (
);
contours = (
);
lib = {
};
name = acute;
unicodes = (
);
width = 496;
};
},
{
glyphname = grave;
lastChange = "2013-12-10 03:10:04 -0800";
layers = (
{
anchors = (
{
name = _top;
position = "{404, 1023}";
}
);
layerId = "E322F6D1-BA90-436B-BB35-51D9BD3EA9D1";
name = Regular;
paths = (
{
closed = 1;
nodes = (
"57 1474 LINE",
"252 1474 LINE",
"457 1155 LINE",
"363 1154 LINE"
);
}
);
width = 496;
},
{
anchors = (
{
name = _top;
position = "{418, 1023}";
}
);
layerId = "5D328E58-2F78-4B3D-8E27-494E56F2C351";
name = Bold;
paths = (
{
closed = 1;
nodes = (
"-5 1474 LINE",
"285 1474 LINE",
"487 1154 LINE",
"346 1154 LINE"
);
}
);
width = 496;
}
);
unicode = 0060;
},
{
glyphname = hungarumlaut;
lastChange = "2013-12-10 03:03:50 -0800";
layers = (
{
anchors = (
{
name = _top;
position = "{246, 1023}";
}
);
layerId = "E322F6D1-BA90-436B-BB35-51D9BD3EA9D1";
name = Regular;
paths = (
{
closed = 1;
nodes = (
"192 1452 LINE",
"381 1452 LINE",
"153 1132 LINE",
"87 1132 LINE"
);
},
{
closed = 1;
nodes = (
"490 1452 LINE",
"685 1452 LINE",
"428 1132 LINE",
"355 1132 LINE"
);
}
);
width = 745;
},
{
anchors = (
{
name = _top;
position = "{250, 1023}";
}
);
layerId = "5D328E58-2F78-4B3D-8E27-494E56F2C351";
name = Bold;
paths = (
{
closed = 1;
nodes = (
"112 1474 LINE",
"391 1474 LINE",
"145 1134 LINE",
"47 1134 LINE"
);
},
{
closed = 1;
nodes = (
"467 1474 LINE",
"755 1474 LINE",
"483 1134 LINE",
"375 1134 LINE"
);
}
);
width = 745;
}
);
unicode = 02DD;
},
{
glyphname = circumflex;
lastChange = "2013-12-10 03:04:11 -0800";
layers = (
{
anchors = (
{
name = _top;
position = "{422, 1023}";
}
);
layerId = "E322F6D1-BA90-436B-BB35-51D9BD3EA9D1";
name = Regular;
paths = (
{
closed = 1;
nodes = (
"315 1474 LINE",
"490 1474 LINE",
"675 1154 LINE",
"578 1154 LINE",
"402 1407 LINE",
"227 1154 LINE",
"130 1154 LINE"
);
}
);
width = 838;
},
{
anchors = (
{
name = _top;
position = "{439, 1023}";
}
);
layerId = "5D328E58-2F78-4B3D-8E27-494E56F2C351";
name = Bold;
paths = (
{
closed = 1;
nodes = (
"297 1474 LINE",
"552 1474 LINE",
"707 1154 LINE",
"565 1154 LINE",
"424 1372 LINE",
"284 1154 LINE",
"142 1154 LINE"
);
}
);
width = 838;
}
);
unicode = 02C6;
userData = {
com.typemytype.robofont.layerData = {
};
};
},
{
glyphname = caron;
lastChange = "2013-12-10 03:04:31 -0800";
layers = (
{
anchors = (
{
name = _top;
position = "{428, 1023}";
}
);
layerId = "E322F6D1-BA90-436B-BB35-51D9BD3EA9D1";
name = Regular;
paths = (
{
closed = 1;
nodes = (
"337 1154 LINE",
"152 1474 LINE",
"249 1474 LINE",
"424 1221 LINE",
"600 1474 LINE",
"697 1474 LINE",
"512 1154 LINE"
);
}
);
width = 838;
},
{
anchors = (
{
name = _top;
position = "{435, 1023}";
}
);
layerId = "5D328E58-2F78-4B3D-8E27-494E56F2C351";
name = Bold;
paths = (
{
closed = 1;
nodes = (
"297 1154 LINE",
"142 1474 LINE",
"284 1474 LINE",
"424 1256 LINE",
"565 1474 LINE",
"707 1474 LINE",
"552 1154 LINE"
);
}
);
width = 838;
}
);
unicode = 02C7;
userData = {
anchors = (
);
b = {
};
com.typemytype.robofont.layerData = {
};
components = (
);
contours = (
);
lib = {
};
name = caron;
unicodes = (
);
width = 838;
};
},
{
glyphname = breve;
lastChange = "2013-12-10 03:04:52 -0800";
layers = (
{
anchors = (
{
name = _top;
position = "{404, 1023}";
}
);
layerId = "E322F6D1-BA90-436B-BB35-51D9BD3EA9D1";
name = Regular;
paths = (
{
closed = 1;
nodes = (
"399 1243 CURVE SMOOTH",
"252 1243 OFFCURVE",
"127 1318 OFFCURVE",
"123 1498 CURVE",
"239 1498 LINE",
"239 1391 OFFCURVE",
"300 1346 OFFCURVE",
"399 1346 CURVE SMOOTH",
"499 1346 OFFCURVE",
"559 1391 OFFCURVE",
"559 1498 CURVE",
"675 1498 LINE",
"671 1318 OFFCURVE",
"546 1243 OFFCURVE"
);
}
);
width = 805;
},
{
anchors = (
{
name = _top;
position = "{418, 1023}";
}
);
layerId = "5D328E58-2F78-4B3D-8E27-494E56F2C351";
name = Bold;
paths = (
{
closed = 1;
nodes = (
"402 1198 CURVE SMOOTH",
"265 1198 OFFCURVE",
"127 1274 OFFCURVE",
"123 1474 CURVE",
"296 1474 LINE",
"296 1407 OFFCURVE",
"308 1353 OFFCURVE",
"402 1353 CURVE SMOOTH",
"496 1353 OFFCURVE",
"508 1407 OFFCURVE",
"508 1474 CURVE",
"681 1474 LINE",
"677 1274 OFFCURVE",
"539 1198 OFFCURVE"
);
}
);
width = 805;
}
);
unicode = 02D8;
userData = {
com.typemytype.robofont.layerData = {
};
};
},
